{
.appVersion = "3306";
DisplayStrings = (
"/soundreccopyright/raisedmcsign/raisedmdsign/raisedmrsign"
);
classes = (
{
automatic = 1;

glyphs = (
{
glyphname = A;
lastChange = "2025-09-12 16:34:27 +0000";
layers = (
{
anchors = (
{
name = Bottom;
position = "{400, 0}";
},
{
name = Greek;
position = "{204, 558}";
},
{
name = Ogonek;
position = "{720, 0}";
},
{
name = Top;
position = "{400, 714}";
}
);
layerId = "FD4D3FDD-DE85-408F-A52A-FF600B1C6101";
paths = (
{
closed = 1;
nodes = (
"40 0 LINE",
"92 0 LINE",
"209 250 LINE",
"591 250 LINE",
"708 0 LINE",
"760 0 LINE",
"426 714 LINE",
"374 714 LINE"
);
},
{
closed = 1;
nodes = (
"400 658 LINE",
"569 298 LINE",
"231 298 LINE"
);
}
);
width = 800;
},
{
anchors = (
{
name = Bottom;
position = "{486, 0}";
},
{
name = Greek;
position = "{204, 558}";
},
{
name = Ogonek;
position = "{840, 0}";
},
{
name = Top;
position = "{486, 714}";
}
);
layerId = m002;
paths = (
{
closed = 1;
nodes = (
"40 0 LINE",
"252 0 LINE",
"302 108 LINE",
"650 108 LINE",
"700 0 LINE",
"912 0 LINE",
"582 714 LINE",
"370 714 LINE"
);
},
{
closed = 1;
nodes = (
"476 485 LINE",
"581 258 LINE",
"371 258 LINE"
);
}
);
width = 952;
}
);
leftKerningGroup = A;
rightKerningGroup = A;
unicode = 0041;
},
{
color = 10;
glyphname = Astroke;
lastChange = "2025-09-12 04:54:52 +0000";
layers = (
{
layerId = "FD4D3FDD-DE85-408F-A52A-FF600B1C6101";
paths = (
{
closed = 1;
nodes = (
"40 0 LINE",
"92 0 LINE",
"209 250 LINE",
"327 250 LINE",
"187 -53 LINE",
"237 -53 LINE",
"377 250 LINE",
"591 250 LINE",
"708 0 LINE",
"760 0 LINE",
"509 536 LINE",
"618 772 LINE",
"568 772 LINE",
"484 590 LINE",
"426 714 LINE",
"374 714 LINE"
);
},
{
closed = 1;
nodes = (
"400 658 LINE",
"458 534 LINE",
"349 298 LINE",
"231 298 LINE"
);
},
{
closed = 1;
nodes = (
"483 480 LINE",
"569 298 LINE",
"399 298 LINE"
);
}
);
width = 800;
},
{
layerId = m002;
paths = (
{
closed = 1;
nodes = (
"40 0 LINE",
"252 0 LINE",
"302 108 LINE",
"367 108 LINE",
"294 -53 LINE",
"344 -53 LINE",
"417 108 LINE",
"650 108 LINE",
"700 0 LINE",
"912 0 LINE",
"638 592 LINE",
"720 772 LINE",
"670 772 LINE",
"613 647 LINE",
"582 714 LINE",
"370 714 LINE"
);
},
{
closed = 1;
nodes = (
"476 485 LINE",
"508 416 LINE",
"436 258 LINE",
"371 258 LINE"
);
},
{
closed = 1;
nodes = (
"533 362 LINE",
"581 258 LINE",
"486 258 LINE"
);
}
);
width = 952;
}
);
leftKerningGroup = A;
leftMetricsKey = A;
rightKerningGroup = A;
rightMetricsKey = A;
unicode = 023A;
},
{
color = 10;
glyphname = AE;
lastChange = "2025-09-12 04:54:54 +0000";
layers = (
{
anchors = (
{
name = Top;
position = "{716, 714}";
}
);
layerId = "FD4D3FDD-DE85-408F-A52A-FF600B1C6101";
paths = (
{
closed = 1;
nodes = (
"40 0 LINE",
"97 0 LINE",
"256 250 LINE",
"499 250 LINE",
"499 0 LINE",
"1040 0 LINE",
"1040 48 LINE",
"549 48 LINE",
"549 344 LINE",
"1019 344 LINE",
"1019 392 LINE",
"549 392 LINE",
"549 666 LINE",
"1040 666 LINE",
"1040 714 LINE",
"494 714 LINE"
);
},
{
closed = 1;
nodes = (
"499 632 LINE",
"499 298 LINE",
"286 298 LINE"
);
}
);
width = 1090;
},
{
anchors = (
{
name = Top;
position = "{826, 714}";
}
);
layerId = m002;
paths = (
{
closed = 1;
nodes = (
"40 0 LINE",
"262 0 LINE",
"357 138 LINE",
"620 138 LINE",
"620 0 LINE",
"1276 0 LINE",
"1276 168 LINE",
"830 168 LINE",
"830 284 LINE",
"1255 284 LINE",
"1255 452 LINE",
"830 452 LINE",
"830 546 LINE",
"1276 546 LINE",
"1276 714 LINE",
"530 714 LINE"
);
},
{
closed = 1;
nodes = (
"620 522 LINE",
"620 288 LINE",
"460 288 LINE"
);
}
);
width = 1316;
}
);
leftKerningGroup = A;
leftMetricsKey = A;
rightKerningGroup = E;
rightMetricsKey = E;
unicode = 00C6;
},
{
glyphname = B;
lastChange = "2025-09-11 23:21:57 +0000";
layers = (
{
layerId = "FD4D3FDD-DE85-408F-A52A-FF600B1C6101";
paths = (
{
closed = 1;
nodes = (
"470 0 LINE SMOOTH",
"597 0 OFFCURVE",
"682 79 OFFCURVE",
"682 198 CURVE SMOOTH",
"682 293 OFFCURVE",
"622 364 OFFCURVE",
"531 374 CURVE",
"531 376 LINE",
"610 388 OFFCURVE",
"662 447 OFFCURVE",
"662 525 CURVE SMOOTH",
"662 638 OFFCURVE",
"576 714 OFFCURVE",
"447 714 CURVE SMOOTH",
"60 714 LINE",
"60 0 LINE"
);
},
{
closed = 1;
nodes = (
"110 351 LINE",
"458 351 LINE SMOOTH",
"562 351 OFFCURVE",
"632 289 OFFCURVE",
"632 196 CURVE SMOOTH",
"632 107 OFFCURVE",
"566 48 OFFCURVE",
"468 48 CURVE SMOOTH",
"110 48 LINE"
);
},
{
closed = 1;
nodes = (
"110 666 LINE",
"447 666 LINE SMOOTH",
"546 666 OFFCURVE",
"612 610 OFFCURVE",
"612 527 CURVE SMOOTH",
"612 450 OFFCURVE",
"550 398 OFFCURVE",
"458 398 CURVE SMOOTH",
"110 398 LINE"
);
}
);
width = 722;
},
{
layerId = m002;
paths = (
{
closed = 1;
nodes = (
"540 0 LINE SMOOTH",
"711 0 OFFCURVE",
"812 79 OFFCURVE",
"812 212 CURVE SMOOTH",
"812 295 OFFCURVE",
"767 355 OFFCURVE",
"691 374 CURVE",
"691 376 LINE",
"754 395 OFFCURVE",
"792 450 OFFCURVE",
"792 524 CURVE SMOOTH",
"792 643 OFFCURVE",
"692 714 OFFCURVE",
"522 714 CURVE SMOOTH",
"60 714 LINE",
"60 0 LINE"
);
},
{
closed = 1;
nodes = (
"270 294 LINE",
"518 294 LINE SMOOTH",
"565 294 OFFCURVE",
"592 269 OFFCURVE",
"592 228 CURVE SMOOTH",
"592 185 OFFCURVE",
"568 160 OFFCURVE",
"528 160 CURVE SMOOTH",
"270 160 LINE"
);
},
{
closed = 1;
nodes = (
"270 554 LINE",
"512 554 LINE SMOOTH",
"550 554 OFFCURVE",
"572 535 OFFCURVE",
"572 504 CURVE SMOOTH",
"572 473 OFFCURVE",
"552 454 OFFCURVE",
"518 454 CURVE SMOOTH",
"270 454 LINE"
);
}
);
width = 842;
}
);
leftKerningGroup = H;
leftMetricsKey = N;
rightKerningGroup = B;
unicode = 0042;
},
{
glyphname = C;
lastChange = "2025-09-11 23:22:45 +0000";
layers = (
{
anchors = (
{
name = Bottom;
position = "{435, 0}";
},
{
name = Top;
position = "{425, 726}";
}
);
layerId = "FD4D3FDD-DE85-408F-A52A-FF600B1C6101";
paths = (
{
closed = 1;
nodes = (
"712 216 LINE",
"700 107 OFFCURVE",
"588 35 OFFCURVE",
"431 35 CURVE SMOOTH",
"232 35 OFFCURVE",
"100 164 OFFCURVE",
"100 357 CURVE SMOOTH",
"100 550 OFFCURVE",
"230 678 OFFCURVE",
"425 678 CURVE SMOOTH",
"588 678 OFFCURVE",
"706 605 OFFCURVE",
"720 496 CURVE",
"770 496 LINE",
"756 634 OFFCURVE",
"618 726 OFFCURVE",
"425 726 CURVE SMOOTH",
"200 726 OFFCURVE",
"50 578 OFFCURVE",
"50 357 CURVE SMOOTH",
"50 135 OFFCURVE",
"202 -13 OFFCURVE",
"431 -13 CURVE SMOOTH",
"618 -13 OFFCURVE",
"750 79 OFFCURVE",
"762 216 CURVE"
);
}
);
width = 820;
},
{
anchors = (
{
name = Bottom;
position = "{470, 0}";
},
{
name = Top;
position = "{450, 726}";
}
);
layerId = m002;
paths = (
{
closed = 1;
nodes = (
"632 286 LINE",
"623 207 OFFCURVE",
"555 155 OFFCURVE",
"460 155 CURVE SMOOTH",
"340 155 OFFCURVE",
"260 236 OFFCURVE",
"260 357 CURVE SMOOTH",
"260 478 OFFCURVE",
"340 558 OFFCURVE",
"460 558 CURVE SMOOTH",
"557 558 OFFCURVE",
"629 505 OFFCURVE",
"640 426 CURVE",
"860 426 LINE",
"841 606 OFFCURVE",
"677 726 OFFCURVE",
"450 726 CURVE SMOOTH",
"204 726 OFFCURVE",
"40 578 OFFCURVE",
"40 357 CURVE SMOOTH",
"40 135 OFFCURVE",
"208 -13 OFFCURVE",
"460 -13 CURVE SMOOTH",
"678 -13 OFFCURVE",
"835 107 OFFCURVE",
"852 286 CURVE"
);
}
);
width = 900;
}
);
leftKerningGroup = O;
leftMetricsKey = O;
rightKerningGroup = O;
rightMetricsKey = O;
unicode = 0043;
},
{
color = 10;
glyphname = Cstroke;
lastChange = "2025-09-12 05:02:37 +0000";
layers = (
{
layerId = "FD4D3FDD-DE85-408F-A52A-FF600B1C6101";
paths = (
{
closed = 1;
nodes = (
"712 216 LINE",
"700 107 OFFCURVE",
"588 35 OFFCURVE",
"431 35 CURVE SMOOTH",
"382 35 OFFCURVE",
"336 43 OFFCURVE",
"296 58 CURVE",
"572 655 LINE",
"656 625 OFFCURVE",
"711 568 OFFCURVE",
"720 496 CURVE",
"770 496 LINE",
"761 590 OFFCURVE",
"694 662 OFFCURVE",
"592 699 CURVE",
"626 772 LINE",
"576 772 LINE",
"548 712 LINE",
"511 721 OFFCURVE",
"469 726 OFFCURVE",
"425 726 CURVE SMOOTH",
"200 726 OFFCURVE",
"50 578 OFFCURVE",
"50 357 CURVE SMOOTH",
"50 207 OFFCURVE",
"119 91 OFFCURVE",
"234 32 CURVE",
"195 -53 LINE",
"245 -53 LINE",
"276 13 LINE",
"322 -4 OFFCURVE",
"374 -13 OFFCURVE",
"431 -13 CURVE SMOOTH",
"618 -13 OFFCURVE",
"750 79 OFFCURVE",
"762 216 CURVE"
);
},
{
closed = 1;
nodes = (
"100 550 OFFCURVE",
"230 678 OFFCURVE",
"425 678 CURVE SMOOTH",
"462 678 OFFCURVE",
"496 674 OFFCURVE",
"528 667 CURVE",
"255 77 LINE",
"158 129 OFFCURVE",
"100 229 OFFCURVE",
"100 357 CURVE SMOOTH"
);
}
);
width = 820;
},
{
layerId = m002;
paths = (
{
closed = 1;
nodes = (
"632 286 LINE",
"623 207 OFFCURVE",
"555 155 OFFCURVE",
"460 155 CURVE SMOOTH",
"434 155 OFFCURVE",
"409 159 OFFCURVE",
"387 166 CURVE",
"556 537 LINE",
"602 515 OFFCURVE",
"633 476 OFFCURVE",
"640 426 CURVE",
"860 426 LINE",
"846 554 OFFCURVE",
"760 652 OFFCURVE",
"629 697 CURVE",
"663 772 LINE",
"613 772 LINE",
"585 710 LINE",
"543 721 OFFCURVE",
"498 726 OFFCURVE",
"450 726 CURVE SMOOTH",
"204 726 OFFCURVE",
"40 578 OFFCURVE",
"40 357 CURVE SMOOTH",
"40 197 OFFCURVE",
"127 75 OFFCURVE",
"270 20 CURVE",
"237 -53 LINE",
"287 -53 LINE",
"314 6 LINE",
"358 -7 OFFCURVE",
"407 -13 OFFCURVE",
"460 -13 CURVE SMOOTH",
"678 -13 OFFCURVE",
"835 107 OFFCURVE",
"852 286 CURVE"
);
},
{
closed = 1;
nodes = (
"260 478 OFFCURVE",
"340 558 OFFCURVE",
"460 558 CURVE SMOOTH",
"479 558 OFFCURVE",
"496 556 OFFCURVE",
"513 552 CURVE",
"346 186 LINE",
"292 220 OFFCURVE",
"260 280 OFFCURVE",
"260 357 CURVE SMOOTH"
);
}
);
width = 900;
}
);
leftKerningGroup = O;
leftMetricsKey = C;
rightKerningGroup = O;
rightMetricsKey = C;
unicode = 023B;
},
{
glyphname = D;
lastChange = "2025-09-11 23:22:48 +0000";
layers = (
{
anchors = (
{
name = Bottom;
position = "{338, 0}";
},
{
name = Top;
position = "{334, 714}";
}
);
layerId = "FD4D3FDD-DE85-408F-A52A-FF600B1C6101";
paths = (
{
closed = 1;
nodes = (
"384 0 LINE SMOOTH",
"588 0 OFFCURVE",
"724 143 OFFCURVE",
"724 357 CURVE SMOOTH",
"724 571 OFFCURVE",
"588 714 OFFCURVE",
"384 714 CURVE SMOOTH",
"60 714 LINE",
"60 0 LINE"
);
},
{
closed = 1;
nodes = (
"110 666 LINE",
"384 666 LINE SMOOTH",
"558 666 OFFCURVE",
"674 542 OFFCURVE",
"674 356 CURVE SMOOTH",
"674 171 OFFCURVE",
"558 48 OFFCURVE",
"384 48 CURVE SMOOTH",
"110 48 LINE"
);
}
);
width = 774;
},
{
anchors = (
{
name = Bottom;
position = "{398, 0}";
},
{
name = Top;
position = "{394, 714}";
}
);
layerId = m002;
paths = (
{
closed = 1;
nodes = (
"474 0 LINE SMOOTH",
"708 0 OFFCURVE",
"864 143 OFFCURVE",
"864 357 CURVE SMOOTH",
"864 571 OFFCURVE",
"708 714 OFFCURVE",
"474 714 CURVE SMOOTH",
"60 714 LINE",
"60 0 LINE"
);
},
{
closed = 1;
nodes = (
"270 546 LINE",
"474 546 LINE SMOOTH",
"576 546 OFFCURVE",
"644 470 OFFCURVE",
"644 356 CURVE SMOOTH",
"644 243 OFFCURVE",
"576 168 OFFCURVE",
"474 168 CURVE SMOOTH",
"270 168 LINE"
);
}
);
width = 904;
}
);
leftKerningGroup = H;
leftMetricsKey = N;
rightKerningGroup = O;
rightMetricsKey = O;
unicode = 0044;
},
{
color = 10;
glyphname = Eth;
lastChange = "2025-09-12 04:54:56 +0000";
layers = (
{
layerId = "FD4D3FDD-DE85-408F-A52A-FF600B1C6101";
paths = (
{
closed = 1;
nodes = (
"434 0 LINE SMOOTH",
"638 0 OFFCURVE",
"774 143 OFFCURVE",
"774 357 CURVE SMOOTH",
"774 571 OFFCURVE",
"638 714 OFFCURVE",
"434 714 CURVE SMOOTH",
"110 714 LINE",
"110 381 LINE",
"60 386 LINE",
"60 341 LINE",
"110 341 LINE",
"110 0 LINE"
);
},
{
closed = 1;
nodes = (
"160 341 LINE",
"261 341 LINE",
"261 383 LINE",
"160 383 LINE",
"160 666 LINE",
"434 666 LINE SMOOTH",
"608 666 OFFCURVE",
"724 542 OFFCURVE",
"724 356 CURVE SMOOTH",
"724 171 OFFCURVE",
"608 48 OFFCURVE",
"434 48 CURVE SMOOTH",
"160 48 LINE"
);
}
);
width = 824;
},
{
layerId = m002;
paths = (
{
closed = 1;
nodes = (
"521 0 LINE SMOOTH",
"755 0 OFFCURVE",
"911 143 OFFCURVE",
"911 357 CURVE SMOOTH",
"911 571 OFFCURVE",
"755 714 OFFCURVE",
"521 714 CURVE SMOOTH",
"107 714 LINE",
"107 417 LINE",
"60 422 LINE",
"60 299 LINE",
"107 299 LINE",
"107 0 LINE"
);
},
{
closed = 1;
nodes = (
"317 299 LINE",
"424 299 LINE",
"424 419 LINE",
"317 419 LINE",
"317 546 LINE",
"521 546 LINE SMOOTH",
"623 546 OFFCURVE",
"691 470 OFFCURVE",
"691 356 CURVE SMOOTH",
"691 243 OFFCURVE",
"623 168 OFFCURVE",
"521 168 CURVE SMOOTH",
"317 168 LINE"
);
}
);
width = 951;
}
);
leftKerningGroup = H;
leftMetricsKey = D;
rightKerningGroup = O;
rightMetricsKey = D;
unicode = 00D0;
},
{
glyphname = E;
lastChange = "2025-09-11 23:22:53 +0000";
layers = (
{
anchors = (
{
name = Bottom;
position = "{565, 0}";
},
{
name = Dot;
position = "{329, 0}";
},
{
name = Greek;
position = "{-86, 558}";
},
{
name = Top;
position = "{333, 714}";
}
);
layerId = "FD4D3FDD-DE85-408F-A52A-FF600B1C6101";
paths = (
{
closed = 1;
nodes = (
"110 392 LINE",
"110 666 LINE",
"601 666 LINE",
"601 714 LINE",
"60 714 LINE",
"60 0 LINE",
"601 0 LINE",
"601 48 LINE",
"110 48 LINE",
"110 344 LINE",
"580 344 LINE",
"580 392 LINE"
);
}
);
width = 651;
},
{
anchors = (
{
name = Bottom;
position = "{644, 0}";
},
{
name = Dot;
position = "{434, 0}";
},
{
name = Greek;
position = "{-131, 558}";
},
{
name = Top;
position = "{413, 714}";
}
);
layerId = m002;
paths = (
{
closed = 1;
nodes = (
"270 452 LINE",
"270 546 LINE",
"716 546 LINE",
"716 714 LINE",
"60 714 LINE",
"60 0 LINE",
"716 0 LINE",
"716 168 LINE",
"270 168 LINE",
"270 284 LINE",
"695 284 LINE",
"695 452 LINE"
);
}
);
width = 756;
}
);
leftKerningGroup = H;
leftMetricsKey = N;
rightKerningGroup = E;
unicode = 0045;
},
{
color = 10;
glyphname = Eopen;
lastChange = "2025-09-12 04:55:06 +0000";
layers = (
{
layerId = "FD4D3FDD-DE85-408F-A52A-FF600B1C6101";
paths = (
{
closed = 1;
nodes = (
"110 285 OFFCURVE",
"206 348 OFFCURVE",
"351 348 CURVE SMOOTH",
"438 348 LINE",
"438 396 LINE",
"351 396 LINE SMOOTH",
"220 396 OFFCURVE",
"133 454 OFFCURVE",
"133 540 CURVE SMOOTH",
"133 624 OFFCURVE",
"230 680 OFFCURVE",
"375 680 CURVE SMOOTH",
"447 680 OFFCURVE",
"514 672 OFFCURVE",
"541 659 CURVE",
"541 704 LINE",
"513 717 OFFCURVE",
"443 726 OFFCURVE",
"368 726 CURVE SMOOTH",
"197 726 OFFCURVE",
"83 652 OFFCURVE",
"83 540 CURVE SMOOTH",
"83 468 OFFCURVE",
"136 401 OFFCURVE",
"215 373 CURVE",
"215 371 LINE",
"122 354 OFFCURVE",
"60 282 OFFCURVE",
"60 190 CURVE SMOOTH",
"60 68 OFFCURVE",
"182 -13 OFFCURVE",
"365 -13 CURVE SMOOTH",
"447 -13 OFFCURVE",
"517 -4 OFFCURVE",
"538 9 CURVE",
"538 54 LINE",
"513 41 OFFCURVE",
"446 33 OFFCURVE",
"372 33 CURVE SMOOTH",
"215 33 OFFCURVE",
"110 96 OFFCURVE",
"110 190 CURVE SMOOTH"
);
}
);
width = 591;
},
{
layerId = m002;
paths = (
{
closed = 1;
nodes = (
"260 280 OFFCURVE",
"315 307 OFFCURVE",
"409 307 CURVE SMOOTH",
"489 307 LINE",
"489 437 LINE",
"406 437 LINE SMOOTH",
"329 437 OFFCURVE",
"283 457 OFFCURVE",
"283 490 CURVE SMOOTH",
"283 535 OFFCURVE",
"343 561 OFFCURVE",
"444 561 CURVE SMOOTH",
"492 561 OFFCURVE",
"539 550 OFFCURVE",
"572 531 CURVE",
"572 694 LINE",
"531 714 OFFCURVE",
"471 726 OFFCURVE",
"411 726 CURVE SMOOTH",
"205 726 OFFCURVE",
"83 648 OFFCURVE",
"83 517 CURVE SMOOTH",
"83 453 OFFCURVE",
"116 399 OFFCURVE",
"171 373 CURVE",
"171 371 LINE",
"101 346 OFFCURVE",
"60 287 OFFCURVE",
"60 213 CURVE SMOOTH",
"60 71 OFFCURVE",
"199 -13 OFFCURVE",
"434 -13 CURVE SMOOTH",
"488 -13 OFFCURVE",
"542 -5 OFFCURVE",
"582 9 CURVE",
"582 177 LINE",
"552 163 OFFCURVE",
"499 155 OFFCURVE",
"439 155 CURVE SMOOTH",
"326 155 OFFCURVE",
"260 185 OFFCURVE",
"260 235 CURVE SMOOTH"
);
}
);
width = 622;
}
);
leftKerningGroup = O;
leftMetricsKey = E;
rightKerningGroup = E;
rightMetricsKey = E;
unicode = 0190;
},
{
color = 10;
glyphname = Ezh;
lastChange = "2025-09-11 23:22:56 +0000";
layers = (
{
anchors = (
{
name = Top;
position = "{333, 714}";
}
);
layerId = "FD4D3FDD-DE85-408F-A52A-FF600B1C6101";
paths = (
{
closed = 1;
nodes = (
"72 666 LINE",
"551 666 LINE",
"325 469 LINE",
"325 421 LINE",
"360 421 LINE SMOOTH",
"502 421 OFFCURVE",
"596 344 OFFCURVE",
"596 229 CURVE SMOOTH",
"596 113 OFFCURVE",
"498 35 OFFCURVE",
"352 35 CURVE SMOOTH",
"201 35 OFFCURVE",
"100 103 OFFCURVE",
"100 206 CURVE",
"50 206 LINE",
"50 75 OFFCURVE",
"171 -13 OFFCURVE",
"352 -13 CURVE SMOOTH",
"528 -13 OFFCURVE",
"646 84 OFFCURVE",
"646 229 CURVE SMOOTH",
"646 365 OFFCURVE",
"544 459 OFFCURVE",
"387 468 CURVE",
"619 666 LINE",
"619 714 LINE",
"72 714 LINE"
);
}
);
width = 696;
},
{
anchors = (
{
name = Top;
position = "{383, 714}";
}
);
layerId = m002;
paths = (
{
closed = 1;
nodes = (
"62 564 LINE",
"512 564 LINE",
"355 479 LINE",
"355 329 LINE",
"402 329 LINE SMOOTH",
"490 329 OFFCURVE",
"548 293 OFFCURVE",
"548 238 CURVE SMOOTH",
"548 185 OFFCURVE",
"490 149 OFFCURVE",
"402 149 CURVE SMOOTH",
"310 149 OFFCURVE",
"248 180 OFFCURVE",
"248 226 CURVE",
"40 226 LINE",
"40 83 OFFCURVE",
"185 -13 OFFCURVE",
"402 -13 CURVE SMOOTH",
"614 -13 OFFCURVE",
"756 85 OFFCURVE",
"756 232 CURVE SMOOTH",
"756 336 OFFCURVE",
"686 416 OFFCURVE",
"570 454 CURVE",
"729 564 LINE",
"729 714 LINE",
"62 714 LINE"
);
}
);
width = 796;
}
);
leftKerningGroup = three;
leftMetricsKey = O;
rightKerningGroup = O;
rightMetricsKey = O;
unicode = 01B7;
},
{
glyphname = F;
lastChange = "2025-09-11 23:23:03 +0000";
layers = (
{
anchors = (
{
name = Bottom;
position = "{283, 0}";
},
{
name = Top;
position = "{325, 726}";
}
);
layerId = "FD4D3FDD-DE85-408F-A52A-FF600B1C6101";
paths = (
{
closed = 1;
nodes = (
"110 392 LINE",
"110 666 LINE",
"601 666 LINE",
"601 714 LINE",
"60 714 LINE",
"60 0 LINE",
"110 0 LINE",
"110 344 LINE",
"580 344 LINE",
"580 392 LINE"
);
}
);
width = 651;
},
{
anchors = (
{
name = Bottom;
position = "{403, 0}";
},
{
name = Top;
position = "{345, 714}";
}
);
layerId = m002;
paths = (
{
closed = 1;
nodes = (
"270 452 LINE",
"270 546 LINE",
"716 546 LINE",
"716 714 LINE",
"60 714 LINE",
"60 0 LINE",
"270 0 LINE",
"270 284 LINE",
"695 284 LINE",
"695 452 LINE"
);
}
);
width = 756;
}
);
leftKerningGroup = H;
leftMetricsKey = N;
rightKerningGroup = F;
unicode = 0046;
},
{
glyphname = G;
lastChange = "2025-09-11 23:23:07 +0000";
layers = (
{
anchors = (
{
name = Bottom;
position = "{440, 0}";
},
{
name = Top;
position = "{447, 726}";
}
);
layerId = "FD4D3FDD-DE85-408F-A52A-FF600B1C6101";
paths = (
{
closed = 1;
nodes = (
"442 327 LINE",
"442 279 LINE",
"716 279 LINE",
"716 124 LINE",
"668 70 OFFCURVE",
"561 35 OFFCURVE",
"440 35 CURVE SMOOTH",
"236 35 OFFCURVE",
"100 164 OFFCURVE",
"100 357 CURVE SMOOTH",
"100 550 OFFCURVE",
"239 678 OFFCURVE",
"447 678 CURVE SMOOTH",
"609 678 OFFCURVE",
"726 605 OFFCURVE",
"740 496 CURVE",
"790 496 LINE",
"776 634 OFFCURVE",
"639 726 OFFCURVE",
"447 726 CURVE SMOOTH",
"209 726 OFFCURVE",
"50 578 OFFCURVE",
"50 357 CURVE SMOOTH",
"50 135 OFFCURVE",
"206 -13 OFFCURVE",
"440 -13 CURVE SMOOTH",
"554 -13 OFFCURVE",
"664 15 OFFCURVE",
"714 57 CURVE",
"716 57 LINE",
"701 0 LINE",
"766 0 LINE",
"766 327 LINE"
);
}
);
width = 850;
},
{
anchors = (
{
name = Bottom;
position = "{451, 0}";
},
{
name = Top;
position = "{451, 726}";
}
);
layerId = m002;
paths = (
{
closed = 1;
nodes = (
"483 389 LINE",
"483 259 LINE",
"660 259 LINE",
"661 220 LINE",
"629 173 OFFCURVE",
"560 145 OFFCURVE",
"476 145 CURVE SMOOTH",
"340 145 OFFCURVE",
"260 224 OFFCURVE",
"260 357 CURVE SMOOTH",
"260 483 OFFCURVE",
"337 558 OFFCURVE",
"466 558 CURVE SMOOTH",
"566 558 OFFCURVE",
"629 524 OFFCURVE",
"636 466 CURVE",
"856 466 LINE",
"839 629 OFFCURVE",
"688 726 OFFCURVE",
"450 726 CURVE SMOOTH",
"192 726 OFFCURVE",
"40 589 OFFCURVE",
"40 357 CURVE SMOOTH",
"40 124 OFFCURVE",
"201 -13 OFFCURVE",
"474 -13 CURVE SMOOTH",
"551 -13 OFFCURVE",
"619 11 OFFCURVE",
"657 52 CURVE",
"664 52 LINE",
"634 0 LINE",
"842 0 LINE",
"842 389 LINE"
);
}
);
width = 916;
}
);
leftKerningGroup = O;
leftMetricsKey = O;
rightKerningGroup = G;
rightMetricsKey = N;
unicode = 0047;
},
{
color = 10;
glyphname = Glottalstop;
lastChange = "2025-09-12 04:55:07 +0000";
layers = (
{
layerId = "FD4D3FDD-DE85-408F-A52A-FF600B1C6101";
paths = (
{
closed = 1;
nodes = (
"323 0 LINE",
"323 315 OFFCURVE",
"596 285 OFFCURVE",
"596 521 CURVE SMOOTH",
"596 644 OFFCURVE",
"489 726 OFFCURVE",
"328 726 CURVE SMOOTH",
"161 726 OFFCURVE",
"50 644 OFFCURVE",
"50 520 CURVE",
"100 520 LINE",
"100 615 OFFCURVE",
"191 678 OFFCURVE",
"328 678 CURVE SMOOTH",
"459 678 OFFCURVE",
"546 615 OFFCURVE",
"546 521 CURVE SMOOTH",
"546 315 OFFCURVE",
"273 340 OFFCURVE",
"273 0 CURVE"
);
}
);
width = 636;
},
{
layerId = m002;
paths = (
{
closed = 1;
nodes = (
"422 0 LINE",
"422 258 OFFCURVE",
"717 216 OFFCURVE",
"717 475 CURVE SMOOTH",
"717 633 OFFCURVE",
"591 726 OFFCURVE",
"378 726 CURVE SMOOTH",
"166 726 OFFCURVE",
"40 629 OFFCURVE",
"40 465 CURVE",
"260 465 LINE",
"260 523 OFFCURVE",
"304 558 OFFCURVE",
"378 558 CURVE SMOOTH",
"452 558 OFFCURVE",
"496 527 OFFCURVE",
"496 475 CURVE SMOOTH",
"496 303 OFFCURVE",
"212 321 OFFCURVE",
"212 0 CURVE"
);
}
);
width = 757;
}
);
leftKerningGroup = O;
leftMetricsKey = O;
rightKerningGroup = P;
rightMetricsKey = P;
unicode = 0241;
},
{
color = 10;
glyphname = Gstroke;
lastChange = "2025-09-12 04:55:10 +0000";
layers = (
{
layerId = "FD4D3FDD-DE85-408F-A52A-FF600B1C6101";
paths = (
{
closed = 1;
nodes = (
"442 327 LINE",
"442 279 LINE",
"716 279 LINE",
"716 222 LINE",
"616 227 LINE",
"616 182 LINE",
"716 182 LINE",
"716 124 LINE",
"668 70 OFFCURVE",
"561 35 OFFCURVE",
"440 35 CURVE SMOOTH",
"236 35 OFFCURVE",
"100 164 OFFCURVE",
"100 357 CURVE SMOOTH",
"100 550 OFFCURVE",
"239 678 OFFCURVE",
"447 678 CURVE SMOOTH",
"609 678 OFFCURVE",
"726 605 OFFCURVE",
"740 496 CURVE",
"790 496 LINE",
"776 634 OFFCURVE",
"639 726 OFFCURVE",
"447 726 CURVE SMOOTH",
"209 726 OFFCURVE",
"50 578 OFFCURVE",
"50 357 CURVE SMOOTH",
"50 135 OFFCURVE",
"206 -13 OFFCURVE",
"440 -13 CURVE SMOOTH",
"554 -13 OFFCURVE",
"664 15 OFFCURVE",
"714 57 CURVE",
"716 57 LINE",
"701 0 LINE",
"766 0 LINE",
"766 182 LINE",
"816 182 LINE",
"816 224 LINE",
"766 224 LINE",
"766 327 LINE"
);
}
);
width = 876;
},
{
layerId = m002;
paths = (
{
closed = 1;
nodes = (
"483 389 LINE",
"483 259 LINE",
"660 259 LINE",
"661 244 LINE",
"561 249 LINE",
"561 176 LINE",
"634 176 LINE",
"634 171 LINE",
"596 152 OFFCURVE",
"538 139 OFFCURVE",
"489 139 CURVE SMOOTH",
"352 139 OFFCURVE",
"260 226 OFFCURVE",
"260 357 CURVE SMOOTH",
"260 483 OFFCURVE",
"337 558 OFFCURVE",
"466 558 CURVE SMOOTH",
"566 558 OFFCURVE",
"629 524 OFFCURVE",
"636 466 CURVE",
"856 466 LINE",
"839 629 OFFCURVE",
"688 726 OFFCURVE",
"450 726 CURVE SMOOTH",
"192 726 OFFCURVE",
"40 589 OFFCURVE",
"40 357 CURVE SMOOTH",
"40 124 OFFCURVE",
"201 -13 OFFCURVE",
"474 -13 CURVE SMOOTH",
"551 -13 OFFCURVE",
"619 11 OFFCURVE",
"657 52 CURVE",
"664 52 LINE",
"634 0 LINE",
"842 0 LINE",
"842 176 LINE",
"892 176 LINE",
"892 246 LINE",
"842 246 LINE",
"842 389 LINE"
);
}
);
width = 952;
}
);
leftKerningGroup = O;
leftMetricsKey = G;
rightKerningGroup = G;
rightMetricsKey = G;
unicode = 01E4;
},
{
glyphname = H;
lastChange = "2025-09-11 23:23:12 +0000";
layers = (
{
anchors = (
{
name = Bottom;
position = "{372, 0}";
},
{
name = Greek;
position = "{-86, 558}";
},
{
name = Top;
position = "{372, 714}";
}
);
layerId = "FD4D3FDD-DE85-408F-A52A-FF600B1C6101";
paths = (
{
closed = 1;
nodes = (
"634 397 LINE",
"110 397 LINE",
"110 714 LINE",
"60 714 LINE",
"60 0 LINE",
"110 0 LINE",
"110 349 LINE",
"634 349 LINE",
"634 0 LINE",
"684 0 LINE",
"684 714 LINE",
"634 714 LINE"
);
}
);
width = 744;
},
{
anchors = (
{
name = Bottom;
position = "{445, 0}";
},
{
name = Greek;
position = "{-131, 558}";
},
{
name = Top;
position = "{445, 714}";
}
);
layerId = m002;
paths = (
{
closed = 1;
nodes = (
"614 448 LINE",
"270 448 LINE",
"270 714 LINE",
"60 714 LINE",
"60 0 LINE",
"270 0 LINE",
"270 280 LINE",
"614 280 LINE",
"614 0 LINE",
"824 0 LINE",
"824 714 LINE",
"614 714 LINE"
);
}
);
width = 884;
}
);
leftKerningGroup = H;
leftMetricsKey = N;
rightKerningGroup = H;
rightMetricsKey = N;
unicode = 0048;
},
{
color = 10;
glyphname = Hbar;
lastChange = "2025-09-11 23:23:21 +0000";
layers = (
{
layerId = "FD4D3FDD-DE85-408F-A52A-FF600B1C6101";
paths = (
{
closed = 1;
nodes = (
"734 602 LINE",
"210 600 LINE",
"210 714 LINE",
"160 714 LINE",
"160 601 LINE",
"60 605 LINE",
"60 560 LINE",
"160 560 LINE",
"160 0 LINE",
"210 0 LINE",
"210 349 LINE",
"734 349 LINE",
"734 0 LINE",
"784 0 LINE",
"784 560 LINE",
"884 560 LINE",
"884 602 LINE",
"784 602 LINE",
"784 714 LINE",
"734 714 LINE"
);
},
{
closed = 1;
nodes = (
"210 560 LINE",
"734 560 LINE",
"734 397 LINE",
"210 397 LINE"
);
}
);
width = 944;
},
{
layerId = m002;
paths = (
{
closed = 1;
nodes = (
"704 638 LINE",
"360 637 LINE",
"360 714 LINE",
"150 714 LINE",
"150 638 LINE",
"60 641 LINE",
"60 518 LINE",
"150 518 LINE",
"150 0 LINE",
"360 0 LINE",
"360 280 LINE",
"704 280 LINE",
"704 0 LINE",
"914 0 LINE",
"914 518 LINE",
"1014 518 LINE",
"1014 638 LINE",
"914 638 LINE",
"914 714 LINE",
"704 714 LINE"
);
},
{
closed = 1;
nodes = (
"360 518 LINE",
"704 518 LINE",
"704 448 LINE",
"360 448 LINE"
);
}
);
width = 1074;
}
);
leftKerningGroup = H;
leftMetricsKey = N;
rightKerningGroup = H;
rightMetricsKey = N;
unicode = 0126;
},
{
glyphname = I;
lastChange = "2025-09-11 23:23:28 +0000";
layers = (
{
anchors = (
{
name = Bottom;
position = "{85, 0}";
},
{
name = Greek;
position = "{-86, 558}";
},
{
name = Top;
position = "{85, 714}";
}
);
layerId = "FD4D3FDD-DE85-408F-A52A-FF600B1C6101";
paths = (
{
closed = 1;
nodes = (
"60 0 LINE",
"110 0 LINE",
"110 714 LINE",
"60 714 LINE"
);
}
);
width = 170;
},
{
anchors = (
{
name = Bottom;
position = "{165, 0}";
},
{
name = Greek;
position = "{-131, 558}";
},
{
name = Top;
position = "{165, 714}";
}
);
layerId = m002;
paths = (
{
closed = 1;
nodes = (
"60 0 LINE",
"270 0 LINE",
"270 714 LINE",
"60 714 LINE"
);
}
);
width = 330;
}
);
leftKerningGroup = H;
leftMetricsKey = N;
rightKerningGroup = H;
rightMetricsKey = N;
unicode = 0049;
},
{
color = 10;
glyphname = IJ;
lastChange = "2025-09-11 23:23:33 +0000";
layers = (
{
layerId = "FD4D3FDD-DE85-408F-A52A-FF600B1C6101";
paths = (
{
closed = 1;
nodes = (
"60 160 LINE",
"110 160 LINE",
"110 714 LINE",
"60 714 LINE"
);
},
{
closed = 1;
nodes = (
"98 -8 OFFCURVE",
"123 -13 OFFCURVE",
"146 -13 CURVE SMOOTH",
"263 -13 OFFCURVE",
"332 48 OFFCURVE",
"332 152 CURVE SMOOTH",
"332 714 LINE",
"282 714 LINE",
"282 152 LINE SMOOTH",
"282 78 OFFCURVE",
"232 34 OFFCURVE",
"147 34 CURVE SMOOTH",
"120 34 OFFCURVE",
"95 39 OFFCURVE",
"80 48 CURVE",
"80 0 LINE"
);
}
);
width = 392;
},
{
layerId = m002;
paths = (
{
closed = 1;
nodes = (
"60 240 LINE",
"230 240 LINE",
"230 714 LINE",
"60 714 LINE"
);
},
{
closed = 1;
nodes = (
"208 -8 OFFCURVE",
"231 -13 OFFCURVE",
"251 -13 CURVE SMOOTH",
"409 -13 OFFCURVE",
"502 67 OFFCURVE",
"502 202 CURVE SMOOTH",
"502 714 LINE",
"332 714 LINE",
"332 232 LINE SMOOTH",
"332 182 OFFCURVE",
"302 153 OFFCURVE",
"252 153 CURVE SMOOTH",
"229 153 OFFCURVE",
"206 159 OFFCURVE",
"190 168 CURVE",
"190 0 LINE"
);
}
);
width = 562;
}
);
leftKerningGroup = I;
leftMetricsKey = N;
rightKerningGroup = U;
rightMetricsKey = N;
unicode = 0132;
},
{
color = 10;
glyphname = Istroke;
lastChange = "2025-09-11 23:23:36 +0000";
layers = (
{
layerId = "FD4D3FDD-DE85-408F-A52A-FF600B1C6101";
paths = (
{
closed = 1;
nodes = (
"130 382 LINE",
"60 386 LINE",
"60 341 LINE",
"130 341 LINE",
"130 0 LINE",
"180 0 LINE",
"180 341 LINE",
"250 341 LINE",
"250 383 LINE",
"180 383 LINE",
"180 714 LINE",
"130 714 LINE"
);
}
);
width = 310;
},
{
layerId = m002;
paths = (
{
closed = 1;
nodes = (
"137 417 LINE",
"60 422 LINE",
"60 299 LINE",
"137 299 LINE",
"137 0 LINE",
"347 0 LINE",
"347 299 LINE",
"422 299 LINE",
"422 419 LINE",
"347 419 LINE",
"347 714 LINE",
"137 714 LINE"
);
}
);
width = 482;
}
);
leftKerningGroup = Istroke;
leftMetricsKey = N;
rightKerningGroup = Istroke;
rightMetricsKey = N;
unicode = 0197;
},
{
glyphname = J;
lastChange = "2025-09-11 23:23:43 +0000";
layers = (
{
anchors = (
{
name = Bottom;
position = "{174, 0}";
},
{
name = Top;
position = "{352, 714}";
}
);
layerId = "FD4D3FDD-DE85-408F-A52A-FF600B1C6101";
paths = (
{
closed = 1;
nodes = (
"377 714 LINE",
"327 714 LINE",
"327 212 LINE SMOOTH",
"327 100 OFFCURVE",
"251 34 OFFCURVE",
"122 34 CURVE SMOOTH",
"87 34 OFFCURVE",
"57 39 OFFCURVE",
"40 48 CURVE",
"40 0 LINE",
"58 -8 OFFCURVE",
"88 -13 OFFCURVE",
"121 -13 CURVE SMOOTH",
"282 -13 OFFCURVE",
"377 71 OFFCURVE",
"377 212 CURVE SMOOTH"
);
}
);
width = 437;
},
{
anchors = (
{
name = Bottom;
position = "{124, 0}";
},
{
name = Top;
position = "{356, 714}";
}
);
layerId = m002;
paths = (
{
closed = 1;
nodes = (
"467 714 LINE",
"257 714 LINE",
"257 297 LINE SMOOTH",
"257 217 OFFCURVE",
"199 163 OFFCURVE",
"112 163 CURVE SMOOTH",
"89 163 OFFCURVE",
"60 169 OFFCURVE",
"40 178 CURVE",
"40 0 LINE",
"58 -8 OFFCURVE",
"92 -13 OFFCURVE",
"127 -13 CURVE SMOOTH",
"331 -13 OFFCURVE",
"467 89 OFFCURVE",
"467 242 CURVE SMOOTH"
);
}
);
width = 527;
}
);
leftKerningGroup = J;
rightKerningGroup = U;
rightMetricsKey = N;
unicode = 004A;
},
{
glyphname = K;
lastChange = "2025-09-11 23:23:46 +0000";
layers = (
{
anchors = (
{
name = Bottom;
position = "{319, 0}";
},
{
name = Top;
position = "{323, 714}";
}
);
layerId = "FD4D3FDD-DE85-408F-A52A-FF600B1C6101";
paths = (
{
closed = 1;
nodes = (
"60 0 LINE",
"110 0 LINE",
"110 260 LINE",
"266 381 LINE",
"611 0 LINE",
"683 0 LINE",
"305 412 LINE",
"691 714 LINE",
"617 714 LINE",
"112 322 LINE",
"110 322 LINE",
"110 714 LINE",
"60 714 LINE"
);
}
);
width = 731;
},
{
anchors = (
{
name = Bottom;
position = "{426, 0}";
},
{
name = Top;
position = "{410, 714}";
}
);
layerId = m002;
paths = (
{
closed = 1;
nodes = (
"60 0 LINE",
"270 0 LINE",
"270 191 LINE",
"382 285 LINE",
"621 0 LINE",
"877 0 LINE",
"532 412 LINE",
"891 714 LINE",
"604 714 LINE",
"272 434 LINE",
"270 434 LINE",
"270 714 LINE",
"60 714 LINE"
);
}
);
width = 931;
}
);
leftKerningGroup = H;
leftMetricsKey = N;
rightKerningGroup = K;
rightMetricsKey = A;
unicode = 004B;
},
{
glyphname = L;
lastChange = "2025-09-11 23:23:49 +0000";
layers = (
{
anchors = (
{
name = Bottom;
position = "{347, 0}";
},
{
name = Caron;
position = "{255, 548}";
},
{
name = Top;
position = "{86, 714}";
}
);
layerId = "FD4D3FDD-DE85-408F-A52A-FF600B1C6101";
paths = (
{
closed = 1;
nodes = (
"110 48 LINE",
"110 714 LINE",
"60 714 LINE",
"60 0 LINE",
"588 0 LINE",
"588 48 LINE"
);
}
);
width = 628;
},
{
anchors = (
{
name = Bottom;
position = "{387, 0}";
},
{
name = Caron;
position = "{385, 548}";
},
{
name = Top;
position = "{166, 714}";
}
);
layerId = m002;
paths = (
{
closed = 1;
nodes = (
"270 168 LINE",
"270 714 LINE",
"60 714 LINE",
"60 0 LINE",
"698 0 LINE",
"698 168 LINE"
);
}
);
width = 738;
}
);
leftKerningGroup = H;
leftMetricsKey = N;
rightKerningGroup = L;
rightMetricsKey = A;
unicode = 004C;
},
{
color = 10;
glyphname = Lbar;
lastChange = "2025-09-12 04:55:15 +0000";
layers = (
{
layerId = "FD4D3FDD-DE85-408F-A52A-FF600B1C6101";
paths = (
{
closed = 1;
nodes = (
"160 48 LINE",
"160 341 LINE",
"261 341 LINE",
"261 383 LINE",
"160 383 LINE",
"160 714 LINE",
"110 714 LINE",
"110 381 LINE",
"60 386 LINE",
"60 341 LINE",
"110 341 LINE",
"110 0 LINE",
"638 0 LINE",
"638 48 LINE"
);
}
);
width = 678;
},
{
layerId = m002;
paths = (
{
closed = 1;
nodes = (
"317 168 LINE",
"317 299 LINE",
"422 299 LINE",
"422 419 LINE",
"317 419 LINE",
"317 714 LINE",
"107 714 LINE",
"107 417 LINE",
"60 422 LINE",
"60 299 LINE",
"107 299 LINE",
"107 0 LINE",
"745 0 LINE",
"745 168 LINE"
);
}
);
width = 785;
}
);
leftKerningGroup = H;
leftMetricsKey = L;
rightKerningGroup = L;
rightMetricsKey = L;
unicode = 023D;
},
{
color = 10;
glyphname = Lmiddletilde;
lastChange = "2025-09-12 04:55:18 +0000";
layers = (
{
layerId = "FD4D3FDD-DE85-408F-A52A-FF600B1C6101";
paths = (
{
closed = 1;
nodes = (
"234 48 LINE",
"234 339 LINE",
"246 335 OFFCURVE",
"258 333 OFFCURVE",
"272 333 CURVE SMOOTH",
"321 333 OFFCURVE",
"354 365 OFFCURVE",
"354 414 CURVE",
"306 414 LINE",
"306 391 OFFCURVE",
"292 376 OFFCURVE",
"272 376 CURVE SMOOTH",
"258 376 OFFCURVE",
"246 379 OFFCURVE",
"234 384 CURVE",
"234 714 LINE",
"184 714 LINE",
"184 405 LINE",
"171 410 OFFCURVE",
"157 413 OFFCURVE",
"142 413 CURVE SMOOTH",
"93 413 OFFCURVE",
"60 381 OFFCURVE",
"60 332 CURVE",
"108 332 LINE",
"108 355 OFFCURVE",
"122 370 OFFCURVE",
"142 370 CURVE SMOOTH",
"156 370 OFFCURVE",
"170 366 OFFCURVE",
"184 360 CURVE",
"184 0 LINE",
"712 0 LINE",
"712 48 LINE"
);
}
);
width = 752;
},
{
layerId = m002;
paths = (
{
closed = 1;
nodes = (
"405 168 LINE",
"405 308 LINE",
"413 311 OFFCURVE",
"419 308 OFFCURVE",
"431 308 CURVE SMOOTH",
"497 308 OFFCURVE",
"541 355 OFFCURVE",
"541 426 CURVE",
"436 426 LINE",
"436 414 OFFCURVE",
"427 406 OFFCURVE",
"413 406 CURVE SMOOTH",
"410 406 OFFCURVE",
"407 406 OFFCURVE",
"405 406 CURVE",
"405 714 LINE",
"195 714 LINE",
"195 429 LINE",
"187 428 OFFCURVE",
"183 429 OFFCURVE",
"172 430 CURVE SMOOTH",
"105 437 OFFCURVE",
"60 383 OFFCURVE",
"60 312 CURVE",
"165 312 LINE",
"165 325 OFFCURVE",
"174 333 OFFCURVE",
"188 333 CURVE SMOOTH",
"191 333 OFFCURVE",
"193 333 OFFCURVE",
"195 333 CURVE",
"195 0 LINE",
"833 0 LINE",
"833 168 LINE"
);
}
);
width = 873;
}
);
leftKerningGroup = Lmiddletilde;
leftMetricsKey = L;
rightKerningGroup = L;
rightMetricsKey = L;
unicode = 2C62;
},
{
color = 10;
glyphname = Lslash;
lastChange = "2025-09-11 23:23:53 +0000";
layers = (
{
layerId = "FD4D3FDD-DE85-408F-A52A-FF600B1C6101";
paths = (
{
closed = 1;
nodes = (
"181 48 LINE",
"181 404 LINE",
"308 479 LINE",
"308 537 LINE",
"181 462 LINE",
"181 714 LINE",
"131 714 LINE",
"131 432 LINE",
"60 390 LINE",
"60 332 LINE",
"131 374 LINE",
"131 0 LINE",
"659 0 LINE",
"659 48 LINE"
);
}
);
width = 699;
},
{
layerId = m002;
paths = (
{
closed = 1;
nodes = (
"343 168 LINE",
"343 418 LINE",
"428 476 LINE",
"428 612 LINE",
"343 555 LINE",
"343 714 LINE",
"133 714 LINE",
"133 414 LINE",
"60 365 LINE",
"60 227 LINE",
"133 276 LINE",
"133 0 LINE",
"771 0 LINE",
"771 168 LINE"
);
}
);
width = 811;
}
);
leftKerningGroup = H;
leftMetricsKey = N;
rightKerningGroup = L;
rightMetricsKey = A;
unicode = 0141;
},
{
glyphname = M;
lastChange = "2025-09-11 23:23:55 +0000";
layers = (
{
anchors = (
{
name = Bottom;
position = "{450, 0}";
}
);
layerId = "FD4D3FDD-DE85-408F-A52A-FF600B1C6101";
paths = (
{
closed = 1;
nodes = (
"60 0 LINE",
"110 0 LINE",
"110 613 LINE",
"112 613 LINE",
"426 0 LINE",
"474 0 LINE",
"788 613 LINE",
"790 613 LINE",
"790 0 LINE",
"840 0 LINE",
"840 714 LINE",
"783 714 LINE",
"451 69 LINE",
"449 69 LINE",
"117 714 LINE",
"60 714 LINE"
);
}
);
width = 900;
},
{
anchors = (
{
name = Bottom;
position = "{514, 0}";
}
);
layerId = m002;
paths = (
{
closed = 1;
nodes = (
"60 0 LINE",
"270 0 LINE",
"270 323 LINE",
"272 323 LINE",
"450 0 LINE",
"578 0 LINE",
"756 323 LINE",
"758 323 LINE",
"758 0 LINE",
"968 0 LINE",
"968 714 LINE",
"751 714 LINE",
"515 259 LINE",
"513 259 LINE",
"277 714 LINE",
"60 714 LINE"
);
}
);
width = 1028;
}
);
leftKerningGroup = H;
leftMetricsKey = N;
rightKerningGroup = H;
rightMetricsKey = N;
unicode = 004D;
},
{
glyphname = N;
lastChange = "2025-09-11 22:52:05 +0000";
layers = (
{
anchors = (
{
name = Bottom;
position = "{372, 0}";
},
{
name = Top;
position = "{372, 714}";
}
);
layerId = "FD4D3FDD-DE85-408F-A52A-FF600B1C6101";
paths = (
{
closed = 1;
nodes = (
"60 714 LINE",
"60 0 LINE",
"110 0 LINE",
"110 631 LINE",
"112 631 LINE",
"634 0 LINE",
"684 0 LINE",
"684 714 LINE",
"634 714 LINE",
"634 83 LINE",
"632 83 LINE",
"110 714 LINE"
);
}
);
width = 744;
},
{
anchors = (
{
name = Bottom;
position = "{421, 0}";
},
{
name = Top;
position = "{426, 714}";
}
);
layerId = m002;
paths = (
{
closed = 1;
nodes = (
"60 714 LINE",
"60 0 LINE",
"270 0 LINE",
"270 404 LINE",
"272 404 LINE",
"614 0 LINE",
"824 0 LINE",
"824 714 LINE",
"614 714 LINE",
"614 310 LINE",
"612 310 LINE",
"270 714 LINE"
);
}
);
width = 884;
}
);
leftKerningGroup = H;
rightKerningGroup = H;
unicode = 004E;
},
{
color = 10;
glyphname = Eng;
lastChange = "2025-09-11 23:23:57 +0000";
layers = (
{
layerId = "FD4D3FDD-DE85-408F-A52A-FF600B1C6101";
paths = (
{
closed = 1;
nodes = (
"60 714 LINE",
"60 0 LINE",
"110 0 LINE",
"110 631 LINE",
"112 631 LINE",
"634 0 LINE",
"634 -120 OFFCURVE",
"558 -186 OFFCURVE",
"429 -186 CURVE SMOOTH",
"394 -186 OFFCURVE",
"364 -181 OFFCURVE",
"347 -172 CURVE",
"347 -220 LINE",
"365 -228 OFFCURVE",
"395 -233 OFFCURVE",
"428 -233 CURVE SMOOTH",
"589 -233 OFFCURVE",
"684 -149 OFFCURVE",
"684 -8 CURVE SMOOTH",
"684 714 LINE",
"634 714 LINE",
"634 83 LINE",
"632 83 LINE",
"110 714 LINE"
);
}
);
width = 744;
},
{
layerId = m002;
paths = (
{
closed = 1;
nodes = (
"60 714 LINE",
"60 0 LINE",
"270 0 LINE",
"270 404 LINE",
"272 404 LINE",
"601 16 LINE",
"579 -29 OFFCURVE",
"531 -57 OFFCURVE",
"469 -57 CURVE SMOOTH",
"446 -57 OFFCURVE",
"417 -51 OFFCURVE",
"397 -42 CURVE",
"397 -220 LINE",
"415 -228 OFFCURVE",
"449 -233 OFFCURVE",
"484 -233 CURVE SMOOTH",
"678 -233 OFFCURVE",
"811 -141 OFFCURVE",
"823 0 CURVE",
"824 714 LINE",
"614 714 LINE",
"614 300 LINE",
"612 300 LINE",
"270 714 LINE"
);
}
);
width = 884;
}
);
leftKerningGroup = N;
leftMetricsKey = N;
rightKerningGroup = N;
rightMetricsKey = N;
unicode = 014A;
},
{
glyphname = O;
lastChange = "2025-09-12 14:46:57 +0000";
layers = (
{
anchors = (
{
name = Bottom;
position = "{437, 0}";
},
{
name = Greek;
position = "{7, 558}";
},
{
name = Top;
position = "{436, 726}";
}
);
layerId = "FD4D3FDD-DE85-408F-A52A-FF600B1C6101";
paths = (
{
closed = 1;
nodes = (
"668 -13 OFFCURVE",
"823 135 OFFCURVE",
"823 356 CURVE SMOOTH",
"823 578 OFFCURVE",
"668 726 OFFCURVE",
"436 726 CURVE SMOOTH",
"204 726 OFFCURVE",
"50 578 OFFCURVE",
"50 356 CURVE SMOOTH",
"50 135 OFFCURVE",
"204 -13 OFFCURVE",
"436 -13 CURVE SMOOTH"
);
},
{
closed = 1;
nodes = (
"100 549 OFFCURVE",
"234 677 OFFCURVE",
"436 677 CURVE SMOOTH",
"638 677 OFFCURVE",
"773 549 OFFCURVE",
"773 356 CURVE SMOOTH",
"773 163 OFFCURVE",
"638 35 OFFCURVE",
"436 35 CURVE SMOOTH",
"234 35 OFFCURVE",
"100 163 OFFCURVE",
"100 356 CURVE SMOOTH"
);
}
);
width = 873;
},
{
anchors = (
{
name = Bottom;
position = "{459, 0}";
},
{
name = Greek;
position = "{-33, 558}";
},
{
name = Top;
position = "{459, 726}";
}
);
layerId = m002;
paths = (
{
closed = 1;
nodes = (
"721 -13 OFFCURVE",
"877 124 OFFCURVE",
"877 356 CURVE SMOOTH",
"877 589 OFFCURVE",
"721 726 OFFCURVE",
"458 726 CURVE SMOOTH",
"195 726 OFFCURVE",
"40 589 OFFCURVE",
"40 356 CURVE SMOOTH",
"40 124 OFFCURVE",
"195 -13 OFFCURVE",
"458 -13 CURVE SMOOTH"
);
},
{
closed = 1;
nodes = (
"260 483 OFFCURVE",
"334 558 OFFCURVE",
"458 558 CURVE SMOOTH",
"583 558 OFFCURVE",
"657 483 OFFCURVE",
"657 356 CURVE SMOOTH",
"657 230 OFFCURVE",
"583 155 OFFCURVE",
"458 155 CURVE SMOOTH",
"334 155 OFFCURVE",
"260 230 OFFCURVE",
"260 356 CURVE SMOOTH"
);
}
);
width = 917;
}
);
leftKerningGroup = O;
rightKerningGroup = O;
unicode = 004F;
},
{
color = 10;
glyphname = Oopen;
lastChange = "2025-09-11 23:24:03 +0000";
layers = (
{
layerId = "FD4D3FDD-DE85-408F-A52A-FF600B1C6101";
paths = (
{
closed = 1;
nodes = (
"50 607 LINE",
"100 650 OFFCURVE",
"196 678 OFFCURVE",
"291 678 CURVE SMOOTH",
"465 678 OFFCURVE",
"581 550 OFFCURVE",
"581 357 CURVE SMOOTH",
"581 164 OFFCURVE",
"463 35 OFFCURVE",
"285 35 CURVE SMOOTH",
"189 35 OFFCURVE",
"95 63 OFFCURVE",
"50 105 CURVE",
"50 49 LINE",
"92 12 OFFCURVE",
"186 -13 OFFCURVE",
"285 -13 CURVE SMOOTH",
"493 -13 OFFCURVE",
"631 135 OFFCURVE",
"631 357 CURVE SMOOTH",
"631 578 OFFCURVE",
"491 726 OFFCURVE",
"281 726 CURVE SMOOTH",
"192 726 OFFCURVE",
"100 702 OFFCURVE",
"50 666 CURVE"
);
}
);
width = 681;
},
{
layerId = m002;
paths = (
{
closed = 1;
nodes = (
"40 506 LINE",
"97 539 OFFCURVE",
"170 558 OFFCURVE",
"234 558 CURVE SMOOTH",
"360 558 OFFCURVE",
"435 483 OFFCURVE",
"435 357 CURVE SMOOTH",
"435 230 OFFCURVE",
"363 155 OFFCURVE",
"241 155 CURVE SMOOTH",
"163 155 OFFCURVE",
"88 174 OFFCURVE",
"40 206 CURVE",
"40 8 LINE",
"90 -5 OFFCURVE",
"164 -13 OFFCURVE",
"240 -13 CURVE SMOOTH",
"501 -13 OFFCURVE",
"655 124 OFFCURVE",
"655 357 CURVE SMOOTH",
"655 589 OFFCURVE",
"500 726 OFFCURVE",
"239 726 CURVE SMOOTH",
"174 726 OFFCURVE",
"100 717 OFFCURVE",
"40 703 CURVE"
);
}
);
width = 695;
}
);
leftKerningGroup = O;
leftMetricsKey = O;
rightKerningGroup = O;
rightMetricsKey = O;
unicode = 0186;
},
{
color = 10;
glyphname = Oslash;
lastChange = "2025-09-11 23:24:05 +0000";
layers = (
{
anchors = (
{
name = Top;
position = "{436, 726}";
}
);
layerId = "FD4D3FDD-DE85-408F-A52A-FF600B1C6101";
paths = (
{
closed = 1;
nodes = (
"668 -13 OFFCURVE",
"823 135 OFFCURVE",
"823 356 CURVE SMOOTH",
"823 524 OFFCURVE",
"734 649 OFFCURVE",
"591 701 CURVE",
"619 778 LINE",
"561 778 LINE",
"538 716 LINE",
"506 722 OFFCURVE",
"472 726 OFFCURVE",
"436 726 CURVE SMOOTH",
"204 726 OFFCURVE",
"50 578 OFFCURVE",
"50 356 CURVE SMOOTH",
"50 188 OFFCURVE",
"139 63 OFFCURVE",
"283 12 CURVE",
"255 -64 LINE",
"313 -64 LINE",
"335 -3 LINE",
"367 -10 OFFCURVE",
"400 -13 OFFCURVE",
"436 -13 CURVE SMOOTH"
);
},
{
closed = 1;
nodes = (
"100 549 OFFCURVE",
"234 677 OFFCURVE",
"436 677 CURVE SMOOTH",
"466 677 OFFCURVE",
"494 674 OFFCURVE",
"521 669 CURVE",
"299 58 LINE",
"176 103 OFFCURVE",
"100 211 OFFCURVE",
"100 356 CURVE SMOOTH"
);
},
{
closed = 1;
nodes = (
"574 654 LINE",
"697 609 OFFCURVE",
"773 501 OFFCURVE",
"773 356 CURVE SMOOTH",
"773 163 OFFCURVE",
"638 35 OFFCURVE",
"436 35 CURVE SMOOTH",
"406 35 OFFCURVE",
"378 38 OFFCURVE",
"352 43 CURVE"
);
}
);
width = 873;
},
{
anchors = (
{
name = Top;
position = "{459, 726}";
}
);
layerId = m002;
paths = (
{
closed = 1;
nodes = (
"721 -13 OFFCURVE",
"877 124 OFFCURVE",
"877 356 CURVE SMOOTH",
"877 518 OFFCURVE",
"802 633 OFFCURVE",
"668 689 CURVE",
"700 778 LINE",
"524 778 LINE",
"505 725 LINE",
"489 725 OFFCURVE",
"474 726 OFFCURVE",
"458 726 CURVE SMOOTH",
"195 726 OFFCURVE",
"40 589 OFFCURVE",
"40 356 CURVE SMOOTH",
"40 194 OFFCURVE",
"115 79 OFFCURVE",
"250 24 CURVE",
"218 -64 LINE",
"394 -64 LINE",
"413 -12 LINE",
"428 -13 OFFCURVE",
"443 -13 OFFCURVE",
"458 -13 CURVE SMOOTH"
);
},
{
closed = 1;
nodes = (
"260 477 OFFCURVE",
"339 558 OFFCURVE",
"442 558 CURVE SMOOTH",
"443 558 OFFCURVE",
"443 558 OFFCURVE",
"444 558 CURVE",
"316 205 LINE",
"280 240 OFFCURVE",
"260 291 OFFCURVE",
"260 356 CURVE SMOOTH"
);
},
{
closed = 1;
nodes = (
"602 507 LINE",
"638 473 OFFCURVE",
"657 421 OFFCURVE",
"657 356 CURVE SMOOTH",
"657 235 OFFCURVE",
"574 155 OFFCURVE",
"475 155 CURVE SMOOTH",
"475 155 OFFCURVE",
"474 155 OFFCURVE",
"474 155 CURVE"
);
}
);
width = 917;
}
);
leftKerningGroup = O;
leftMetricsKey = O;
rightKerningGroup = O;
rightMetricsKey = O;
unicode = 00D8;
},
{
color = 10;
glyphname = OE;
lastChange = "2025-09-11 23:24:15 +0000";
layers = (
{
layerId = "FD4D3FDD-DE85-408F-A52A-FF600B1C6101";
paths = (
{
closed = 1;
nodes = (
"634 392 LINE",
"634 666 LINE",
"1125 666 LINE",
"1125 714 LINE",
"390 714 LINE SMOOTH",
"186 714 OFFCURVE",
"50 571 OFFCURVE",
"50 357 CURVE SMOOTH",
"50 143 OFFCURVE",
"186 0 OFFCURVE",
"390 0 CURVE SMOOTH",
"1125 0 LINE",
"1125 48 LINE",
"634 48 LINE",
"634 344 LINE",
"1104 344 LINE",
"1104 392 LINE"
);
},
{
closed = 1;
nodes = (
"100 542 OFFCURVE",
"216 666 OFFCURVE",
"390 666 CURVE SMOOTH",
"584 666 LINE",
"584 48 LINE",
"390 48 LINE SMOOTH",
"216 48 OFFCURVE",
"100 171 OFFCURVE",
"100 356 CURVE SMOOTH"
);
}
);
width = 1175;
},
{
layerId = m002;
paths = (
{
closed = 1;
nodes = (
"764 452 LINE",
"764 546 LINE",
"1210 546 LINE",
"1210 714 LINE",
"435 714 LINE SMOOTH",
"198 714 OFFCURVE",
"40 571 OFFCURVE",
"40 357 CURVE SMOOTH",
"40 143 OFFCURVE",
"198 0 OFFCURVE",
"435 0 CURVE SMOOTH",
"1210 0 LINE",
"1210 168 LINE",
"764 168 LINE",
"764 284 LINE",
"1189 284 LINE",
"1189 452 LINE"
);
},
{
closed = 1;
nodes = (
"260 470 OFFCURVE",
"330 546 OFFCURVE",
"435 546 CURVE SMOOTH",
"554 546 LINE",
"554 168 LINE",
"435 168 LINE SMOOTH",
"330 168 OFFCURVE",
"260 244 OFFCURVE",
"260 357 CURVE SMOOTH"
);
}
);
width = 1250;
}
);
leftKerningGroup = O;
leftMetricsKey = O;
rightKerningGroup = E;
rightMetricsKey = E;
unicode = 0152;
},
{
glyphname = P;
lastChange = "2025-09-11 23:24:22 +0000";
layers = (
{
anchors = (
{
name = Bottom;
position = "{254, 0}";
},
{
name = Top;
position = "{280, 714}";
}
);
layerId = "FD4D3FDD-DE85-408F-A52A-FF600B1C6101";
paths = (
{
closed = 1;
nodes = (
"110 291 LINE",
"458 291 LINE SMOOTH",
"586 291 OFFCURVE",
"672 376 OFFCURVE",
"672 503 CURVE SMOOTH",
"672 630 OFFCURVE",
"582 714 OFFCURVE",
"447 714 CURVE SMOOTH",
"60 714 LINE",
"60 0 LINE",
"110 0 LINE"
);
},
{
closed = 1;
nodes = (
"110 666 LINE",
"447 666 LINE SMOOTH",
"552 666 OFFCURVE",
"622 601 OFFCURVE",
"622 503 CURVE SMOOTH",
"622 404 OFFCURVE",
"556 338 OFFCURVE",
"458 338 CURVE SMOOTH",
"110 338 LINE"
);
}
);
width = 712;
},
{
anchors = (
{
name = Bottom;
position = "{314, 0}";
},
{
name = Top;
position = "{350, 714}";
}
);
layerId = m002;
paths = (
{
closed = 1;
nodes = (
"270 221 LINE",
"498 221 LINE SMOOTH",
"674 221 OFFCURVE",
"792 320 OFFCURVE",
"792 468 CURVE SMOOTH",
"792 616 OFFCURVE",
"670 714 OFFCURVE",
"487 714 CURVE SMOOTH",
"60 714 LINE",
"60 0 LINE",
"270 0 LINE"
);
},
{
closed = 1;
nodes = (
"270 546 LINE",
"487 546 LINE SMOOTH",
"544 546 OFFCURVE",
"582 515 OFFCURVE",
"582 468 CURVE SMOOTH",
"582 421 OFFCURVE",
"548 389 OFFCURVE",
"498 389 CURVE SMOOTH",
"270 389 LINE"
);
}
);
width = 832;
}
);
leftKerningGroup = H;
leftMetricsKey = N;
rightKerningGroup = P;
unicode = 0050;
},
{
color = 10;
glyphname = Thorn;
lastChange = "2025-09-12 04:55:21 +0000";
layers = (
{
layerId = "FD4D3FDD-DE85-408F-A52A-FF600B1C6101";
paths = (
{
closed = 1;
nodes = (
"110 151 LINE",
"458 151 LINE SMOOTH",
"586 151 OFFCURVE",
"672 233 OFFCURVE",
"672 355 CURVE SMOOTH",
"672 486 OFFCURVE",
"582 574 OFFCURVE",
"447 574 CURVE SMOOTH",
"110 574 LINE",
"110 714 LINE",
"60 714 LINE",
"60 0 LINE",
"110 0 LINE"
);
},
{
closed = 1;
nodes = (
"110 526 LINE",
"447 526 LINE SMOOTH",
"552 526 OFFCURVE",
"622 458 OFFCURVE",
"622 357 CURVE SMOOTH",
"622 262 OFFCURVE",
"556 198 OFFCURVE",
"458 198 CURVE SMOOTH",
"110 198 LINE"
);
}
);
width = 712;
},
{
layerId = m002;
paths = (
{
closed = 1;
nodes = (
"270 111 LINE",
"498 111 LINE SMOOTH",
"674 111 OFFCURVE",
"792 210 OFFCURVE",
"792 358 CURVE SMOOTH",
"792 506 OFFCURVE",
"670 604 OFFCURVE",
"487 604 CURVE SMOOTH",
"270 604 LINE",
"270 714 LINE",
"60 714 LINE",
"60 0 LINE",
"270 0 LINE"
);
},
{
closed = 1;
nodes = (
"270 436 LINE",
"487 436 LINE SMOOTH",
"544 436 OFFCURVE",
"582 405 OFFCURVE",
"582 358 CURVE SMOOTH",
"582 311 OFFCURVE",
"548 279 OFFCURVE",
"498 279 CURVE SMOOTH",
"270 279 LINE"
);
}
);
width = 832;
}
);
leftKerningGroup = H;
leftMetricsKey = P;
rightKerningGroup = P;
rightMetricsKey = P;
unicode = 00DE;
},
{
glyphname = Q;
lastChange = "2025-09-11 23:24:25 +0000";
layers = (
{
layerId = "FD4D3FDD-DE85-408F-A52A-FF600B1C6101";
paths = (
{
closed = 1;
nodes = (
"494 -13 OFFCURVE",
"546 -4 OFFCURVE",
"593 13 CURVE",
"632 -54 LINE",
"675 -29 LINE",
"639 33 LINE",
"754 93 OFFCURVE",
"823 208 OFFCURVE",
"823 356 CURVE SMOOTH",
"823 578 OFFCURVE",
"668 726 OFFCURVE",
"436 726 CURVE SMOOTH",
"204 726 OFFCURVE",
"50 578 OFFCURVE",
"50 356 CURVE SMOOTH",
"50 135 OFFCURVE",
"204 -13 OFFCURVE",
"436 -13 CURVE SMOOTH"
);
},
{
closed = 1;
nodes = (
"100 549 OFFCURVE",
"234 677 OFFCURVE",
"436 677 CURVE SMOOTH",
"638 677 OFFCURVE",
"773 549 OFFCURVE",
"773 356 CURVE SMOOTH",
"773 228 OFFCURVE",
"713 128 OFFCURVE",
"614 76 CURVE",
"535 213 LINE",
"492 188 LINE",
"568 56 LINE",
"529 42 OFFCURVE",
"484 35 OFFCURVE",
"436 35 CURVE SMOOTH",
"234 35 OFFCURVE",
"100 163 OFFCURVE",
"100 356 CURVE SMOOTH"
);
}
);
width = 873;
},
{
layerId = m002;
paths = (
{
closed = 1;
nodes = (
"495 -13 OFFCURVE",
"530 -10 OFFCURVE",
"563 -5 CURVE",
"609 -84 LINE",
"739 -9 LINE",
"708 44 LINE",
"817 105 OFFCURVE",
"877 212 OFFCURVE",
"877 356 CURVE SMOOTH",
"877 589 OFFCURVE",
"721 726 OFFCURVE",
"458 726 CURVE SMOOTH",
"195 726 OFFCURVE",
"40 589 OFFCURVE",
"40 356 CURVE SMOOTH",
"40 124 OFFCURVE",
"195 -13 OFFCURVE",
"458 -13 CURVE SMOOTH"
);
},
{
closed = 1;
nodes = (
"260 483 OFFCURVE",
"334 558 OFFCURVE",
"458 558 CURVE SMOOTH",
"583 558 OFFCURVE",
"657 483 OFFCURVE",
"657 356 CURVE SMOOTH",
"657 297 OFFCURVE",
"641 248 OFFCURVE",
"610 214 CURVE",
"569 285 LINE",
"439 210 LINE",
"471 155 LINE",
"466 155 OFFCURVE",
"462 155 OFFCURVE",
"458 155 CURVE SMOOTH",
"334 155 OFFCURVE",
"260 230 OFFCURVE",
"260 356 CURVE SMOOTH"
);
}
);
width = 917;
}
);
leftKerningGroup = O;
leftMetricsKey = O;
rightKerningGroup = O;
rightMetricsKey = O;
unicode = 0051;
},
{
glyphname = R;
lastChange = "2025-09-11 23:24:34 +0000";
layers = (
{
anchors = (
{
name = Bottom;
position = "{355, 0}";
},
{
name = Top;
position = "{318, 714}";
}
);
layerId = "FD4D3FDD-DE85-408F-A52A-FF600B1C6101";
paths = (
{
closed = 1;
nodes = (
"110 291 LINE",
"476 291 LINE",
"645 0 LINE",
"702 0 LINE",
"530 298 LINE",
"623 320 OFFCURVE",
"682 394 OFFCURVE",
"682 495 CURVE SMOOTH",
"682 626 OFFCURVE",
"592 714 OFFCURVE",
"457 714 CURVE SMOOTH",
"60 714 LINE",
"60 0 LINE",
"110 0 LINE"
);
},
{
closed = 1;
nodes = (
"110 666 LINE",
"457 666 LINE SMOOTH",
"562 666 OFFCURVE",
"632 598 OFFCURVE",
"632 497 CURVE SMOOTH",
"632 402 OFFCURVE",
"566 338 OFFCURVE",
"468 338 CURVE SMOOTH",
"110 338 LINE"
);
}
);
width = 742;
},
{
anchors = (
{
name = Bottom;
position = "{415, 0}";
},
{
name = Top;
position = "{398, 714}";
}
);
layerId = m002;
paths = (
{
closed = 1;
nodes = (
"270 240 LINE",
"458 240 LINE",
"597 0 LINE",
"813 0 LINE",
"659 266 LINE",
"748 304 OFFCURVE",
"802 379 OFFCURVE",
"802 477 CURVE SMOOTH",
"802 619 OFFCURVE",
"684 714 OFFCURVE",
"507 714 CURVE SMOOTH",
"60 714 LINE",
"60 0 LINE",
"270 0 LINE"
);
},
{
closed = 1;
nodes = (
"270 546 LINE",
"507 546 LINE SMOOTH",
"558 546 OFFCURVE",
"592 518 OFFCURVE",
"592 477 CURVE SMOOTH",
"592 436 OFFCURVE",
"562 408 OFFCURVE",
"518 408 CURVE SMOOTH",
"270 408 LINE"
);
}
);
width = 853;
}
);
leftKerningGroup = H;
leftMetricsKey = N;
rightKerningGroup = R;
unicode = 0052;
},
{
glyphname = S;
lastChange = "2025-09-12 05:10:24 +0000";
layers = (
{
anchors = (
{
name = Bottom;
position = "{374, 0}";
},
{
name = Top;
position = "{362, 726}";
}
);
layerId = "FD4D3FDD-DE85-408F-A52A-FF600B1C6101";
paths = (
{
closed = 1;
nodes = (
"175 726 OFFCURVE",
"50 646 OFFCURVE",
"50 527 CURVE SMOOTH",
"50 262 OFFCURVE",
"641 404 OFFCURVE",
"641 189 CURVE SMOOTH",
"641 97 OFFCURVE",
"536 35 OFFCURVE",
"378 35 CURVE SMOOTH",
"193 35 OFFCURVE",
"70 113 OFFCURVE",
"70 231 CURVE",
"20 231 LINE",
"20 85 OFFCURVE",
"162 -13 OFFCURVE",
"374 -13 CURVE SMOOTH",
"564 -13 OFFCURVE",
"691 70 OFFCURVE",
"691 195 CURVE SMOOTH",
"691 454 OFFCURVE",
"100 323 OFFCURVE",
"100 531 CURVE SMOOTH",
"100 619 OFFCURVE",
"205 678 OFFCURVE",
"362 678 CURVE SMOOTH",
"523 678 OFFCURVE",
"630 608 OFFCURVE",
"630 504 CURVE",
"680 504 LINE",
"680 637 OFFCURVE",
"553 726 OFFCURVE",
"362 726 CURVE SMOOTH"
);
}
);
width = 711;
},
{
anchors = (
{
name = Bottom;
position = "{418, 0}";
},
{
name = Top;
position = "{407, 726}";
}
);
layerId = m002;
paths = (
{
closed = 1;
nodes = (
"183 726 OFFCURVE",
"50 644 OFFCURVE",
"50 506 CURVE SMOOTH",
"50 188 OFFCURVE",
"571 336 OFFCURVE",
"571 215 CURVE SMOOTH",
"571 177 OFFCURVE",
"515 155 OFFCURVE",
"419 155 CURVE SMOOTH",
"300 155 OFFCURVE",
"230 193 OFFCURVE",
"230 256 CURVE",
"20 256 LINE",
"20 87 OFFCURVE",
"168 -13 OFFCURVE",
"419 -13 CURVE SMOOTH",
"647 -13 OFFCURVE",
"781 72 OFFCURVE",
"781 215 CURVE SMOOTH",
"781 519 OFFCURVE",
"260 406 OFFCURVE",
"260 506 CURVE SMOOTH",
"260 539 OFFCURVE",
"315 558 OFFCURVE",
"407 558 CURVE SMOOTH",
"503 558 OFFCURVE",
"560 529 OFFCURVE",
"560 479 CURVE",
"770 479 LINE",
"770 634 OFFCURVE",
"635 726 OFFCURVE",
"407 726 CURVE SMOOTH"
);
}
);
width = 801;
}
);
leftKerningGroup = S;
rightKerningGroup = S;
unicode = 0053;
},
{
color = 10;
glyphname = Saltillo;
lastChange = "2025-09-11 23:24:37 +0000";
layers = (
{
layerId = "FD4D3FDD-DE85-408F-A52A-FF600B1C6101";
paths = (
{
closed = 1;
nodes = (
"60 409 LINE",
"65 196 LINE",
"105 196 LINE",
"110 409 LINE",
"110 731 LINE",
"60 731 LINE"
);
}
);
width = 170;
},
{
layerId = m002;
paths = (
{
closed = 1;
nodes = (
"60 409 LINE",
"65 196 LINE",
"225 196 LINE",
"230 409 LINE",
"230 731 LINE",
"60 731 LINE"
);
}
);
width = 290;
}
);
leftKerningGroup = H;
leftMetricsKey = N;
rightKerningGroup = H;
rightMetricsKey = N;
unicode = A78B;
},
{
color = 10;
glyphname = Germandbls;
lastChange = "2025-09-11 23:24:39 +0000";
layers = (
{
layerId = "FD4D3FDD-DE85-408F-A52A-FF600B1C6101";
paths = (
{
closed = 1;
nodes = (
"579 -13 OFFCURVE",
"671 79 OFFCURVE",
"671 217 CURVE SMOOTH",
"671 346 OFFCURVE",
"562 433 OFFCURVE",
"396 438 CURVE",
"605 666 LINE",
"605 714 LINE",
"60 714 LINE",
"60 0 LINE",
"110 0 LINE",
"110 666 LINE",
"541 666 LINE",
"340 446 LINE",
"340 398 LINE",
"360 398 LINE SMOOTH",
"517 398 OFFCURVE",
"621 326 OFFCURVE",
"621 217 CURVE SMOOTH",
"621 108 OFFCURVE",
"549 35 OFFCURVE",
"440 35 CURVE",
"440 -13 LINE"
);
}
);
width = 721;
},
{
layerId = m002;
paths = (
{
closed = 1;
nodes = (
"663 -13 OFFCURVE",
"791 79 OFFCURVE",
"791 217 CURVE SMOOTH",
"791 314 OFFCURVE",
"733 388 OFFCURVE",
"637 424 CURVE",
"735 546 LINE",
"735 714 LINE",
"60 714 LINE",
"60 0 LINE",
"270 0 LINE",
"270 546 LINE",
"527 546 LINE",
"420 416 LINE",
"420 278 LINE",
"470 278 LINE SMOOTH",
"531 278 OFFCURVE",
"571 254 OFFCURVE",
"571 217 CURVE SMOOTH",
"571 180 OFFCURVE",
"531 155 OFFCURVE",
"470 155 CURVE",
"470 -13 LINE"
);
}
);
width = 831;
}
);
leftKerningGroup = H;
leftMetricsKey = B;
rightKerningGroup = B;
rightMetricsKey = O;
unicode = 1E9E;
},
{
color = 10;
glyphname = Schwa;
lastChange = "2025-09-11 23:26:19 +0000";
layers = (
{
layerId = "FD4D3FDD-DE85-408F-A52A-FF600B1C6101";
paths = (
{
closed = 1;
nodes = (
"107 492 LINE",
"130 604 OFFCURVE",
"259 678 OFFCURVE",
"430 678 CURVE SMOOTH",
"629 678 OFFCURVE",
"761 552 OFFCURVE",
"761 356 CURVE",
"50 356 LINE",
"50 338 LINE SMOOTH",
"50 127 OFFCURVE",
"197 -13 OFFCURVE",
"418 -13 CURVE SMOOTH",
"654 -13 OFFCURVE",
"811 138 OFFCURVE",
"811 364 CURVE SMOOTH",
"811 581 OFFCURVE",
"659 726 OFFCURVE",
"432 726 CURVE SMOOTH",
"233 726 OFFCURVE",
"83 632 OFFCURVE",
"57 492 CURVE"
);
},
{
closed = 1;
nodes = (
"757 308 LINE",
"734 142 OFFCURVE",
"607 35 OFFCURVE",
"426 35 CURVE SMOOTH",
"230 35 OFFCURVE",
"100 144 OFFCURVE",
"100 308 CURVE"
);
}
);
width = 861;
},
{
layerId = m002;
paths = (
{
closed = 1;
nodes = (
"260 452 LINE",
"273 516 OFFCURVE",
"350 558 OFFCURVE",
"453 558 CURVE SMOOTH",
"563 558 OFFCURVE",
"641 499 OFFCURVE",
"660 408 CURVE",
"43 408 LINE",
"43 328 LINE SMOOTH",
"43 123 OFFCURVE",
"212 -13 OFFCURVE",
"466 -13 CURVE SMOOTH",
"711 -13 OFFCURVE",
"874 138 OFFCURVE",
"874 364 CURVE SMOOTH",
"874 581 OFFCURVE",
"706 726 OFFCURVE",
"455 726 CURVE SMOOTH",
"236 726 OFFCURVE",
"70 616 OFFCURVE",
"40 452 CURVE"
);
},
{
closed = 1;
nodes = (
"640 258 LINE",
"607 194 OFFCURVE",
"543 155 OFFCURVE",
"459 155 CURVE SMOOTH",
"352 155 OFFCURVE",
"278 195 OFFCURVE",
"265 258 CURVE"
);
}
);
width = 914;
}
);
leftKerningGroup = O;
leftMetricsKey = O;
rightKerningGroup = O;
rightMetricsKey = O;
unicode = 018F;
},
{
glyphname = T;
lastChange = "2025-09-12 17:24:55 +0000";
layers = (
{
anchors = (
{
name = Bottom;
position = "{350, 0}";
},
{
name = Top;
position = "{350, 714}";
}
);
layerId = "FD4D3FDD-DE85-408F-A52A-FF600B1C6101";
paths = (
{
closed = 1;
nodes = (
"20 714 LINE",
"20 666 LINE",
"325 666 LINE",
"325 0 LINE",
"375 0 LINE",
"375 666 LINE",
"679 666 LINE",
"679 714 LINE"
);
}
);
width = 699;
},
{
anchors = (
{
name = Bottom;
position = "{405, 0}";
},
{
name = Top;
position = "{405, 714}";
}
);
layerId = m002;
paths = (
{
closed = 1;
nodes = (
"10 714 LINE",
"10 546 LINE",
"300 546 LINE",
"300 0 LINE",
"510 0 LINE",
"510 546 LINE",
"799 546 LINE",
"799 714 LINE"
);
}
);
width = 809;
}
);
leftKerningGroup = T;
rightKerningGroup = T;
unicode = 0054;
},
{
color = 10;
glyphname = Tbar;
lastChange = "2023-08-30 01:45:06 +0000";
layers = (
{
layerId = "FD4D3FDD-DE85-408F-A52A-FF600B1C6101";
paths = (
{
closed = 1;
nodes = (
"20 714 LINE",
"20 666 LINE",
"325 666 LINE",
"325 412 LINE",
"130 417 LINE",
"130 372 LINE",
"325 372 LINE",
"325 0 LINE",
"375 0 LINE",
"375 372 LINE",
"569 372 LINE",
"569 414 LINE",
"375 414 LINE",
"375 666 LINE",
"679 666 LINE",
"679 714 LINE"
);
}
);
width = 699;
},
{
layerId = m002;
paths = (
{
closed = 1;
nodes = (
"10 714 LINE",
"10 546 LINE",
"300 546 LINE",
"300 402 LINE",
"141 407 LINE",
"141 284 LINE",
"300 284 LINE",
"300 0 LINE",
"510 0 LINE",
"510 284 LINE",
"669 284 LINE",
"669 404 LINE",
"510 404 LINE",
"510 546 LINE",
"799 546 LINE",
"799 714 LINE"
);
}
);
width = 809;
}
);
leftKerningGroup = T;
leftMetricsKey = T;
rightKerningGroup = T;
rightMetricsKey = T;
unicode = 0166;
},
{
color = 10;
glyphname = Tdiagonalstroke;
lastChange = "2023-08-30 18:50:33 +0000";
layers = (
{
layerId = "FD4D3FDD-DE85-408F-A52A-FF600B1C6101";
paths = (
{
closed = 1;
nodes = (
"561 714 LINE",
"588 772 LINE",
"538 772 LINE",
"511 714 LINE",
"20 714 LINE",
"20 666 LINE",
"325 666 LINE",
"325 311 LINE",
"157 -53 LINE",
"207 -53 LINE",
"325 203 LINE",
"325 0 LINE",
"375 0 LINE",
"375 311 LINE",
"539 666 LINE",
"679 666 LINE",
"679 714 LINE"
);
},
{
closed = 1;
nodes = (
"375 666 LINE",
"489 666 LINE",
"375 419 LINE"
);
}
);
width = 699;
},
{
layerId = m002;
paths = (
{
closed = 1;
nodes = (
"724 714 LINE",
"750 772 LINE",
"700 772 LINE",
"674 714 LINE",
"10 714 LINE",
"10 546 LINE",
"300 546 LINE",
"300 0 LINE",
"348 0 LINE",
"324 -53 LINE",
"374 -53 LINE",
"398 0 LINE",
"510 0 LINE",
"510 245 LINE",
"646.999 546 LINE",
"799 546 LINE",
"799 714 LINE"
);
},
{
closed = 1;
nodes = (
"510 546 LINE",
"596.999 546 LINE",
"510 355 LINE"
);
}
);
width = 809;
}
);
leftKerningGroup = T;
leftMetricsKey = T;
rightKerningGroup = T;
rightMetricsKey = T;
unicode = 023E;
},
{
glyphname = U;
lastChange = "2025-09-12 05:10:53 +0000";
layers = (
{
anchors = (
{
name = Bottom;
position = "{332, 0}";
},
{
name = Top;
position = "{332, 714}";
}
);
layerId = "FD4D3FDD-DE85-408F-A52A-FF600B1C6101";
paths = (
{
closed = 1;
nodes = (
"20 98 OFFCURVE",
"144 -13 OFFCURVE",
"331 -13 CURVE SMOOTH",
"519 -13 OFFCURVE",
"644 98 OFFCURVE",
"644 265 CURVE SMOOTH",
"644 714 LINE",
"594 714 LINE",
"594 275 LINE SMOOTH",
"594 131 OFFCURVE",
"489 35 OFFCURVE",
"331 35 CURVE SMOOTH",
"174 36 OFFCURVE",
"70 132 OFFCURVE",
"70 275 CURVE SMOOTH",
"70 714 LINE",
"20 714 LINE",
"20 265 LINE SMOOTH"
);
}
);
width = 664;
},
{
anchors = (
{
name = Bottom;
position = "{402, 0}";
},
{
name = Top;
position = "{402, 714}";
}
);
layerId = m002;
paths = (
{
closed = 1;
nodes = (
"20 114 OFFCURVE",
"172 -13 OFFCURVE",
"401 -13 CURVE SMOOTH",
"631 -13 OFFCURVE",
"784 114 OFFCURVE",
"784 305 CURVE SMOOTH",
"784 714 LINE",
"574 714 LINE",
"574 295 LINE SMOOTH",
"574 211 OFFCURVE",
"505 155 OFFCURVE",
"401 155 CURVE SMOOTH",
"298 156 OFFCURVE",
"230 212 OFFCURVE",
"230 295 CURVE SMOOTH",
"230 714 LINE",
"20 714 LINE",
"20 305 LINE SMOOTH"
);
}
);
width = 804;
}
);
leftKerningGroup = U;
rightKerningGroup = U;
unicode = 0055;
},
{
color = 10;
glyphname = "Upsilon-latin";
lastChange = "2025-09-11 23:26:23 +0000";
layers = (
{
layerId = "FD4D3FDD-DE85-408F-A52A-FF600B1C6101";
paths = (
{
closed = 1;
nodes = (
"620 -13 OFFCURVE",
"762 123 OFFCURVE",
"762 327 CURVE SMOOTH",
"762 483 OFFCURVE",
"670 612 OFFCURVE",
"525 666 CURVE",
"751 666 LINE",
"751 714 LINE",
"456 714 LINE",
"456 666 LINE",
"610 614 OFFCURVE",
"712 479 OFFCURVE",
"712 327 CURVE SMOOTH",
"712 152 OFFCURVE",
"590 35 OFFCURVE",
"406 35 CURVE SMOOTH",
"222 35 OFFCURVE",
"100 152 OFFCURVE",
"100 327 CURVE SMOOTH",
"100 479 OFFCURVE",
"202 614 OFFCURVE",
"356 666 CURVE",
"356 714 LINE",
"61 714 LINE",
"61 666 LINE",
"287 666 LINE",
"142 612 OFFCURVE",
"50 483 OFFCURVE",
"50 327 CURVE SMOOTH",
"50 123 OFFCURVE",
"192 -13 OFFCURVE",
"406 -13 CURVE SMOOTH"
);
}
);
width = 812;
},
{
layerId = m002;
paths = (
{
closed = 1;
nodes = (
"707 -13 OFFCURVE",
"857 99 OFFCURVE",
"857 289 CURVE SMOOTH",
"857 404 OFFCURVE",
"793 494 OFFCURVE",
"678 546 CURVE",
"866 546 LINE",
"866 714 LINE",
"503 714 LINE",
"503 546 LINE",
"587 514 OFFCURVE",
"637 446 OFFCURVE",
"637 362 CURVE SMOOTH",
"637 256 OFFCURVE",
"569 194 OFFCURVE",
"453 194 CURVE SMOOTH",
"337 194 OFFCURVE",
"269 256 OFFCURVE",
"269 362 CURVE SMOOTH",
"269 446 OFFCURVE",
"319 514 OFFCURVE",
"403 546 CURVE",
"403 714 LINE",
"40 714 LINE",
"40 546 LINE",
"228 546 LINE",
"113 494 OFFCURVE",
"49 404 OFFCURVE",
"49 289 CURVE SMOOTH",
"49 99 OFFCURVE",
"199 -13 OFFCURVE",
"453 -13 CURVE SMOOTH"
);
}
);
width = 906;
}
);
leftKerningGroup = O;
leftMetricsKey = O;
rightKerningGroup = O;
rightMetricsKey = O;
unicode = 01B1;
},
{
glyphname = V;
lastChange = "2025-09-12 04:55:24 +0000";
layers = (
{
anchors = (
{
name = Bottom;
position = "{397, 0}";
},
{
name = Top;
position = "{397, 714}";
}
);
layerId = "FD4D3FDD-DE85-408F-A52A-FF600B1C6101";
paths = (
{
closed = 1;
nodes = (
"397 98 LINE",
"395 98 LINE",
"93 714 LINE",
"40 714 LINE",
"379 0 LINE",
"413 0 LINE",
"753 714 LINE",
"700 714 LINE"
);
}
);
width = 793;
},
{
anchors = (
{
name = Bottom;
position = "{487, 0}";
},
{
name = Top;
position = "{487, 714}";
}
);
layerId = m002;
paths = (
{
closed = 1;
nodes = (
"487 250 LINE",
"485 250 LINE",
"253 714 LINE",
"40 714 LINE",
"399 0 LINE",
"573 0 LINE",
"933 714 LINE",
"720 714 LINE"
);
}
);
width = 973;
}
);
leftKerningGroup = V;
leftMetricsKey = A;
rightKerningGroup = V;
rightMetricsKey = A;
unicode = 0056;
},
{
color = 10;
glyphname = "Gamma-latin";
lastChange = "2025-09-12 05:02:51 +0000";
layers = (
{
layerId = "FD4D3FDD-DE85-408F-A52A-FF600B1C6101";
paths = (
{
closed = 1;
nodes = (
"413 -13 OFFCURVE",
"483 46 OFFCURVE",
"483 135 CURVE SMOOTH",
"483 187 OFFCURVE",
"463 233 OFFCURVE",
"416 295 CURVE SMOOTH",
"335 402 LINE",
"574 714 LINE",
"515 714 LINE",
"307 439 LINE",
"99 714 LINE",
"40 714 LINE",
"279 402 LINE",
"198 295 LINE SMOOTH",
"151 233 OFFCURVE",
"131 187 OFFCURVE",
"131 135 CURVE SMOOTH",
"131 46 OFFCURVE",
"201 -13 OFFCURVE",
"307 -13 CURVE SMOOTH"
);
},
{
closed = 1;
nodes = (
"181 182 OFFCURVE",
"201 227 OFFCURVE",
"251 292 CURVE SMOOTH",
"307 365 LINE",
"363 292 LINE SMOOTH",
"413 227 OFFCURVE",
"433 182 OFFCURVE",
"433 135 CURVE SMOOTH",
"433 75 OFFCURVE",
"383 35 OFFCURVE",
"307 35 CURVE SMOOTH",
"231 35 OFFCURVE",
"181 75 OFFCURVE",
"181 135 CURVE SMOOTH"
);
}
);
width = 614;
},
{
layerId = m002;
paths = (
{
closed = 1;
nodes = (
"537 -13 OFFCURVE",
"650 78 OFFCURVE",
"650 231 CURVE SMOOTH",
"650 275 OFFCURVE",
"628 324 OFFCURVE",
"592 364 CURVE SMOOTH",
"464 506 LINE",
"637 714 LINE",
"414 714 LINE",
"345 638 LINE",
"276 714 LINE",
"53 714 LINE",
"226 506 LINE",
"98 364 LINE SMOOTH",
"62 324 OFFCURVE",
"40 275 OFFCURVE",
"40 231 CURVE SMOOTH",
"40 78 OFFCURVE",
"153 -13 OFFCURVE",
"345 -13 CURVE SMOOTH"
);
},
{
closed = 1;
nodes = (
"250 238 OFFCURVE",
"263 265 OFFCURVE",
"286 292 CURVE SMOOTH",
"345 363 LINE",
"404 292 LINE SMOOTH",
"427 265 OFFCURVE",
"440 238 OFFCURVE",
"440 218 CURVE SMOOTH",
"440 178 OFFCURVE",
"405 155 OFFCURVE",
"345 155 CURVE SMOOTH",
"285 155 OFFCURVE",
"250 178 OFFCURVE",
"250 218 CURVE SMOOTH"
);
}
);
width = 690;
}
);
leftKerningGroup = V;
leftMetricsKey = V;
rightKerningGroup = V;
rightMetricsKey = V;
unicode = 0194;
},
{
glyphname = W;
lastChange = "2025-09-12 04:55:33 +0000";
layers = (
{
anchors = (
{
name = Bottom;
position = "{518, 0}";
},
{
name = Top;
position = "{519, 714}";
}
);
layerId = "FD4D3FDD-DE85-408F-A52A-FF600B1C6101";
paths = (
{
closed = 1;
nodes = (
"236 0 LINE",
"289 0 LINE",
"519 640 LINE",
"748 0 LINE",
"801 0 LINE",
"997 714 LINE",
"944 714 LINE",
"771 84 LINE",
"545 714 LINE",
"492 714 LINE",
"266 84 LINE",
"93 714 LINE",
"40 714 LINE"
);
}
);
width = 1037;
},
{
anchors = (
{
name = Bottom;
position = "{623, 0}";
},
{
name = Top;
position = "{624, 714}";
}
);
layerId = m002;
paths = (
{
closed = 1;
nodes = (
"236 0 LINE",
"466 0 LINE",
"624 450 LINE",
"782 0 LINE",
"1012 0 LINE",
"1208 714 LINE",
"988 714 LINE",
"869 280 LINE",
"716 714 LINE",
"531 714 LINE",
"379 280 LINE",
"260 714 LINE",
"40 714 LINE"
);
}
);
width = 1248;
}
);
leftKerningGroup = W;
leftMetricsKey = A;
rightKerningGroup = V;
rightMetricsKey = A;
unicode = 0057;
},
{
glyphname = X;
lastChange = "2025-09-12 14:47:00 +0000";
layers = (
{
anchors = (
{
name = Bottom;
position = "{352, 0}";
},
{
name = Top;
position = "{352, 714}";
}
);
layerId = "FD4D3FDD-DE85-408F-A52A-FF600B1C6101";
paths = (
{
closed = 1;
nodes = (
"393 358 LINE",
"680 714 LINE",
"616 714 LINE",
"361 397 LINE",
"104 714 LINE",
"40 714 LINE",
"328 357 LINE",
"40 0 LINE",
"104 0 LINE",
"360 317 LINE",
"616 0 LINE",
"683 0 LINE"
);
}
);
width = 723;
},
{
anchors = (
{
name = Bottom;
position = "{449, 0}";
},
{
name = Top;
position = "{449, 714}";
}
);
layerId = m002;
paths = (
{
closed = 1;
nodes = (
"592 357 LINE",
"855 714 LINE",
"566 714 LINE",
"448 553 LINE",
"329 714 LINE",
"40 714 LINE",
"303 357 LINE",
"40 0 LINE",
"329 0 LINE",
"448 161 LINE",
"566 0 LINE",
"855 0 LINE"
);
}
);
width = 895;
}
);
leftKerningGroup = X;
leftMetricsKey = A;
rightKerningGroup = X;
rightMetricsKey = A;
unicode = 0058;
},
{
glyphname = Y;
lastChange = "2025-09-12 05:05:11 +0000";
layers = (
{
anchors = (
{
name = Bottom;
position = "{364, 0}";
},
{
name = Top;
position = "{364, 714}";
}
);
layerId = "FD4D3FDD-DE85-408F-A52A-FF600B1C6101";
paths = (
{
closed = 1;
nodes = (
"339 0 LINE",
"389 0 LINE",
"389 273 LINE",
"687 714 LINE",
"629 714 LINE",
"365 326 LINE",
"363 326 LINE",
"98 714 LINE",
"40 714 LINE",
"339 273 LINE"
);
}
);
width = 727;
},
{
anchors = (
{
name = Bottom;
position = "{454, 0}";
},
{
name = Top;
position = "{454, 714}";
}
);
layerId = m002;
paths = (
{
closed = 1;
nodes = (
"349 0 LINE",
"559 0 LINE",
"559 273 LINE",
"868 714 LINE",
"599 714 LINE",
"455 512 LINE",
"453 512 LINE",
"309 714 LINE",
"40 714 LINE",
"349 273 LINE"
);
}
);
width = 908;
}
);
leftKerningGroup = V;
leftMetricsKey = A;
rightKerningGroup = V;
rightMetricsKey = A;
unicode = 0059;
},
{
glyphname = Z;
lastChange = "2025-09-12 05:08:15 +0000";
layers = (
{
anchors = (
{
name = Bottom;
position = "{336, 0}";
},
{
name = Top;
position = "{350, 714}";
}
);
layerId = "FD4D3FDD-DE85-408F-A52A-FF600B1C6101";
paths = (
{
closed = 1;
nodes = (
"21 714 LINE",
"21 664 LINE",
"566 664 LINE",
"10 50 LINE",
"10 0 LINE",
"639 0 LINE",
"639 50 LINE",
"82 50 LINE",
"638 664 LINE",
"638 714 LINE"
);
}
);
width = 649;
},
{
anchors = (
{
name = Bottom;
position = "{386, 0}";
},
{
name = Top;
position = "{410, 714}";
}
);
layerId = m002;
paths = (
{
closed = 1;
nodes = (
"31 714 LINE",
"31 546 LINE",
"459 546 LINE",
"20 168 LINE",
"20 0 LINE",
"749 0 LINE",
"749 168 LINE",
"319 168 LINE",
"748 546 LINE",
"748 714 LINE"
);
}
);
width = 769;
}
);
leftKerningGroup = Z;
rightKerningGroup = Z;
unicode = 005A;
},
{
color = 10;
glyphname = Ismall;
lastChange = "2025-09-12 04:55:41 +0000";
layers = (
{
layerId = "FD4D3FDD-DE85-408F-A52A-FF600B1C6101";
paths = (
{
closed = 1;
nodes = (
"60 520 LINE",
"60 478 LINE",
"224 478 LINE",
"224 42 LINE",
"60 42 LINE",
"60 0 LINE",
"435 0 LINE",
"435 42 LINE",
"272 42 LINE",
"272 478 LINE",
"435 478 LINE",
"435 520 LINE"
);
}
);
width = 495;
},
{
layerId = m002;
paths = (
{
closed = 1;
nodes = (
"60 520 LINE",
"60 370 LINE",
"219 370 LINE",
"219 150 LINE",
"60 150 LINE",
"60 0 LINE",
"535 0 LINE",
"535 150 LINE",
"377 150 LINE",
"377 370 LINE",
"535 370 LINE",
"535 520 LINE"
);
}
);
width = 595;
}
);
leftKerningGroup = i;
leftMetricsKey = I;
rightKerningGroup = i;
rightMetricsKey = I;
unicode = 026A;
},
{
glyphname = a;
lastChange = "2025-09-12 17:24:05 +0000";
layers = (
{
anchors = (
{
name = Bottom;
position = "{352, 0}";
},
{
name = Ogonek;
position = "{593, 0}";
},
{
name = Top;
position = "{337, 532}";
}
);
background = {
paths = (
{
closed = 1;
nodes = (
"641 297 LINE",
"521 297 LINE SMOOTH",
"377 297 OFFCURVE",
"292 236 OFFCURVE",
"292 132 CURVE SMOOTH",
"292 45 OFFCURVE",
"360 -13 OFFCURVE",
"462 -13 CURVE SMOOTH",
"546 -13 OFFCURVE",
"613 25 OFFCURVE",
"641 88 CURVE",
"643 88 LINE",
"651 0 LINE",
"689 0 LINE",
"689 364 LINE SMOOTH",
"689 470 OFFCURVE",
"625 532 OFFCURVE",
"516 532 CURVE SMOOTH",
"395 532 OFFCURVE",
"323 476 OFFCURVE",
"323 382 CURVE",
"371 382 LINE",
"371 450 OFFCURVE",
"424 490 OFFCURVE",
"514 490 CURVE SMOOTH",
"594 490 OFFCURVE",
"641 446 OFFCURVE",
"641 372 CURVE SMOOTH"
);
},
{
closed = 1;
nodes = (
"344 214 OFFCURVE",
"406 257 OFFCURVE",
"526 257 CURVE SMOOTH",
"640 257 LINE",
"640 212 LINE SMOOTH",
"640 96 OFFCURVE",
"574 28 OFFCURVE",
"462 28 CURVE SMOOTH",
"391 28 OFFCURVE",
"344 69 OFFCURVE",
"344 131 CURVE SMOOTH"
);
},
{
closed = 1;
nodes = (
"621 90 LINE",
"621 45 OFFCURVE",
"634 25 QCURVE SMOOTH",
"650 0 OFFCURVE",
"695 0 QCURVE SMOOTH",
"717 0 OFFCURVE",
"736 4 QCURVE",
"736 57 LINE",
"726 53 OFFCURVE",
"716 53 QCURVE SMOOTH",
"679 53 OFFCURVE",
"679 91 QCURVE"
);
}
);
};
layerId = "FD4D3FDD-DE85-408F-A52A-FF600B1C6101";
paths = (
{
closed = 1;
nodes = (
"439 -13 OFFCURVE",
"532 31 OFFCURVE",
"578 98 CURVE",
"580 98 LINE",
"565 0 LINE",
"628 0 LINE",
"628 520 LINE",
"580 520 LINE",
"585 412 LINE",
"583 412 LINE",
"539 484 OFFCURVE",
"438 532 OFFCURVE",
"330 532 CURVE SMOOTH",
"162 532 OFFCURVE",
"50 424 OFFCURVE",
"50 261 CURVE SMOOTH",
"50 97 OFFCURVE",
"168 -13 OFFCURVE",
"345 -13 CURVE SMOOTH"
);
},
{
closed = 1;
nodes = (
"98 398 OFFCURVE",
"193 490 OFFCURVE",
"336 490 CURVE SMOOTH",
"482 490 OFFCURVE",
"580 398 OFFCURVE",
"580 261 CURVE SMOOTH",
"580 122 OFFCURVE",
"486 29 OFFCURVE",
"345 29 CURVE SMOOTH",
"197 29 OFFCURVE",
"98 122 OFFCURVE",
"98 261 CURVE SMOOTH"
);
}
);
width = 688;
},
{
anchors = (
{
name = Bottom;
position = "{358, 0}";
},
{
name = Ogonek;
position = "{640, 0}";
},
{
name = Top;
position = "{353, 532}";
}
);
background = {
paths = (
{
closed = 1;
nodes = (
"549 297 LINE",
"429 297 LINE SMOOTH",
"285 297 OFFCURVE",
"200 236 OFFCURVE",
"200 132 CURVE SMOOTH",
"200 45 OFFCURVE",
"268 -13 OFFCURVE",
"370 -13 CURVE SMOOTH",
"454 -13 OFFCURVE",
"521 25 OFFCURVE",
"549 88 CURVE",
"551 88 LINE",
"559 0 LINE",
"597 0 LINE",
"597 364 LINE SMOOTH",
"597 470 OFFCURVE",
"533 532 OFFCURVE",
"424 532 CURVE SMOOTH",
"303 532 OFFCURVE",
"231 476 OFFCURVE",
"231 382 CURVE",
"279 382 LINE",
"279 450 OFFCURVE",
"332 490 OFFCURVE",
"422 490 CURVE SMOOTH",
"502 490 OFFCURVE",
"549 446 OFFCURVE",
"549 372 CURVE SMOOTH"
);
},
{
closed = 1;
nodes = (
"252 214 OFFCURVE",
"314 257 OFFCURVE",
"434 257 CURVE SMOOTH",
"548 257 LINE",
"548 212 LINE SMOOTH",
"548 96 OFFCURVE",
"482 28 OFFCURVE",
"370 28 CURVE SMOOTH",
"299 28 OFFCURVE",
"252 69 OFFCURVE",
"252 131 CURVE SMOOTH"
);
},
{
closed = 1;
nodes = (
"529 90 LINE",
"529 45 OFFCURVE",
"542 25 QCURVE SMOOTH",
"558 0 OFFCURVE",
"603 0 QCURVE SMOOTH",
"625 0 OFFCURVE",
"644 4 QCURVE",
"644 57 LINE",
"634 53 OFFCURVE",
"624 53 QCURVE SMOOTH",
"587 53 OFFCURVE",
"587 91 QCURVE"
);
}
);
};
layerId = m002;
paths = (
{
closed = 1;
nodes = (
"421 -13 OFFCURVE",
"493 7 OFFCURVE",
"522 37 CURVE",
"526 37 LINE",
"506 0 LINE",
"712 0 LINE",
"712 520 LINE",
"514 520 LINE",
"519 487 LINE",
"517 487 LINE",
"480 514 OFFCURVE",
"415 532 OFFCURVE",
"354 532 CURVE SMOOTH",
"160 532 OFFCURVE",
"30 424 OFFCURVE",
"30 261 CURVE SMOOTH",
"30 97 OFFCURVE",
"155 -13 OFFCURVE",
"343 -13 CURVE SMOOTH"
);
},
{
closed = 1;
nodes = (
"238 344 OFFCURVE",
"293 400 OFFCURVE",
"376 400 CURVE SMOOTH",
"459 400 OFFCURVE",
"514 344 OFFCURVE",
"514 261 CURVE SMOOTH",
"514 177 OFFCURVE",
"459 121 OFFCURVE",
"376 121 CURVE SMOOTH",
"293 121 OFFCURVE",
"238 177 OFFCURVE",
"238 261 CURVE SMOOTH"
);
}
);
width = 762;
}
);
leftKerningGroup = o;
leftMetricsKey = o;
rightKerningGroup = n;
rightMetricsKey = n;
unicode = 0061;
},
{
color = 10;
glyphname = astroke;
lastChange = "2025-09-12 05:00:59 +0000";
layers = (
{
layerId = "FD4D3FDD-DE85-408F-A52A-FF600B1C6101";
paths = (
{
closed = 1;
nodes = (
"439 -13 OFFCURVE",
"532 31 OFFCURVE",
"578 98 CURVE",
"580 98 LINE",
"565 0 LINE",
"628 0 LINE",
"628 520 LINE",
"580 520 LINE",
"585 412 LINE",
"583 412 LINE",
"556 456 OFFCURVE",
"509 491 OFFCURVE",
"451 511 CURVE",
"468 558 LINE",
"427 558 LINE",
"414 522 LINE",
"387 529 OFFCURVE",
"359 532 OFFCURVE",
"330 532 CURVE SMOOTH",
"162 532 OFFCURVE",
"50 424 OFFCURVE",
"50 261 CURVE SMOOTH",
"50 138 OFFCURVE",
"117 45 OFFCURVE",
"226 6 CURVE",
"205 -50 LINE",
"246 -50 LINE",
"263 -4 LINE",
"288 -10 OFFCURVE",
"316 -13 OFFCURVE",
"345 -13 CURVE SMOOTH"
);
},
{
closed = 1;
nodes = (
"98 398 OFFCURVE",
"193 490 OFFCURVE",
"336 490 CURVE SMOOTH",
"358 490 OFFCURVE",
"380 488 OFFCURVE",
"400 484 CURVE",
"240 47 LINE",
"152 80 OFFCURVE",
"98 158 OFFCURVE",
"98 261 CURVE SMOOTH"
);
},
{
closed = 1;
nodes = (
"437 473 LINE",
"525 440 OFFCURVE",
"580 363 OFFCURVE",
"580 261 CURVE SMOOTH",
"580 122 OFFCURVE",
"486 29 OFFCURVE",
"345 29 CURVE SMOOTH",
"321 29 OFFCURVE",
"299 31 OFFCURVE",
"277 36 CURVE"
);
}
);
width = 688;
},
{
layerId = m002;
paths = (
{
closed = 1;
nodes = (
"421 -13 OFFCURVE",
"493 7 OFFCURVE",
"522 37 CURVE",
"526 37 LINE",
"506 0 LINE",
"712 0 LINE",
"712 520 LINE",
"514 520 LINE",
"519 487 LINE",
"517 487 LINE",
"509 493 OFFCURVE",
"500 498 OFFCURVE",
"490 503 CURVE",
"510 558 LINE",
"459 558 LINE",
"445 520 LINE",
"416 527 OFFCURVE",
"385 532 OFFCURVE",
"354 532 CURVE SMOOTH",
"160 532 OFFCURVE",
"30 424 OFFCURVE",
"30 261 CURVE SMOOTH",
"30 125 OFFCURVE",
"117 26 OFFCURVE",
"254 -4 CURVE",
"237 -50 LINE",
"288 -50 LINE",
"302 -11 LINE",
"315 -12 OFFCURVE",
"329 -13 OFFCURVE",
"343 -13 CURVE SMOOTH"
);
},
{
closed = 1;
nodes = (
"238 344 OFFCURVE",
"293 400 OFFCURVE",
"376 400 CURVE SMOOTH",
"385 400 OFFCURVE",
"393 399 OFFCURVE",
"401 398 CURVE",
"305 137 LINE",
"263 160 OFFCURVE",
"238 204 OFFCURVE",
"238 261 CURVE SMOOTH"
);
},
{
closed = 1;
nodes = (
"446 384 LINE",
"489 361 OFFCURVE",
"514 317 OFFCURVE",
"514 261 CURVE SMOOTH",
"514 177 OFFCURVE",
"459 121 OFFCURVE",
"376 121 CURVE SMOOTH",
"367 121 OFFCURVE",
"359 122 OFFCURVE",
"351 123 CURVE"
);
}
);
width = 762;
}
);
leftKerningGroup = o;
leftMetricsKey = a;
rightKerningGroup = n;
rightMetricsKey = a;
unicode = 2C65;
},
{
color = 10;
glyphname = ae;
lastChange = "2025-09-12 05:01:05 +0000";
layers = (
{
anchors = (
{
name = Top;
position = "{631, 532}";
}
);
layerId = "FD4D3FDD-DE85-408F-A52A-FF600B1C6101";
paths = (
{
closed = 1;
nodes = (
"663 414 OFFCURVE",
"753 490 OFFCURVE",
"882 490 CURVE SMOOTH",
"1024 490 OFFCURVE",
"1119 413 OFFCURVE",
"1119 298 CURVE",
"647 298 LINE"
);
},
{
closed = 1;
nodes = (
"439 -13 OFFCURVE",
"532 31 OFFCURVE",
"578 98 CURVE",
"580 98 LINE",
"565 0 LINE",
"628 0 LINE",
"628 126 LINE",
"674 39 OFFCURVE",
"767 -13 OFFCURVE",
"888 -13 CURVE SMOOTH",
"1033 -13 OFFCURVE",
"1143 56 OFFCURVE",
"1162 159 CURVE",
"1114 159 LINE",
"1098 81 OFFCURVE",
"1008 29 OFFCURVE",
"889 29 CURVE SMOOTH",
"744 29 OFFCURVE",
"647 120 OFFCURVE",
"644 256 CURVE",
"1167 256 LINE",
"1167 298 LINE SMOOTH",
"1167 438 OFFCURVE",
"1053 532 OFFCURVE",
"881 532 CURVE SMOOTH",
"764 532 OFFCURVE",
"673 482 OFFCURVE",
"628 398 CURVE",
"628 520 LINE",
"580 520 LINE",
"585 412 LINE",
"583 412 LINE",
"539 484 OFFCURVE",
"438 532 OFFCURVE",
"330 532 CURVE SMOOTH",
"162 532 OFFCURVE",
"50 424 OFFCURVE",
"50 261 CURVE SMOOTH",
"50 97 OFFCURVE",
"168 -13 OFFCURVE",
"345 -13 CURVE SMOOTH"
);
},
{
closed = 1;
nodes = (
"98 398 OFFCURVE",
"193 490 OFFCURVE",
"336 490 CURVE SMOOTH",
"482 490 OFFCURVE",
"580 398 OFFCURVE",
"580 261 CURVE SMOOTH",
"580 122 OFFCURVE",
"486 29 OFFCURVE",
"345 29 CURVE SMOOTH",
"197 29 OFFCURVE",
"98 122 OFFCURVE",
"98 261 CURVE SMOOTH"
);
}
);
width = 1217;
},
{
anchors = (
{
name = Top;
position = "{700, 532}";
}
);
layerId = m002;
paths = (
{
closed = 1;
nodes = (
"878 366 OFFCURVE",
"923 395 OFFCURVE",
"988 395 CURVE SMOOTH",
"1054 395 OFFCURVE",
"1097 366 OFFCURVE",
"1109 315 CURVE",
"861 314 LINE"
);
},
{
closed = 1;
nodes = (
"421 -13 OFFCURVE",
"493 7 OFFCURVE",
"522 37 CURVE",
"526 37 LINE",
"506 0 LINE",
"712 0 LINE",
"712 76 LINE",
"772 19 OFFCURVE",
"868 -13 OFFCURVE",
"993 -13 CURVE SMOOTH",
"1178 -13 OFFCURVE",
"1302 57 OFFCURVE",
"1326 175 CURVE",
"1128 175 LINE",
"1120 143 OFFCURVE",
"1071 124 OFFCURVE",
"996 124 CURVE SMOOTH",
"922 124 OFFCURVE",
"874 157 OFFCURVE",
"858 214 CURVE",
"1321 214 LINE",
"1321 263 LINE SMOOTH",
"1321 432 OFFCURVE",
"1197 532 OFFCURVE",
"988 532 CURVE SMOOTH",
"866 532 OFFCURVE",
"772 501 OFFCURVE",
"712 443 CURVE",
"712 520 LINE",
"514 520 LINE",
"519 487 LINE",
"517 487 LINE",
"480 514 OFFCURVE",
"415 532 OFFCURVE",
"354 532 CURVE SMOOTH",
"160 532 OFFCURVE",
"30 424 OFFCURVE",
"30 261 CURVE SMOOTH",
"30 97 OFFCURVE",
"155 -13 OFFCURVE",
"343 -13 CURVE SMOOTH"
);
},
{
closed = 1;
nodes = (
"238 344 OFFCURVE",
"293 400 OFFCURVE",
"376 400 CURVE SMOOTH",
"459 400 OFFCURVE",
"514 344 OFFCURVE",
"514 261 CURVE SMOOTH",
"514 177 OFFCURVE",
"459 121 OFFCURVE",
"376 121 CURVE SMOOTH",
"293 121 OFFCURVE",
"238 177 OFFCURVE",
"238 261 CURVE SMOOTH"
);
}
);
width = 1356;
}
);
leftKerningGroup = o;
leftMetricsKey = a;
rightKerningGroup = o;
rightMetricsKey = e;
unicode = 00E6;
},
{
glyphname = b;
lastChange = "2025-09-12 17:24:11 +0000";
layers = (
{
anchors = (
{
name = Top;
position = "{354, 532}";
}
);
layerId = "FD4D3FDD-DE85-408F-A52A-FF600B1C6101";
paths = (
{
closed = 1;
nodes = (
"520 -13 OFFCURVE",
"638 97 OFFCURVE",
"638 261 CURVE SMOOTH",
"638 424 OFFCURVE",
"526 532 OFFCURVE",
"358 532 CURVE SMOOTH",
"250 532 OFFCURVE",
"149 484 OFFCURVE",
"105 412 CURVE",
"103 412 LINE",
"108 520 LINE",
"108 736 LINE",
"60 736 LINE",
"60 0 LINE",
"123 0 LINE",
"108 98 LINE",
"110 98 LINE",
"156 31 OFFCURVE",
"249 -13 OFFCURVE",
"343 -13 CURVE SMOOTH"
);
},
{
closed = 1;
nodes = (
"108 398 OFFCURVE",
"206 490 OFFCURVE",
"352 490 CURVE SMOOTH",
"495 490 OFFCURVE",
"590 398 OFFCURVE",
"590 261 CURVE SMOOTH",
"590 122 OFFCURVE",
"491 29 OFFCURVE",
"343 29 CURVE SMOOTH",
"202 29 OFFCURVE",
"108 122 OFFCURVE",
"108 261 CURVE SMOOTH"
);
}
);
width = 688;
},
{
anchors = (
{
name = Top;
position = "{406, 532}";
}
);
layerId = m002;
paths = (
{
closed = 1;
nodes = (
"616 -13 OFFCURVE",
"732 89 OFFCURVE",
"732 261 CURVE SMOOTH",
"732 431 OFFCURVE",
"614 532 OFFCURVE",
"415 532 CURVE SMOOTH",
"346 532 OFFCURVE",
"283 519 OFFCURVE",
"245 497 CURVE",
"243 497 LINE",
"248 549 LINE",
"248 736 LINE",
"50 736 LINE",
"50 0 LINE",
"256 0 LINE",
"236 37 LINE",
"240 37 LINE",
"270 6 OFFCURVE",
"337 -13 OFFCURVE",
"419 -13 CURVE SMOOTH"
);
},
{
closed = 1;
nodes = (
"248 348 OFFCURVE",
"299 400 OFFCURVE",
"386 400 CURVE SMOOTH",
"473 400 OFFCURVE",
"524 348 OFFCURVE",
"524 261 CURVE SMOOTH",
"524 173 OFFCURVE",
"473 121 OFFCURVE",
"386 121 CURVE SMOOTH",
"299 121 OFFCURVE",
"248 173 OFFCURVE",
"248 261 CURVE SMOOTH"
);
}
);
width = 762;
}
);
leftKerningGroup = h;
leftMetricsKey = n;
rightKerningGroup = o;
rightMetricsKey = o;
unicode = 0062;
},
{
glyphname = c;
lastChange = "2025-09-11 23:26:32 +0000";
layers = (
{
anchors = (
{
name = Bottom;
position = "{336, 0}";
},
{
name = Top;
position = "{336, 532}";
}
);
layerId = "FD4D3FDD-DE85-408F-A52A-FF600B1C6101";
paths = (
{
closed = 1;
nodes = (
"546 155 LINE",
"536 79 OFFCURVE",
"452 29 OFFCURVE",
"336 29 CURVE SMOOTH",
"193 29 OFFCURVE",
"98 121 OFFCURVE",
"98 259 CURVE SMOOTH",
"98 398 OFFCURVE",
"193 490 OFFCURVE",
"336 490 CURVE SMOOTH",
"456 490 OFFCURVE",
"543 438 OFFCURVE",
"554 361 CURVE",
"602 361 LINE",
"591 464 OFFCURVE",
"485 532 OFFCURVE",
"336 532 CURVE SMOOTH",
"164 532 OFFCURVE",
"50 423 OFFCURVE",
"50 259 CURVE SMOOTH",
"50 96 OFFCURVE",
"164 -13 OFFCURVE",
"336 -13 CURVE SMOOTH",
"481 -13 OFFCURVE",
"584 54 OFFCURVE",
"594 155 CURVE"
);
}
);
width = 652;
},
{
anchors = (
{
name = Bottom;
position = "{370, 0}";
},
{
name = Top;
position = "{373, 532}";
}
);
layerId = m002;
paths = (
{
closed = 1;
nodes = (
"492 210 LINE",
"486 167 OFFCURVE",
"439 139 OFFCURVE",
"374 139 CURVE SMOOTH",
"292 139 OFFCURVE",
"238 187 OFFCURVE",
"238 259 CURVE SMOOTH",
"238 332 OFFCURVE",
"293 380 OFFCURVE",
"376 380 CURVE SMOOTH",
"444 380 OFFCURVE",
"494 350 OFFCURVE",
"500 306 CURVE",
"708 306 LINE",
"693 442 OFFCURVE",
"559 532 OFFCURVE",
"374 532 CURVE SMOOTH",
"168 532 OFFCURVE",
"30 423 OFFCURVE",
"30 259 CURVE SMOOTH",
"30 96 OFFCURVE",
"166 -13 OFFCURVE",
"369 -13 CURVE SMOOTH",
"554 -13 OFFCURVE",
"686 76 OFFCURVE",
"700 210 CURVE"
);
}
);
width = 738;
}
);
leftKerningGroup = o;
leftMetricsKey = o;
rightKerningGroup = c;
rightMetricsKey = o;
unicode = 0063;
},
{
color = 10;
glyphname = "chi-latin";
lastChange = "2025-09-12 05:03:00 +0000";
layers = (
{
layerId = "FD4D3FDD-DE85-408F-A52A-FF600B1C6101";
paths = (
{
closed = 1;
nodes = (
"412 152 LINE",
"651 520 LINE",
"596 520 LINE",
"385 195 LINE",
"257 394 LINE SMOOTH",
"203 479 OFFCURVE",
"163 532 OFFCURVE",
"88 532 CURVE SMOOTH",
"72 532 OFFCURVE",
"54 529 OFFCURVE",
"40 524 CURVE",
"40 476 LINE",
"51 482 OFFCURVE",
"73 485 OFFCURVE",
"92 485 CURVE SMOOTH",
"140 485 OFFCURVE",
"167 448 OFFCURVE",
"202 394 CURVE SMOOTH",
"357 152 LINE",
"117 -217 LINE",
"172 -217 LINE",
"384 109 LINE",
"515 -95 LINE SMOOTH",
"569 -179 OFFCURVE",
"604 -233 OFFCURVE",
"679 -233 CURVE SMOOTH",
"695 -233 OFFCURVE",
"713 -230 OFFCURVE",
"727 -225 CURVE",
"727 -177 LINE",
"716 -183 OFFCURVE",
"694 -186 OFFCURVE",
"675 -186 CURVE SMOOTH",
"627 -186 OFFCURVE",
"605 -149 OFFCURVE",
"570 -95 CURVE SMOOTH"
);
}
);
width = 767;
},
{
layerId = m002;
paths = (
{
closed = 1;
nodes = (
"532 158 LINE",
"797 520 LINE",
"571 520 LINE",
"405 294 LINE",
"340 363 LINE SMOOTH",
"241 469 OFFCURVE",
"150 532 OFFCURVE",
"96 532 CURVE SMOOTH",
"73 532 OFFCURVE",
"49 528 OFFCURVE",
"31 521 CURVE",
"30 361 LINE",
"36 364 OFFCURVE",
"47 365 OFFCURVE",
"61 365 CURVE SMOOTH",
"78 365 OFFCURVE",
"109 343 OFFCURVE",
"145 305 CURVE SMOOTH",
"296 144 LINE",
"32 -217 LINE",
"258 -217 LINE",
"423 9 LINE",
"492 -64 LINE SMOOTH",
"591 -170 OFFCURVE",
"683 -233 OFFCURVE",
"740 -233 CURVE SMOOTH",
"765 -233 OFFCURVE",
"787 -229 OFFCURVE",
"801 -222 CURVE",
"801 -62 LINE",
"797 -65 OFFCURVE",
"786 -66 OFFCURVE",
"771 -66 CURVE SMOOTH",
"754 -66 OFFCURVE",
"723 -44 OFFCURVE",
"687 -6 CURVE SMOOTH"
);
}
);
width = 831;
}
);
leftKerningGroup = x;
leftMetricsKey = x;
rightKerningGroup = x;
rightMetricsKey = x;
unicode = AB53;
},
{
color = 10;
glyphname = cstroke;
lastChange = "2025-09-12 05:01:07 +0000";
layers = (
{
layerId = "FD4D3FDD-DE85-408F-A52A-FF600B1C6101";
paths = (
{
closed = 1;
nodes = (
"546 155 LINE",
"536 79 OFFCURVE",
"452 29 OFFCURVE",
"336 29 CURVE SMOOTH",
"315 29 OFFCURVE",
"296 31 OFFCURVE",
"277 35 CURVE",
"438 475 LINE",
"503 455 OFFCURVE",
"546 414 OFFCURVE",
"554 361 CURVE",
"602 361 LINE",
"594 434 OFFCURVE",
"538 490 OFFCURVE",
"453 516 CURVE",
"468 558 LINE",
"427 558 LINE",
"415 525 LINE",
"390 530 OFFCURVE",
"364 532 OFFCURVE",
"336 532 CURVE SMOOTH",
"164 532 OFFCURVE",
"50 423 OFFCURVE",
"50 259 CURVE SMOOTH",
"50 134 OFFCURVE",
"117 41 OFFCURVE",
"225 4 CURVE",
"205 -50 LINE",
"246 -50 LINE",
"262 -6 LINE",
"285 -11 OFFCURVE",
"310 -13 OFFCURVE",
"336 -13 CURVE SMOOTH",
"481 -13 OFFCURVE",
"584 54 OFFCURVE",
"594 155 CURVE"
);
},
{
closed = 1;
nodes = (
"98 398 OFFCURVE",
"193 490 OFFCURVE",
"336 490 CURVE SMOOTH",
"359 490 OFFCURVE",
"380 488 OFFCURVE",
"400 485 CURVE",
"240 45 LINE",
"152 77 OFFCURVE",
"98 155 OFFCURVE",
"98 259 CURVE SMOOTH"
);
}
);
width = 652;
},
{
layerId = m002;
paths = (
{
closed = 1;
nodes = (
"492 210 LINE",
"486 167 OFFCURVE",
"439 139 OFFCURVE",
"374 139 CURVE SMOOTH",
"368 139 OFFCURVE",
"363 139 OFFCURVE",
"357 140 CURVE",
"441 369 LINE",
"474 357 OFFCURVE",
"496 334 OFFCURVE",
"500 306 CURVE",
"708 306 LINE",
"697 410 OFFCURVE",
"615 487 OFFCURVE",
"495 518 CURVE",
"510 558 LINE",
"459 558 LINE",
"448 527 LINE",
"424 530 OFFCURVE",
"400 532 OFFCURVE",
"374 532 CURVE SMOOTH",
"168 532 OFFCURVE",
"30 423 OFFCURVE",
"30 259 CURVE SMOOTH",
"30 129 OFFCURVE",
"117 33 OFFCURVE",
"255 0 CURVE",
"237 -50 LINE",
"288 -50 LINE",
"303 -9 LINE",
"324 -12 OFFCURVE",
"346 -13 OFFCURVE",
"369 -13 CURVE SMOOTH",
"554 -13 OFFCURVE",
"686 76 OFFCURVE",
"700 210 CURVE"
);
},
{
closed = 1;
nodes = (
"238 332 OFFCURVE",
"293 380 OFFCURVE",
"376 380 CURVE SMOOTH",
"382 380 OFFCURVE",
"388 380 OFFCURVE",
"394 379 CURVE",
"310 151 LINE",
"265 169 OFFCURVE",
"238 208 OFFCURVE",
"238 259 CURVE SMOOTH"
);
}
);
width = 738;
}
);
leftKerningGroup = o;
leftMetricsKey = c;
rightKerningGroup = c;
rightMetricsKey = c;
unicode = 023C;
},
{
glyphname = d;
lastChange = "2025-09-11 23:26:35 +0000";
layers = (
{
anchors = (
{
name = Bottom;
position = "{356, 0}";
},
{
name = Top;
position = "{344, 532}";
},
{
name = Top_EC;
position = "{686, 532}";
}
);
layerId = "FD4D3FDD-DE85-408F-A52A-FF600B1C6101";
paths = (
{
closed = 1;
nodes = (
"439 -13 OFFCURVE",
"532 31 OFFCURVE",
"578 98 CURVE",
"580 98 LINE",
"565 0 LINE",
"628 0 LINE",
"628 736 LINE",
"580 736 LINE",
"580 520 LINE",
"585 412 LINE",
"583 412 LINE",
"539 484 OFFCURVE",
"438 532 OFFCURVE",
"330 532 CURVE SMOOTH",
"162 532 OFFCURVE",
"50 424 OFFCURVE",
"50 261 CURVE SMOOTH",
"50 97 OFFCURVE",
"168 -13 OFFCURVE",
"345 -13 CURVE SMOOTH"
);
},
{
closed = 1;
nodes = (
"98 398 OFFCURVE",
"193 490 OFFCURVE",
"336 490 CURVE SMOOTH",
"482 490 OFFCURVE",
"580 398 OFFCURVE",
"580 261 CURVE SMOOTH",
"580 122 OFFCURVE",
"486 29 OFFCURVE",
"345 29 CURVE SMOOTH",
"197 29 OFFCURVE",
"98 122 OFFCURVE",
"98 261 CURVE SMOOTH"
);
}
);
width = 688;
},
{
anchors = (
{
name = Bottom;
position = "{401, 0}";
},
{
name = Top;
position = "{376, 532}";
},
{
name = Top_EC;
position = "{806, 500}";
}
);
layerId = m002;
paths = (
{
closed = 1;
nodes = (
"425 -13 OFFCURVE",
"492 6 OFFCURVE",
"522 37 CURVE",
"526 37 LINE",
"506 0 LINE",
"712 0 LINE",
"712 736 LINE",
"514 736 LINE",
"514 549 LINE",
"519 497 LINE",
"517 497 LINE",
"479 519 OFFCURVE",
"416 532 OFFCURVE",
"347 532 CURVE SMOOTH",
"148 532 OFFCURVE",
"30 431 OFFCURVE",
"30 261 CURVE SMOOTH",
"30 89 OFFCURVE",
"146 -13 OFFCURVE",
"343 -13 CURVE SMOOTH"
);
},
{
closed = 1;
nodes = (
"238 348 OFFCURVE",
"289 400 OFFCURVE",
"376 400 CURVE SMOOTH",
"463 400 OFFCURVE",
"514 348 OFFCURVE",
"514 261 CURVE SMOOTH",
"514 173 OFFCURVE",
"463 121 OFFCURVE",
"376 121 CURVE SMOOTH",
"289 121 OFFCURVE",
"238 173 OFFCURVE",
"238 261 CURVE SMOOTH"
);
}
);
width = 762;
}
);
leftKerningGroup = o;
leftMetricsKey = o;
rightKerningGroup = n;
rightMetricsKey = n;
unicode = 0064;
},
{
color = 10;
glyphname = eth;
lastChange = "2025-09-11 23:26:37 +0000";
layers = (
{
layerId = "FD4D3FDD-DE85-408F-A52A-FF600B1C6101";
paths = (
{
closed = 1;
nodes = (
"494 -12 OFFCURVE",
"608 109 OFFCURVE",
"608 291 CURVE SMOOTH",
"608 430 OFFCURVE",
"539 560 OFFCURVE",
"425 649 CURVE",
"492 704 LINE",
"469 731 LINE",
"396 670 LINE",
"360 695 OFFCURVE",
"319 715 OFFCURVE",
"276 731 CURVE",
"248 695 LINE",
"287 682 OFFCURVE",
"325 663 OFFCURVE",
"360 640 CURVE",
"294 585 LINE",
"316 559 LINE",
"389 619 LINE",
"448 573 OFFCURVE",
"496 515 OFFCURVE",
"521 454 CURVE",
"519 453 LINE",
"477 500 OFFCURVE",
"399 532 OFFCURVE",
"324 532 CURVE SMOOTH",
"160 532 OFFCURVE",
"50 422 OFFCURVE",
"50 258 CURVE SMOOTH",
"50 96 OFFCURVE",
"160 -12 OFFCURVE",
"324 -12 CURVE SMOOTH"
);
},
{
closed = 1;
nodes = (
"98 398 OFFCURVE",
"188 490 OFFCURVE",
"324 490 CURVE SMOOTH",
"461 490 OFFCURVE",
"552 398 OFFCURVE",
"552 260 CURVE SMOOTH",
"552 122 OFFCURVE",
"461 30 OFFCURVE",
"324 30 CURVE SMOOTH",
"188 30 OFFCURVE",
"98 122 OFFCURVE",
"98 260 CURVE SMOOTH"
);
}
);
width = 658;
},
{
layerId = m002;
paths = (
{
closed = 1;
nodes = (
"538 -12 OFFCURVE",
"668 109 OFFCURVE",
"668 291 CURVE SMOOTH",
"668 437 OFFCURVE",
"588 575 OFFCURVE",
"457 668 CURVE",
"508 710 LINE",
"449 777 LINE",
"376 717 LINE",
"349 730 OFFCURVE",
"321 742 OFFCURVE",
"291 752 CURVE",
"210 647 LINE",
"229 640 OFFCURVE",
"248 633 OFFCURVE",
"266 625 CURVE",
"237 601 LINE",
"295 535 LINE",
"349 579 LINE",
"379 561 OFFCURVE",
"405 540 OFFCURVE",
"427 519 CURVE",
"425 517 LINE",
"401 527 OFFCURVE",
"372 532 OFFCURVE",
"344 532 CURVE SMOOTH",
"156 532 OFFCURVE",
"30 422 OFFCURVE",
"30 258 CURVE SMOOTH",
"30 96 OFFCURVE",
"156 -12 OFFCURVE",
"344 -12 CURVE SMOOTH"
);
},
{
closed = 1;
nodes = (
"198 338 OFFCURVE",
"256 390 OFFCURVE",
"344 390 CURVE SMOOTH",
"433 390 OFFCURVE",
"492 338 OFFCURVE",
"492 260 CURVE SMOOTH",
"492 182 OFFCURVE",
"433 130 OFFCURVE",
"344 130 CURVE SMOOTH",
"256 130 OFFCURVE",
"198 182 OFFCURVE",
"198 260 CURVE SMOOTH"
);
}
);
width = 698;
}
);
leftKerningGroup = o;
leftMetricsKey = d;
rightKerningGroup = o;
rightMetricsKey = o;
unicode = 00F0;
},
{
color = 10;
glyphname = dcroat;
lastChange = "2025-09-11 23:26:39 +0000";
layers = (
{
layerId = "FD4D3FDD-DE85-408F-A52A-FF600B1C6101";
paths = (
{
closed = 1;
nodes = (
"439 -13 OFFCURVE",
"532 31 OFFCURVE",
"578 98 CURVE",
"580 98 LINE",
"565 0 LINE",
"628 0 LINE",
"628 619 LINE",
"721 619 LINE",
"721 664 LINE",
"628 659 LINE",
"628 736 LINE",
"580 736 LINE",
"580 661 LINE",
"446 661 LINE",
"446 619 LINE",
"580 619 LINE",
"580 520 LINE",
"585 412 LINE",
"583 412 LINE",
"539 484 OFFCURVE",
"438 532 OFFCURVE",
"330 532 CURVE SMOOTH",
"162 532 OFFCURVE",
"50 424 OFFCURVE",
"50 261 CURVE SMOOTH",
"50 97 OFFCURVE",
"168 -13 OFFCURVE",
"345 -13 CURVE SMOOTH"
);
},
{
closed = 1;
nodes = (
"98 398 OFFCURVE",
"193 490 OFFCURVE",
"336 490 CURVE SMOOTH",
"482 490 OFFCURVE",
"580 398 OFFCURVE",
"580 261 CURVE SMOOTH",
"580 122 OFFCURVE",
"486 29 OFFCURVE",
"345 29 CURVE SMOOTH",
"197 29 OFFCURVE",
"98 122 OFFCURVE",
"98 261 CURVE SMOOTH"
);
}
);
width = 781;
},
{
layerId = m002;
paths = (
{
closed = 1;
nodes = (
"421 -13 OFFCURVE",
"493 7 OFFCURVE",
"522 37 CURVE",
"526 37 LINE",
"506 0 LINE",
"712 0 LINE",
"712 587 LINE",
"785 587 LINE",
"785 690 LINE",
"712 685 LINE",
"712 736 LINE",
"514 736 LINE",
"514 687 LINE",
"440 687 LINE",
"440 587 LINE",
"514 587 LINE",
"514 549 LINE",
"519 487 LINE",
"517 487 LINE",
"480 514 OFFCURVE",
"415 532 OFFCURVE",
"354 532 CURVE SMOOTH",
"160 532 OFFCURVE",
"30 424 OFFCURVE",
"30 261 CURVE SMOOTH",
"30 97 OFFCURVE",
"155 -13 OFFCURVE",
"343 -13 CURVE SMOOTH"
);
},
{
closed = 1;
nodes = (
"238 344 OFFCURVE",
"293 400 OFFCURVE",
"376 400 CURVE SMOOTH",
"459 400 OFFCURVE",
"514 344 OFFCURVE",
"514 261 CURVE SMOOTH",
"514 177 OFFCURVE",
"459 121 OFFCURVE",
"376 121 CURVE SMOOTH",
"293 121 OFFCURVE",
"238 177 OFFCURVE",
"238 261 CURVE SMOOTH"
);
}
);
width = 835;
}
);
leftKerningGroup = o;
leftMetricsKey = o;
rightKerningGroup = dcroat;
rightMetricsKey = n;
unicode = 0111;
},
{
glyphname = e;
lastChange = "2025-09-11 23:26:41 +0000";
layers = (
{
anchors = (
{
name = Bottom;
position = "{343, 0}";
},
{
name = Top;
position = "{335, 532}";
}
);
layerId = "FD4D3FDD-DE85-408F-A52A-FF600B1C6101";
paths = (
{
closed = 1;
nodes = (
"568 159 LINE",
"552 81 OFFCURVE",
"462 29 OFFCURVE",
"343 29 CURVE SMOOTH",
"198 29 OFFCURVE",
"101 120 OFFCURVE",
"98 256 CURVE",
"621 256 LINE",
"621 298 LINE SMOOTH",
"621 438 OFFCURVE",
"507 532 OFFCURVE",
"335 532 CURVE SMOOTH",
"164 532 OFFCURVE",
"50 424 OFFCURVE",
"50 263 CURVE SMOOTH",
"50 97 OFFCURVE",
"167 -13 OFFCURVE",
"342 -13 CURVE SMOOTH",
"487 -13 OFFCURVE",
"597 56 OFFCURVE",
"616 159 CURVE"
);
},
{
closed = 1;
nodes = (
"117 414 OFFCURVE",
"207 490 OFFCURVE",
"336 490 CURVE SMOOTH",
"478 490 OFFCURVE",
"573 413 OFFCURVE",
"573 298 CURVE",
"101 298 LINE"
);
}
);
width = 671;
},
{
anchors = (
{
name = Bottom;
position = "{386, 0}";
},
{
name = Top;
position = "{378, 532}";
}
);
layerId = m002;
paths = (
{
closed = 1;
nodes = (
"519 175 LINE",
"511 143 OFFCURVE",
"462 124 OFFCURVE",
"387 124 CURVE SMOOTH",
"313 124 OFFCURVE",
"265 157 OFFCURVE",
"249 214 CURVE",
"712 214 LINE",
"712 263 LINE SMOOTH",
"712 432 OFFCURVE",
"588 532 OFFCURVE",
"379 532 CURVE SMOOTH",
"160 532 OFFCURVE",
"30 431 OFFCURVE",
"30 259 CURVE SMOOTH",
"30 88 OFFCURVE",
"161 -13 OFFCURVE",
"384 -13 CURVE SMOOTH",
"569 -13 OFFCURVE",
"693 57 OFFCURVE",
"717 175 CURVE"
);
},
{
closed = 1;
nodes = (
"269 366 OFFCURVE",
"314 395 OFFCURVE",
"379 395 CURVE SMOOTH",
"445 395 OFFCURVE",
"488 366 OFFCURVE",
"500 315 CURVE",
"252 314 LINE"
);
}
);
width = 747;
}
);
leftKerningGroup = o;
leftMetricsKey = o;
rightKerningGroup = o;
rightMetricsKey = o;
unicode = 0065;
},
{
color = 10;
glyphname = eopen;
lastChange = "2025-09-11 23:26:59 +0000";
layers = (
{
layerId = "FD4D3FDD-DE85-408F-A52A-FF600B1C6101";
paths = (
{
closed = 1;
nodes = (
"98 209 OFFCURVE",
"146 250 OFFCURVE",
"228 250 CURVE SMOOTH",
"303 250 LINE",
"303 292 LINE",
"228 292 LINE SMOOTH",
"157 292 OFFCURVE",
"115 328 OFFCURVE",
"115 388 CURVE SMOOTH",
"115 452 OFFCURVE",
"172 490 OFFCURVE",
"268 490 CURVE SMOOTH",
"369 490 OFFCURVE",
"428 451 OFFCURVE",
"428 386 CURVE",
"476 386 LINE",
"476 478 OFFCURVE",
"399 532 OFFCURVE",
"268 532 CURVE SMOOTH",
"142 532 OFFCURVE",
"67 479 OFFCURVE",
"67 388 CURVE SMOOTH",
"67 330 OFFCURVE",
"94 287 OFFCURVE",
"139 272 CURVE",
"139 270 LINE",
"83 259 OFFCURVE",
"50 211 OFFCURVE",
"50 140 CURVE SMOOTH",
"50 44 OFFCURVE",
"130 -13 OFFCURVE",
"266 -13 CURVE SMOOTH",
"402 -13 OFFCURVE",
"482 43 OFFCURVE",
"482 138 CURVE",
"434 138 LINE",
"434 69 OFFCURVE",
"372 29 OFFCURVE",
"266 29 CURVE SMOOTH",
"160 29 OFFCURVE",
"98 70 OFFCURVE",
"98 140 CURVE SMOOTH"
);
}
);
width = 532;
},
{
layerId = m002;
paths = (
{
closed = 1;
nodes = (
"239 207 OFFCURVE",
"255 220 OFFCURVE",
"281 220 CURVE SMOOTH",
"346 220 LINE",
"346 316 LINE",
"281 316 LINE SMOOTH",
"266 316 OFFCURVE",
"257 326 OFFCURVE",
"257 342 CURVE SMOOTH",
"257 363 OFFCURVE",
"284 375 OFFCURVE",
"331 375 CURVE SMOOTH",
"379 375 OFFCURVE",
"408 359 OFFCURVE",
"408 331 CURVE",
"616 331 LINE",
"616 457 OFFCURVE",
"510 532 OFFCURVE",
"331 532 CURVE SMOOTH",
"154 532 OFFCURVE",
"49 470 OFFCURVE",
"49 364 CURVE SMOOTH",
"49 319 OFFCURVE",
"68 285 OFFCURVE",
"99 272 CURVE",
"99 270 LINE",
"56 256 OFFCURVE",
"30 218 OFFCURVE",
"30 169 CURVE SMOOTH",
"30 55 OFFCURVE",
"139 -13 OFFCURVE",
"324 -13 CURVE SMOOTH",
"517 -13 OFFCURVE",
"631 65 OFFCURVE",
"631 196 CURVE",
"423 196 LINE",
"423 163 OFFCURVE",
"386 144 OFFCURVE",
"324 144 CURVE SMOOTH",
"271 144 OFFCURVE",
"239 160 OFFCURVE",
"239 186 CURVE SMOOTH"
);
}
);
width = 661;
}
);
leftKerningGroup = o;
leftMetricsKey = o;
rightKerningGroup = o;
rightMetricsKey = o;
unicode = 025B;
},
{
color = 10;
glyphname = schwa;
lastChange = "2025-09-12 05:01:14 +0000";
layers = (
{
layerId = "FD4D3FDD-DE85-408F-A52A-FF600B1C6101";
paths = (
{
closed = 1;
nodes = (
"103 360 LINE",
"119 438 OFFCURVE",
"209 490 OFFCURVE",
"328 490 CURVE SMOOTH",
"473 490 OFFCURVE",
"570 399 OFFCURVE",
"573 263 CURVE",
"50 263 LINE",
"50 221 LINE SMOOTH",
"50 81 OFFCURVE",
"164 -13 OFFCURVE",
"336 -13 CURVE SMOOTH",
"507 -13 OFFCURVE",
"621 95 OFFCURVE",
"621 256 CURVE SMOOTH",
"621 422 OFFCURVE",
"504 532 OFFCURVE",
"329 532 CURVE SMOOTH",
"184 532 OFFCURVE",
"74 463 OFFCURVE",
"55 360 CURVE"
);
},
{
closed = 1;
nodes = (
"570 221 LINE",
"554 105 OFFCURVE",
"464 29 OFFCURVE",
"335 29 CURVE SMOOTH",
"193 29 OFFCURVE",
"98 106 OFFCURVE",
"98 221 CURVE"
);
}
);
width = 671;
},
{
layerId = m002;
paths = (
{
closed = 1;
nodes = (
"228 344 LINE",
"236 376 OFFCURVE",
"285 395 OFFCURVE",
"360 395 CURVE SMOOTH",
"434 395 OFFCURVE",
"482 362 OFFCURVE",
"498 305 CURVE",
"35 305 LINE",
"35 256 LINE SMOOTH",
"35 87 OFFCURVE",
"159 -13 OFFCURVE",
"368 -13 CURVE SMOOTH",
"587 -13 OFFCURVE",
"717 88 OFFCURVE",
"717 260 CURVE SMOOTH",
"717 431 OFFCURVE",
"586 532 OFFCURVE",
"363 532 CURVE SMOOTH",
"178 532 OFFCURVE",
"54 462 OFFCURVE",
"30 344 CURVE"
);
},
{
closed = 1;
nodes = (
"495 205 LINE",
"478 153 OFFCURVE",
"433 124 OFFCURVE",
"368 124 CURVE SMOOTH",
"302 124 OFFCURVE",
"259 153 OFFCURVE",
"247 204 CURVE"
);
}
);
width = 747;
}
);
leftKerningGroup = o;
leftMetricsKey = e;
rightKerningGroup = o;
rightMetricsKey = e;
unicode = 0259;
},
{
color = 10;
glyphname = ezh;
lastChange = "2025-09-11 23:27:01 +0000";
layers = (
{
anchors = (
{
name = Top;
position = "{320, 520}";
}
);
layerId = "FD4D3FDD-DE85-408F-A52A-FF600B1C6101";
paths = (
{
closed = 1;
nodes = (
"72 478 LINE",
"499 478 LINE",
"295 275 LINE",
"295 233 LINE",
"330 233 LINE SMOOTH",
"455 233 OFFCURVE",
"538 161 OFFCURVE",
"538 52 CURVE SMOOTH",
"538 -58 OFFCURVE",
"452 -132 OFFCURVE",
"322 -132 CURVE SMOOTH",
"188 -132 OFFCURVE",
"98 -61 OFFCURVE",
"98 45 CURVE",
"50 45 LINE",
"50 -86 OFFCURVE",
"159 -174 OFFCURVE",
"322 -174 CURVE SMOOTH",
"480 -174 OFFCURVE",
"586 -84 OFFCURVE",
"586 52 CURVE SMOOTH",
"586 179 OFFCURVE",
"495 265 OFFCURVE",
"354 274 CURVE",
"559 478 LINE",
"559 520 LINE",
"72 520 LINE"
);
}
);
width = 636;
},
{
anchors = (
{
name = Top;
position = "{352, 520}";
}
);
layerId = m002;
paths = (
{
closed = 1;
nodes = (
"52 370 LINE",
"392 370 LINE",
"305 285 LINE",
"305 135 LINE",
"352 135 LINE SMOOTH",
"419 135 OFFCURVE",
"458 108 OFFCURVE",
"458 61 CURVE SMOOTH",
"458 15 OFFCURVE",
"419 -12 OFFCURVE",
"352 -12 CURVE SMOOTH",
"280 -12 OFFCURVE",
"238 17 OFFCURVE",
"238 65 CURVE",
"30 65 LINE",
"30 -85 OFFCURVE",
"150 -174 OFFCURVE",
"352 -174 CURVE SMOOTH",
"549 -174 OFFCURVE",
"666 -89 OFFCURVE",
"666 55 CURVE SMOOTH",
"666 153 OFFCURVE",
"612 224 OFFCURVE",
"517 259 CURVE",
"639 370 LINE",
"639 520 LINE",
"52 520 LINE"
);
}
);
width = 696;
}
);
leftKerningGroup = o;
leftMetricsKey = o;
rightKerningGroup = o;
rightMetricsKey = o;
unicode = 0292;
},
{
glyphname = f;
lastChange = "2025-09-12 05:03:31 +0000";
layers = (
{
layerId = "FD4D3FDD-DE85-408F-A52A-FF600B1C6101";
paths = (
{
closed = 1;
nodes = (
"153 518 LINE",
"60 523 LINE",
"60 478 LINE",
"153 478 LINE",
"153 0 LINE",
"201 0 LINE",
"201 478 LINE",
"345 478 LINE",
"345 520 LINE",
"201 520 LINE",
"201 565 LINE SMOOTH",
"201 647 OFFCURVE",
"251 695 OFFCURVE",
"335 695 CURVE SMOOTH",
"357 695 OFFCURVE",
"380 690 OFFCURVE",
"399 681 CURVE",
"399 723 LINE",
"381 731 OFFCURVE",
"356 736 OFFCURVE",
"332 736 CURVE SMOOTH",
"219 736 OFFCURVE",
"153 671 OFFCURVE",
"153 562 CURVE SMOOTH"
);
}
);
width = 439;
},
{
layerId = m002;
paths = (
{
closed = 1;
nodes = (
"123 518 LINE",
"50 523 LINE",
"50 370 LINE",
"123 370 LINE",
"123 0 LINE",
"321 0 LINE",
"321 370 LINE",
"455 370 LINE",
"455 520 LINE",
"321 520 LINE",
"321 535 LINE SMOOTH",
"321 560 OFFCURVE",
"349 577 OFFCURVE",
"390 577 CURVE SMOOTH",
"414 577 OFFCURVE",
"446 571 OFFCURVE",
"469 563 CURVE",
"469 723 LINE",
"452 731 OFFCURVE",
"415 736 OFFCURVE",
"375 736 CURVE SMOOTH",
"224 736 OFFCURVE",
"123 664 OFFCURVE",
"123 557 CURVE SMOOTH"
);
}
);
width = 509;
}
);
leftKerningGroup = f;
leftMetricsKey = n;
rightKerningGroup = f;
unicode = 0066;
},
{
glyphname = g;
lastChange = "2025-09-11 23:33:40 +0000";
layers = (
{
anchors = (
{
name = Top;
position = "{345, 531}";
}
);
layerId = "FD4D3FDD-DE85-408F-A52A-FF600B1C6101";
paths = (
{
closed = 1;
nodes = (
"628 520 LINE",
"565 520 LINE",
"585 412 LINE",
"583 412 LINE",
"542 484 OFFCURVE",
"446 532 OFFCURVE",
"345 532 CURVE SMOOTH",
"168 532 OFFCURVE",
"50 423 OFFCURVE",
"50 260 CURVE SMOOTH",
"50 96 OFFCURVE",
"170 -13 OFFCURVE",
"351 -13 CURVE SMOOTH",
"440 -13 OFFCURVE",
"533 31 OFFCURVE",
"583 98 CURVE",
"585 98 LINE",
"580 -22 LINE SMOOTH",
"576 -123 OFFCURVE",
"484 -191 OFFCURVE",
"349 -191 CURVE SMOOTH",
"225 -191 OFFCURVE",
"131 -139 OFFCURVE",
"115 -61 CURVE",
"67 -61 LINE",
"86 -164 OFFCURVE",
"198 -233 OFFCURVE",
"348 -233 CURVE SMOOTH",
"516 -233 OFFCURVE",
"628 -144 OFFCURVE",
"628 -11 CURVE SMOOTH"
);
},
{
closed = 1;
nodes = (
"98 398 OFFCURVE",
"197 490 OFFCURVE",
"346 490 CURVE SMOOTH",
"486 490 OFFCURVE",
"579 398 OFFCURVE",
"579 260 CURVE SMOOTH",
"579 121 OFFCURVE",
"486 29 OFFCURVE",
"346 29 CURVE SMOOTH",
"197 29 OFFCURVE",
"98 121 OFFCURVE",
"98 260 CURVE SMOOTH"
);
}
);
width = 688;
},
{
anchors = (
{
name = Top;
position = "{403, 532}";
}
);
layerId = m002;
paths = (
{
closed = 1;
nodes = (
"712 520 LINE",
"506 520 LINE",
"526 490 LINE",
"522 490 LINE",
"490 516 OFFCURVE",
"432 532 OFFCURVE",
"366 532 CURVE SMOOTH",
"155 532 OFFCURVE",
"30 431 OFFCURVE",
"30 260 CURVE SMOOTH",
"30 88 OFFCURVE",
"149 -13 OFFCURVE",
"351 -13 CURVE SMOOTH",
"436 -13 OFFCURVE",
"501 7 OFFCURVE",
"527 42 CURVE",
"529 42 LINE",
"529 -10 LINE SMOOTH",
"529 -64 OFFCURVE",
"478 -96 OFFCURVE",
"393 -96 CURVE SMOOTH",
"302 -96 OFFCURVE",
"249 -67 OFFCURVE",
"249 -19 CURVE",
"51 -19 LINE",
"51 -154 OFFCURVE",
"176 -233 OFFCURVE",
"388 -233 CURVE SMOOTH",
"592 -233 OFFCURVE",
"712 -151 OFFCURVE",
"712 -13 CURVE SMOOTH"
);
},
{
closed = 1;
nodes = (
"238 335 OFFCURVE",
"292 379 OFFCURVE",
"383 379 CURVE SMOOTH",
"465 379 OFFCURVE",
"513 335 OFFCURVE",
"513 260 CURVE SMOOTH",
"513 184 OFFCURVE",
"465 139 OFFCURVE",
"383 139 CURVE SMOOTH",
"292 139 OFFCURVE",
"238 184 OFFCURVE",
"238 260 CURVE SMOOTH"
);
}
);
width = 762;
}
);
leftKerningGroup = o;
leftMetricsKey = o;
rightKerningGroup = g;
rightMetricsKey = n;
unicode = 0067;
},
{
color = 10;
glyphname = "gamma-latin";
lastChange = "2025-09-12 05:03:06 +0000";
layers = (
{
layerId = "FD4D3FDD-DE85-408F-A52A-FF600B1C6101";
paths = (
{
closed = 1;
nodes = (
"401 -217 OFFCURVE",
"471 -162 OFFCURVE",
"471 -79 CURVE SMOOTH",
"471 -24 OFFCURVE",
"442 34 OFFCURVE",
"401 91 CURVE SMOOTH",
"321 202 LINE",
"550 520 LINE",
"499 520 LINE",
"295 238 LINE",
"91 520 LINE",
"40 520 LINE",
"269 202 LINE",
"189 91 LINE SMOOTH",
"148 34 OFFCURVE",
"119 -24 OFFCURVE",
"119 -79 CURVE SMOOTH",
"119 -162 OFFCURVE",
"189 -217 OFFCURVE",
"295 -217 CURVE SMOOTH"
);
},
{
closed = 1;
nodes = (
"167 -20 OFFCURVE",
"193 26 OFFCURVE",
"238 88 CURVE SMOOTH",
"295 167 LINE",
"352 88 LINE SMOOTH",
"397 26 OFFCURVE",
"423 -20 OFFCURVE",
"423 -77 CURVE SMOOTH",
"423 -135 OFFCURVE",
"372 -175 OFFCURVE",
"295 -175 CURVE SMOOTH",
"218 -175 OFFCURVE",
"167 -135 OFFCURVE",
"167 -77 CURVE SMOOTH"
);
}
);
width = 590;
},
{
layerId = m002;
paths = (
{
closed = 1;
nodes = (
"523 -217 OFFCURVE",
"636 -132 OFFCURVE",
"636 13 CURVE SMOOTH",
"636 63 OFFCURVE",
"617 115 OFFCURVE",
"585 153 CURVE SMOOTH",
"450 317 LINE",
"605 520 LINE",
"384 520 LINE",
"333 458 LINE",
"282 520 LINE",
"61 520 LINE",
"216 317 LINE",
"81 153 LINE SMOOTH",
"49 115 OFFCURVE",
"30 63 OFFCURVE",
"30 13 CURVE SMOOTH",
"30 -132 OFFCURVE",
"143 -217 OFFCURVE",
"333 -217 CURVE SMOOTH"
);
},
{
closed = 1;
nodes = (
"238 29 OFFCURVE",
"251 58 OFFCURVE",
"274 88 CURVE SMOOTH",
"333 165 LINE",
"392 88 LINE SMOOTH",
"415 58 OFFCURVE",
"428 29 OFFCURVE",
"428 9 CURVE SMOOTH",
"428 -27 OFFCURVE",
"393 -49 OFFCURVE",
"333 -49 CURVE SMOOTH",
"273 -49 OFFCURVE",
"238 -27 OFFCURVE",
"238 9 CURVE SMOOTH"
);
}
);
width = 666;
}
);
leftKerningGroup = v;
leftMetricsKey = v;
rightKerningGroup = v;
rightMetricsKey = v;
unicode = 0263;
},
{
color = 10;
glyphname = glottalstop;
lastChange = "2025-09-11 23:33:45 +0000";
layers = (
{
layerId = "FD4D3FDD-DE85-408F-A52A-FF600B1C6101";
paths = (
{
closed = 1;
nodes = (
"303 0 LINE",
"303 315 OFFCURVE",
"576 285 OFFCURVE",
"576 521 CURVE SMOOTH",
"576 650 OFFCURVE",
"480 726 OFFCURVE",
"318 726 CURVE SMOOTH",
"150 726 OFFCURVE",
"50 649 OFFCURVE",
"50 520 CURVE",
"98 520 LINE",
"98 623 OFFCURVE",
"180 684 OFFCURVE",
"318 684 CURVE SMOOTH",
"450 684 OFFCURVE",
"528 623 OFFCURVE",
"528 521 CURVE SMOOTH",
"528 315 OFFCURVE",
"255 340 OFFCURVE",
"255 0 CURVE"
);
}
);
width = 626;
},
{
layerId = m002;
paths = (
{
closed = 1;
nodes = (
"397 0 LINE",
"397 258 OFFCURVE",
"702 216 OFFCURVE",
"702 475 CURVE SMOOTH",
"702 633 OFFCURVE",
"577 726 OFFCURVE",
"366 726 CURVE SMOOTH",
"155 726 OFFCURVE",
"30 629 OFFCURVE",
"30 465 CURVE",
"238 465 LINE",
"238 530 OFFCURVE",
"286 568 OFFCURVE",
"366 568 CURVE SMOOTH",
"446 568 OFFCURVE",
"494 533 OFFCURVE",
"494 475 CURVE SMOOTH",
"494 303 OFFCURVE",
"199 321 OFFCURVE",
"199 0 CURVE"
);
}
);
width = 732;
}
);
leftKerningGroup = o;
leftMetricsKey = o;
rightKerningGroup = p;
rightMetricsKey = o;
unicode = 0294;
},
{
color = 10;
glyphname = glottalstopreversed;
lastChange = "2025-09-11 23:33:49 +0000";
layers = (
{
layerId = "FD4D3FDD-DE85-408F-A52A-FF600B1C6101";
paths = (
{
closed = 1;
nodes = (
"371 0 LINE",
"371 340 OFFCURVE",
"98 315 OFFCURVE",
"98 521 CURVE SMOOTH",
"98 623 OFFCURVE",
"176 684 OFFCURVE",
"308 684 CURVE SMOOTH",
"446 684 OFFCURVE",
"528 623 OFFCURVE",
"528 520 CURVE",
"576 520 LINE",
"576 649 OFFCURVE",
"476 726 OFFCURVE",
"308 726 CURVE SMOOTH",
"146 726 OFFCURVE",
"50 650 OFFCURVE",
"50 521 CURVE SMOOTH",
"50 285 OFFCURVE",
"323 315 OFFCURVE",
"323 0 CURVE"
);
}
);
width = 626;
},
{
layerId = m002;
paths = (
{
closed = 1;
nodes = (
"533 0 LINE",
"533 321 OFFCURVE",
"238 303 OFFCURVE",
"238 475 CURVE SMOOTH",
"238 533 OFFCURVE",
"286 568 OFFCURVE",
"366 568 CURVE SMOOTH",
"446 568 OFFCURVE",
"494 530 OFFCURVE",
"494 465 CURVE",
"702 465 LINE",
"702 629 OFFCURVE",
"577 726 OFFCURVE",
"366 726 CURVE SMOOTH",
"155 726 OFFCURVE",
"30 633 OFFCURVE",
"30 475 CURVE SMOOTH",
"30 216 OFFCURVE",
"335 258 OFFCURVE",
"335 0 CURVE"
);
}
);
width = 732;
}
);
leftKerningGroup = o;
leftMetricsKey = o;
rightKerningGroup = o;
rightMetricsKey = c;
unicode = 0295;
},
{
color = 10;
glyphname = gstroke;
lastChange = "2025-09-12 05:01:16 +0000";
layers = (
{
layerId = "FD4D3FDD-DE85-408F-A52A-FF600B1C6101";
paths = (
{
closed = 1;
nodes = (
"628 238 LINE",
"704 238 LINE",
"704 280 LINE",
"628 280 LINE",
"628 520 LINE",
"565 520 LINE",
"585 412 LINE",
"583 412 LINE",
"542 484 OFFCURVE",
"446 532 OFFCURVE",
"345 532 CURVE SMOOTH",
"168 532 OFFCURVE",
"50 423 OFFCURVE",
"50 260 CURVE SMOOTH",
"50 96 OFFCURVE",
"170 -13 OFFCURVE",
"351 -13 CURVE SMOOTH",
"440 -13 OFFCURVE",
"533 31 OFFCURVE",
"583 98 CURVE",
"585 98 LINE",
"580 -22 LINE SMOOTH",
"576 -123 OFFCURVE",
"484 -191 OFFCURVE",
"349 -191 CURVE SMOOTH",
"225 -191 OFFCURVE",
"131 -139 OFFCURVE",
"115 -61 CURVE",
"67 -61 LINE",
"86 -164 OFFCURVE",
"198 -233 OFFCURVE",
"348 -233 CURVE SMOOTH",
"516 -233 OFFCURVE",
"628 -144 OFFCURVE",
"628 -11 CURVE SMOOTH"
);
},
{
closed = 1;
nodes = (
"98 398 OFFCURVE",
"197 490 OFFCURVE",
"346 490 CURVE SMOOTH",
"480 490 OFFCURVE",
"571 406 OFFCURVE",
"578 278 CURVE",
"504 283 LINE",
"504 238 LINE",
"578 238 LINE",
"569 111 OFFCURVE",
"478 29 OFFCURVE",
"346 29 CURVE SMOOTH",
"197 29 OFFCURVE",
"98 121 OFFCURVE",
"98 260 CURVE SMOOTH"
);
}
);
width = 764;
},
{
layerId = m002;
paths = (
{
closed = 1;
nodes = (
"712 199 LINE",
"782 199 LINE",
"782 319 LINE",
"712 319 LINE",
"712 520 LINE",
"506 520 LINE",
"526 490 LINE",
"522 490 LINE",
"490 516 OFFCURVE",
"432 532 OFFCURVE",
"366 532 CURVE SMOOTH",
"155 532 OFFCURVE",
"30 431 OFFCURVE",
"30 260 CURVE SMOOTH",
"30 88 OFFCURVE",
"149 -13 OFFCURVE",
"351 -13 CURVE SMOOTH",
"436 -13 OFFCURVE",
"501 7 OFFCURVE",
"527 42 CURVE",
"529 42 LINE",
"529 -10 LINE SMOOTH",
"529 -64 OFFCURVE",
"478 -96 OFFCURVE",
"393 -96 CURVE SMOOTH",
"302 -96 OFFCURVE",
"249 -67 OFFCURVE",
"249 -19 CURVE",
"51 -19 LINE",
"51 -154 OFFCURVE",
"176 -233 OFFCURVE",
"388 -233 CURVE SMOOTH",
"592 -233 OFFCURVE",
"712 -151 OFFCURVE",
"712 -13 CURVE SMOOTH"
);
},
{
closed = 1;
nodes = (
"238 335 OFFCURVE",
"292 379 OFFCURVE",
"383 379 CURVE SMOOTH",
"441 379 OFFCURVE",
"482 357 OFFCURVE",
"501 317 CURVE",
"418 322 LINE",
"418 199 LINE",
"500 199 LINE",
"480 161 OFFCURVE",
"440 139 OFFCURVE",
"383 139 CURVE SMOOTH",
"292 139 OFFCURVE",
"238 184 OFFCURVE",
"238 260 CURVE SMOOTH"
);
}
);
width = 832;
}
);
leftKerningGroup = o;
leftMetricsKey = g;
rightKerningGroup = g;
rightMetricsKey = g;
unicode = 01E5;
},
{
glyphname = h;
lastChange = "2025-09-12 17:23:24 +0000";
layers = (
{
anchors = (
{
name = Bottom;
position = "{305, 0}";
},
{
name = Top;
position = "{84, 736}";
}
);
layerId = "FD4D3FDD-DE85-408F-A52A-FF600B1C6101";
paths = (
{
closed = 1;
nodes = (
"108 285 LINE SMOOTH",
"108 414 OFFCURVE",
"185 490 OFFCURVE",
"315 490 CURVE SMOOTH",
"432 490 OFFCURVE",
"501 430 OFFCURVE",
"501 328 CURVE SMOOTH",
"501 0 LINE",
"549 0 LINE",
"549 333 LINE SMOOTH",
"549 458 OFFCURVE",
"464 532 OFFCURVE",
"320 532 CURVE SMOOTH",
"212 532 OFFCURVE",
"132 493 OFFCURVE",
"105 427 CURVE",
"103 427 LINE",
"113 520 LINE",
"113 736 LINE",
"60 736 LINE",
"60 0 LINE",
"108 0 LINE"
);
}
);
width = 609;
},
{
anchors = (
{
name = Bottom;
position = "{372, 0}";
},
{
name = Top;
position = "{145, 736}";
}
);
layerId = m002;
paths = (
{
closed = 1;
nodes = (
"248 268 LINE SMOOTH",
"248 329 OFFCURVE",
"298 370 OFFCURVE",
"372 370 CURVE SMOOTH",
"446 370 OFFCURVE",
"495 329 OFFCURVE",
"495 268 CURVE SMOOTH",
"495 0 LINE",
"693 0 LINE",
"693 333 LINE SMOOTH",
"693 452 OFFCURVE",
"587 532 OFFCURVE",
"428 532 CURVE SMOOTH",
"335 532 OFFCURVE",
"257 510 OFFCURVE",
"232 477 CURVE",
"228 477 LINE",
"248 520 LINE",
"248 736 LINE",
"50 736 LINE",
"50 0 LINE",
"248 0 LINE"
);
}
);
width = 743;
}
);
leftKerningGroup = h;
leftMetricsKey = n;
rightKerningGroup = n;
rightMetricsKey = n;
unicode = 0068;
},
{
color = 10;
glyphname = hbar;
lastChange = "2025-09-11 23:34:06 +0000";
layers = (
{
layerId = "FD4D3FDD-DE85-408F-A52A-FF600B1C6101";
paths = (
{
closed = 1;
nodes = (
"201 285 LINE SMOOTH",
"201 414 OFFCURVE",
"278 490 OFFCURVE",
"408 490 CURVE SMOOTH",
"525 490 OFFCURVE",
"594 430 OFFCURVE",
"594 328 CURVE SMOOTH",
"594 0 LINE",
"642 0 LINE",
"642 333 LINE SMOOTH",
"642 458 OFFCURVE",
"557 532 OFFCURVE",
"413 532 CURVE SMOOTH",
"305 532 OFFCURVE",
"225 493 OFFCURVE",
"198 427 CURVE",
"196 427 LINE",
"206 520 LINE",
"206 619 LINE",
"335 619 LINE",
"335 661 LINE",
"206 661 LINE",
"206 736 LINE",
"153 736 LINE",
"153 659 LINE",
"60 664 LINE",
"60 619 LINE",
"153 619 LINE",
"153 0 LINE",
"201 0 LINE"
);
}
);
width = 702;
},
{
layerId = m002;
paths = (
{
closed = 1;
nodes = (
"324 268 LINE SMOOTH",
"324 329 OFFCURVE",
"374 370 OFFCURVE",
"448 370 CURVE SMOOTH",
"522 370 OFFCURVE",
"571 329 OFFCURVE",
"571 268 CURVE SMOOTH",
"571 0 LINE",
"769 0 LINE",
"769 333 LINE SMOOTH",
"769 452 OFFCURVE",
"663 532 OFFCURVE",
"504 532 CURVE SMOOTH",
"411 532 OFFCURVE",
"333 510 OFFCURVE",
"308 477 CURVE",
"304 477 LINE",
"324 520 LINE",
"324 587 LINE",
"395 587 LINE",
"395 687 LINE",
"324 687 LINE",
"324 736 LINE",
"126 736 LINE",
"126 685 LINE",
"50 690 LINE",
"50 587 LINE",
"126 587 LINE",
"126 0 LINE",
"324 0 LINE"
);
}
);
width = 819;
}
);
leftKerningGroup = hbar;
leftMetricsKey = n;
rightKerningGroup = n;
rightMetricsKey = n;
unicode = 0127;
},
{
color = 10;
glyphname = idotless;
lastChange = "2025-09-12 05:03:13 +0000";
layers = (
{
anchors = (
{
name = Bottom;
position = "{84, 0}";
},
{
name = Top;
position = "{84, 520}";
}
);
layerId = "FD4D3FDD-DE85-408F-A52A-FF600B1C6101";
paths = (
{
closed = 1;
nodes = (
"60 520 LINE",
"60 0 LINE",
"108 0 LINE",
"108 520 LINE"
);
}
);
width = 168;
},
{
anchors = (
{
name = Bottom;
position = "{149, 0}";
},
{
name = Top;
position = "{149, 520}";
}
);
layerId = m002;
paths = (
{
closed = 1;
nodes = (
"50 520 LINE",
"50 0 LINE",
"248 0 LINE",
"248 520 LINE"
);
}
);
width = 298;
}
);
leftKerningGroup = i;
leftMetricsKey = n;
rightKerningGroup = i;
rightMetricsKey = n;
unicode = 0131;
},
{
color = 10;
glyphname = ij;
lastChange = "2025-09-12 05:01:18 +0000";
layers = (
{
layerId = "FD4D3FDD-DE85-408F-A52A-FF600B1C6101";
paths = (
{
closed = 1;
nodes = (
"80 -171 OFFCURVE",
"189 -233 OFFCURVE",
"332 -233 CURVE SMOOTH",
"497 -233 OFFCURVE",
"607 -144 OFFCURVE",
"607 -11 CURVE SMOOTH",
"607 520 LINE",
"559 520 LINE",
"559 185 LINE SMOOTH",
"559 91 OFFCURVE",
"469 29 OFFCURVE",
"333 29 CURVE SMOOTH",
"210 29 OFFCURVE",
"128 89 OFFCURVE",
"128 179 CURVE SMOOTH",
"128 520 LINE",
"80 520 LINE",
"80 167 LINE SMOOTH",
"80 59 OFFCURVE",
"181 -13 OFFCURVE",
"333 -13 CURVE SMOOTH",
"442 -13 OFFCURVE",
"531 23 OFFCURVE",
"557 78 CURVE",
"559 78 LINE",
"559 -22 LINE SMOOTH",
"559 -123 OFFCURVE",
"470 -191 OFFCURVE",
"336 -191 CURVE SMOOTH",
"214 -191 OFFCURVE",
"123 -146 OFFCURVE",
"108 -79 CURVE",
"60 -79 LINE"
);
},
{
closed = 1;
nodes = (
"607 567 LINE",
"607 649 LINE",
"559 649 LINE",
"559 567 LINE"
);
},
{
closed = 1;
nodes = (
"128 567 LINE",
"128 649 LINE",
"80 649 LINE",
"80 567 LINE"
);
}
);
width = 667;
},
{
layerId = m002;
paths = (
{
closed = 1;
nodes = (
"50 -155 OFFCURVE",
"181 -233 OFFCURVE",
"377 -233 CURVE SMOOTH",
"583 -233 OFFCURVE",
"721 -141 OFFCURVE",
"721 -3 CURVE SMOOTH",
"721 520 LINE",
"523 520 LINE",
"523 248 LINE SMOOTH",
"523 189 OFFCURVE",
"472 150 OFFCURVE",
"395 150 CURVE SMOOTH",
"319 150 OFFCURVE",
"269 189 OFFCURVE",
"269 248 CURVE SMOOTH",
"269 520 LINE",
"71 520 LINE",
"71 180 LINE SMOOTH",
"71 65 OFFCURVE",
"179 -12 OFFCURVE",
"340 -12 CURVE SMOOTH",
"426 -12 OFFCURVE",
"500 6 OFFCURVE",
"526 33 CURVE",
"529 33 LINE",
"526 -10 LINE SMOOTH",
"522 -62 OFFCURVE",
"464 -96 OFFCURVE",
"382 -96 CURVE SMOOTH",
"302 -96 OFFCURVE",
"248 -73 OFFCURVE",
"248 -39 CURVE",
"50 -39 LINE"
);
},
{
closed = 1;
nodes = (
"269 567 LINE",
"269 717 LINE",
"71 717 LINE",
"71 567 LINE"
);
},
{
closed = 1;
nodes = (
"721 567 LINE",
"721 717 LINE",
"523 717 LINE",
"523 567 LINE"
);
}
);
width = 771;
}
);
leftKerningGroup = ij;
leftMetricsKey = u;
rightKerningGroup = ij;
rightMetricsKey = jdotless;
unicode = 0133;
},
{
color = 10;
glyphname = "iota-latin";
lastChange = "2025-09-16 16:48:52 +0000";
layers = (
{
layerId = "FD4D3FDD-DE85-408F-A52A-FF600B1C6101";
paths = (
{
closed = 1;
nodes = (
"60 27 OFFCURVE",
"99 -11 OFFCURVE",
"164 -11 CURVE SMOOTH",
"180 -11 OFFCURVE",
"196 -7 OFFCURVE",
"209 -1 CURVE",
"209 41 LINE",
"199 34 OFFCURVE",
"182 30 OFFCURVE",
"163 30 CURVE SMOOTH",
"128 30 OFFCURVE",
"108 53 OFFCURVE",
"108 91 CURVE SMOOTH",
"108 520 LINE",
"60 520 LINE",
"60 91 LINE SMOOTH"
);
}
);
width = 269;
},
{
layerId = m002;
paths = (
{
closed = 1;
nodes = (
"50 55 OFFCURVE",
"135 -13 OFFCURVE",
"280 -13 CURVE SMOOTH",
"306 -13 OFFCURVE",
"333 -8 OFFCURVE",
"351 0 CURVE",
"351 160 LINE",
"333 151 OFFCURVE",
"310 146 OFFCURVE",
"289 146 CURVE SMOOTH",
"263 146 OFFCURVE",
"248 163 OFFCURVE",
"248 191 CURVE SMOOTH",
"248 520 LINE",
"50 520 LINE",
"50 171 LINE SMOOTH"
);
}
);
width = 401;
}
);
leftKerningGroup = iota;
leftMetricsKey = i;
rightKerningGroup = iota;
rightMetricsKey = i;
unicode = 0269;
},
{
color = 10;
glyphname = istroke;
lastChange = "2025-09-16 16:48:42 +0000";
layers = (
{
components = (
{
name = idotless;
transform = "{1, 0, 0, 1, 77, 0}";
},
{
name = dotaccentcomb;
transform = "{1, 0, 0, 1, 107, 0}";
}
);
layerId = "FD4D3FDD-DE85-408F-A52A-FF600B1C6101";
paths = (
{
closed = 1;
nodes = (
"260 251 LINE",
"260 293 LINE",
"181 293 LINE",
"139 291 LINE",
"60 296 LINE",
"60 251 LINE"
);
}
);
width = 320;
},
{
components = (
{
name = idotless;
transform = "{1, 0, 0, 1, 82, 0}";
},
{
name = dotaccentcomb;
transform = "{1, 0, 0, 1, 112, 0}";
}
);
layerId = m002;
paths = (
{
closed = 1;
nodes = (
"414 209 LINE",
"414 329 LINE",
"326 329 LINE",
"138 327 LINE",
"50 332 LINE",
"50 209 LINE"
);
}
);
width = 464;
}
);
leftKerningGroup = i;
leftMetricsKey = i;
rightKerningGroup = i;
rightMetricsKey = i;
unicode = 0268;
},
{
color = 10;
glyphname = jdotless;
lastChange = "2025-09-11 23:34:13 +0000";
layers = (
{
anchors = (
{
name = Top;
position = "{212, 520}";
}
);
hints = (
{
horizontal = 1;
place = "{520, 0}";
type = Stem;
}
);
layerId = "FD4D3FDD-DE85-408F-A52A-FF600B1C6101";
paths = (
{
closed = 1;
nodes = (
"236 520 LINE",
"188 520 LINE",
"188 -70 LINE SMOOTH",
"188 -147 OFFCURVE",
"144 -192 OFFCURVE",
"69 -192 CURVE SMOOTH",
"50 -192 OFFCURVE",
"32 -191 OFFCURVE",
"20 -188 CURVE",
"20 -230 LINE",
"35 -232 OFFCURVE",
"53 -233 OFFCURVE",
"68 -233 CURVE SMOOTH",
"174 -233 OFFCURVE",
"236 -172 OFFCURVE",
"236 -70 CURVE SMOOTH"
);
}
);
width = 296;
},
{
anchors = (
{
name = Top;
position = "{212, 520}";
}
);
hints = (
{
horizontal = 1;
place = "{520, 0}";
type = Stem;
}
);
layerId = m002;
paths = (
{
closed = 1;
nodes = (
"311 520 LINE",
"113 520 LINE",
"113 -12 LINE SMOOTH",
"113 -51 OFFCURVE",
"97 -74 OFFCURVE",
"69 -74 CURVE SMOOTH",
"51 -74 OFFCURVE",
"33 -73 OFFCURVE",
"20 -70 CURVE",
"20 -230 LINE",
"31 -232 OFFCURVE",
"49 -233 OFFCURVE",
"68 -233 CURVE SMOOTH",
"221 -233 OFFCURVE",
"311 -150 OFFCURVE",
"311 -10 CURVE SMOOTH"
);
}
);
width = 361;
}
);
leftKerningGroup = j;
rightKerningGroup = j;
rightMetricsKey = n;
unicode = 0237;
},
{
glyphname = k;
lastChange = "2025-09-12 17:25:06 +0000";
layers = (
{
anchors = (
{
name = Bottom;
position = "{286, 0}";
},
{
name = Top;
position = "{252, 520}";
}
);
layerId = "FD4D3FDD-DE85-408F-A52A-FF600B1C6101";
paths = (
{
closed = 1;
nodes = (
"60 0 LINE",
"108 0 LINE",
"108 185 LINE",
"224 277 LINE",
"474 0 LINE",
"542 0 LINE",
"263 308 LINE",
"530 520 LINE",
"457 520 LINE",
"110 251 LINE",
"108 251 LINE",
"108 736 LINE",
"60 736 LINE"
);
}
);
width = 582;
},
{
anchors = (
{
name = Bottom;
position = "{340, 0}";
},
{
name = Top;
position = "{302, 520}";
}
);
layerId = m002;
paths = (
{
closed = 1;
nodes = (
"50 0 LINE",
"248 0 LINE",
"248 146 LINE",
"319 207 LINE",
"475 0 LINE",
"689 0 LINE",
"455 323 LINE",
"686 520 LINE",
"430 520 LINE",
"250 380 LINE",
"248 380 LINE",
"248 736 LINE",
"50 736 LINE"
);
}
);
width = 719;
}
);
leftKerningGroup = h;
leftMetricsKey = n;
rightKerningGroup = k;
unicode = 006B;
},
{
color = 10;
glyphname = kgreenlandic;
lastChange = "2025-09-12 05:01:20 +0000";
layers = (
{
layerId = "FD4D3FDD-DE85-408F-A52A-FF600B1C6101";
paths = (
{
closed = 1;
nodes = (
"60 0 LINE",
"108 0 LINE",
"108 272 LINE",
"110 272 LINE",
"430 0 LINE",
"508 0 LINE",
"176 280 LINE",
"512 520 LINE",
"435 520 LINE",
"111 289 LINE",
"108 289 LINE",
"108 520 LINE",
"60 520 LINE"
);
}
);
width = 552;
},
{
layerId = m002;
paths = (
{
closed = 1;
nodes = (
"50 0 LINE",
"248 0 LINE",
"248 218 LINE",
"251 218 LINE",
"489 0 LINE",
"724 0 LINE",
"421 278 LINE",
"729 520 LINE",
"489 520 LINE",
"250 334 LINE",
"248 334 LINE",
"248 520 LINE",
"50 520 LINE"
);
}
);
width = 759;
}
);
leftKerningGroup = n;
leftMetricsKey = k;
rightKerningGroup = k;
rightMetricsKey = k;
unicode = 0138;
},
{
glyphname = l;
lastChange = "2025-09-12 18:09:36 +0000";
layers = (
{
anchors = (
{
name = Bottom;
position = "{84, 0}";
},
{
name = Caron;
position = "{186, 560}";
},
{
name = Top;
position = "{84, 736}";
},
{
name = Top_EC;
position = "{175, 570}";
}
);
layerId = "FD4D3FDD-DE85-408F-A52A-FF600B1C6101";
paths = (
{
closed = 1;
nodes = (
"60 0 LINE",
"108 0 LINE",
"108 736 LINE",
"60 736 LINE"
);
}
);
width = 168;
},
{
anchors = (
{
name = Bottom;
position = "{149, 0}";
},
{
name = Caron;
position = "{366, 560}";
},
{
name = Top;
position = "{149, 736}";
},
{
name = Top_EC;
position = "{366, 570}";
}
);
layerId = m002;
paths = (
{
closed = 1;
nodes = (
"50 0 LINE",
"248 0 LINE",
"248 736 LINE",
"50 736 LINE"
);
}
);
width = 298;
}
);
leftKerningGroup = h;
leftMetricsKey = n;
rightKerningGroup = l;
rightMetricsKey = n;
unicode = 006C;
},
{
color = 10;
glyphname = lambdastroke;
lastChange = "2025-09-12 05:01:22 +0000";
layers = (
{
layerId = "FD4D3FDD-DE85-408F-A52A-FF600B1C6101";
paths = (
{
closed = 1;
nodes = (
"317 446 LINE",
"319 446 LINE",
"465 125 LINE SMOOTH",
"506 34 OFFCURVE",
"554 -13 OFFCURVE",
"629 -13 CURVE SMOOTH",
"645 -13 OFFCURVE",
"663 -10 OFFCURVE",
"677 -5 CURVE",
"677 43 LINE",
"666 37 OFFCURVE",
"644 34 OFFCURVE",
"625 34 CURVE SMOOTH",
"577 34 OFFCURVE",
"542 66 OFFCURVE",
"515 125 CURVE SMOOTH",
"340 511 LINE",
"469 536 LINE",
"475 576 LINE",
"324 546 LINE",
"304 590 LINE SMOOTH",
"261 684 OFFCURVE",
"215 728 OFFCURVE",
"140 728 CURVE SMOOTH",
"124 728 OFFCURVE",
"106 725 OFFCURVE",
"92 720 CURVE",
"92 672 LINE",
"103 678 OFFCURVE",
"125 681 OFFCURVE",
"144 681 CURVE SMOOTH",
"192 681 OFFCURVE",
"227 649 OFFCURVE",
"254 590 CURVE SMOOTH",
"276 542 LINE",
"161 519 LINE",
"155 476 LINE",
"294 503 LINE",
"294 501 LINE",
"40 0 LINE",
"90 0 LINE"
);
}
);
width = 717;
},
{
layerId = m002;
paths = (
{
closed = 1;
nodes = (
"366 261 LINE",
"369 261 LINE",
"429 146 LINE SMOOTH",
"481 46 OFFCURVE",
"577 -13 OFFCURVE",
"686 -13 CURVE SMOOTH",
"711 -13 OFFCURVE",
"735 -10 OFFCURVE",
"751 -5 CURVE",
"751 155 LINE",
"739 149 OFFCURVE",
"711 146 OFFCURVE",
"675 146 CURVE SMOOTH",
"648 146 OFFCURVE",
"626 159 OFFCURVE",
"614 182 CURVE SMOOTH",
"429 537 LINE",
"524 555 LINE",
"530 595 LINE",
"411 571 LINE",
"410 573 LINE SMOOTH",
"361 671 OFFCURVE",
"263 727 OFFCURVE",
"156 727 CURVE SMOOTH",
"131 727 OFFCURVE",
"107 724 OFFCURVE",
"91 719 CURVE",
"121 559 LINE",
"133 565 OFFCURVE",
"151 568 OFFCURVE",
"167 568 CURVE SMOOTH",
"188 568 OFFCURVE",
"210 557 OFFCURVE",
"222 541 CURVE SMOOTH",
"225 537 LINE",
"122 519 LINE",
"116 476 LINE",
"243 501 LINE",
"265 459 LINE",
"40 0 LINE",
"238 0 LINE"
);
}
);
width = 791;
}
);
leftKerningGroup = A;
leftMetricsKey = A;
rightKerningGroup = A;
rightMetricsKey = A;
unicode = 019B;
},
{
color = 10;
glyphname = lbar;
lastChange = "2025-09-12 05:01:24 +0000";
layers = (
{
layerId = "FD4D3FDD-DE85-408F-A52A-FF600B1C6101";
paths = (
{
closed = 1;
nodes = (
"136 381 LINE",
"60 386 LINE",
"60 341 LINE",
"136 341 LINE",
"136 0 LINE",
"184 0 LINE",
"184 341 LINE",
"260 341 LINE",
"260 383 LINE",
"184 383 LINE",
"184 736 LINE",
"136 736 LINE"
);
}
);
width = 320;
},
{
layerId = m002;
paths = (
{
closed = 1;
nodes = (
"133 417 LINE",
"50 422 LINE",
"50 299 LINE",
"133 299 LINE",
"133 0 LINE",
"331 0 LINE",
"331 299 LINE",
"414 299 LINE",
"414 419 LINE",
"331 419 LINE",
"331 736 LINE",
"133 736 LINE"
);
}
);
width = 464;
}
);
leftKerningGroup = l;
leftMetricsKey = l;
rightKerningGroup = l;
rightMetricsKey = l;
unicode = 019A;
},
{
color = 10;
glyphname = lbelt;
lastChange = "2025-09-12 05:01:26 +0000";
layers = (
{
layerId = "FD4D3FDD-DE85-408F-A52A-FF600B1C6101";
paths = (
{
closed = 1;
nodes = (
"161 487 LINE",
"153 490 OFFCURVE",
"144 491 OFFCURVE",
"135 491 CURVE SMOOTH",
"90 491 OFFCURVE",
"60 463 OFFCURVE",
"60 421 CURVE SMOOTH",
"60 373 OFFCURVE",
"93 341 OFFCURVE",
"143 341 CURVE SMOOTH",
"161 341 LINE",
"161 0 LINE",
"209 0 LINE",
"209 341 LINE",
"289 341 LINE",
"289 383 LINE",
"209 383 LINE",
"209 736 LINE",
"161 736 LINE"
);
},
{
closed = 1;
nodes = (
"108 438 OFFCURVE",
"119 449 OFFCURVE",
"135 449 CURVE SMOOTH",
"151 449 OFFCURVE",
"161 438 OFFCURVE",
"161 421 CURVE SMOOTH",
"161 383 LINE",
"151 383 LINE SMOOTH",
"125 383 OFFCURVE",
"108 398 OFFCURVE",
"108 421 CURVE SMOOTH"
);
}
);
width = 349;
},
{
layerId = m002;
paths = (
{
closed = 1;
nodes = (
"155 489 LINE",
"149 490 OFFCURVE",
"142 491 OFFCURVE",
"135 491 CURVE SMOOTH",
"82 491 OFFCURVE",
"50 461 OFFCURVE",
"50 410 CURVE SMOOTH",
"50 355 OFFCURVE",
"85 323 OFFCURVE",
"144 323 CURVE SMOOTH",
"155 323 LINE",
"155 0 LINE",
"353 0 LINE",
"353 323 LINE",
"453 323 LINE",
"453 383 LINE",
"353 383 LINE",
"353 736 LINE",
"155 736 LINE"
);
},
{
closed = 1;
nodes = (
"110 432 OFFCURVE",
"119 441 OFFCURVE",
"133 441 CURVE SMOOTH",
"147 441 OFFCURVE",
"155 434 OFFCURVE",
"155 421 CURVE SMOOTH",
"155 383 LINE",
"145 383 LINE SMOOTH",
"123 383 OFFCURVE",
"110 396 OFFCURVE",
"110 418 CURVE SMOOTH"
);
}
);
width = 503;
}
);
leftKerningGroup = l;
leftMetricsKey = l;
rightKerningGroup = l;
rightMetricsKey = l;
unicode = 026C;
},
{
color = 10;
glyphname = lmiddletilde;
lastChange = "2025-09-12 05:01:29 +0000";
layers = (
{
layerId = "FD4D3FDD-DE85-408F-A52A-FF600B1C6101";
paths = (
{
closed = 1;
nodes = (
"233 0 LINE",
"233 324 LINE",
"245 321 OFFCURVE",
"258 318 OFFCURVE",
"272 318 CURVE SMOOTH",
"321 318 OFFCURVE",
"354 350 OFFCURVE",
"354 399 CURVE",
"306 399 LINE",
"306 376 OFFCURVE",
"292 361 OFFCURVE",
"272 361 CURVE SMOOTH",
"258 361 OFFCURVE",
"245 364 OFFCURVE",
"233 369 CURVE",
"233 736 LINE",
"185 736 LINE",
"185 390 LINE",
"172 394 OFFCURVE",
"158 398 OFFCURVE",
"142 398 CURVE SMOOTH",
"93 398 OFFCURVE",
"60 366 OFFCURVE",
"60 317 CURVE",
"108 317 LINE",
"108 340 OFFCURVE",
"122 355 OFFCURVE",
"142 355 CURVE SMOOTH",
"157 355 OFFCURVE",
"171 350 OFFCURVE",
"185 344 CURVE",
"185 0 LINE"
);
}
);
width = 414;
},
{
layerId = m002;
paths = (
{
closed = 1;
nodes = (
"391 0 LINE",
"391 345 LINE",
"405 344 OFFCURVE",
"415 343 OFFCURVE",
"422 343 CURVE SMOOTH",
"492 343 OFFCURVE",
"534 383 OFFCURVE",
"534 451 CURVE",
"429 451 LINE",
"429 438 OFFCURVE",
"421 431 OFFCURVE",
"407 431 CURVE SMOOTH",
"401 431 OFFCURVE",
"396 431 OFFCURVE",
"391 432 CURVE",
"391 736 LINE",
"193 736 LINE",
"193 453 LINE",
"182 454 OFFCURVE",
"173 455 OFFCURVE",
"164 455 CURVE SMOOTH",
"92 455 OFFCURVE",
"50 415 OFFCURVE",
"50 347 CURVE",
"155 347 LINE",
"155 360 OFFCURVE",
"163 368 OFFCURVE",
"177 368 CURVE SMOOTH",
"181 368 OFFCURVE",
"187 368 OFFCURVE",
"193 367 CURVE",
"193 0 LINE"
);
}
);
width = 584;
}
);
leftKerningGroup = l;
leftMetricsKey = l;
rightKerningGroup = l;
rightMetricsKey = l;
unicode = 026B;
},
{
color = 10;
glyphname = lslash;
lastChange = "2025-09-11 23:34:25 +0000";
layers = (
{
layerId = "FD4D3FDD-DE85-408F-A52A-FF600B1C6101";
paths = (
{
closed = 1;
nodes = (
"160 415 LINE",
"60 356 LINE",
"60 298 LINE",
"160 357 LINE",
"160 0 LINE",
"208 0 LINE",
"208 386 LINE",
"308 445 LINE",
"308 503 LINE",
"208 444 LINE",
"208 736 LINE",
"160 736 LINE"
);
}
);
width = 368;
},
{
layerId = m002;
paths = (
{
closed = 1;
nodes = (
"150 412 LINE",
"50 345 LINE",
"50 207 LINE",
"150 275 LINE",
"150 0 LINE",
"318 0 LINE",
"318 388 LINE",
"418 456 LINE",
"418 592 LINE",
"318 525 LINE",
"318 736 LINE",
"150 736 LINE"
);
}
);
width = 468;
}
);
leftKerningGroup = l;
leftMetricsKey = n;
rightKerningGroup = l;
rightMetricsKey = n;
unicode = 0142;
},
{
glyphname = m;
lastChange = "2025-09-12 17:24:16 +0000";
layers = (
{
anchors = (
{
name = Bottom;
position = "{514, 0}";
}
);
hints = (
{
horizontal = 1;
origin = "{0, 35}";
target = up;
type = BottomGhost;
}
);
layerId = "FD4D3FDD-DE85-408F-A52A-FF600B1C6101";
paths = (
{
closed = 1;
nodes = (
"108 293 LINE SMOOTH",
"108 411 OFFCURVE",
"189 490 OFFCURVE",
"310 490 CURVE SMOOTH",
"418 490 OFFCURVE",
"490 421 OFFCURVE",
"490 318 CURVE SMOOTH",
"490 0 LINE",
"538 0 LINE",
"538 323 LINE SMOOTH",
"538 423 OFFCURVE",
"618 490 OFFCURVE",
"737 490 CURVE SMOOTH",
"847 490 OFFCURVE",
"920 421 OFFCURVE",
"920 318 CURVE SMOOTH",
"920 0 LINE",
"968 0 LINE",
"968 323 LINE SMOOTH",
"968 448 OFFCURVE",
"878 532 OFFCURVE",
"742 532 CURVE SMOOTH",
"632 532 OFFCURVE",
"541 484 OFFCURVE",
"515 413 CURVE",
"513 413 LINE",
"482 484 OFFCURVE",
"403 532 OFFCURVE",
"315 532 CURVE SMOOTH",
"210 532 OFFCURVE",
"126 490 OFFCURVE",
"105 427 CURVE",
"103 427 LINE",
"113 520 LINE",
"60 520 LINE",
"60 0 LINE",
"108 0 LINE"
);
}
);
width = 1028;
},
{
anchors = (
{
name = Bottom;
position = "{565, 0}";
}
);
layerId = m002;
paths = (
{
closed = 1;
nodes = (
"248 276 LINE SMOOTH",
"248 332 OFFCURVE",
"292 370 OFFCURVE",
"357 370 CURVE SMOOTH",
"422 370 OFFCURVE",
"466 335 OFFCURVE",
"466 283 CURVE SMOOTH",
"466 0 LINE",
"664 0 LINE",
"664 276 LINE SMOOTH",
"664 332 OFFCURVE",
"708 370 OFFCURVE",
"773 370 CURVE SMOOTH",
"838 370 OFFCURVE",
"882 335 OFFCURVE",
"882 283 CURVE SMOOTH",
"882 0 LINE",
"1080 0 LINE",
"1080 313 LINE SMOOTH",
"1080 444 OFFCURVE",
"979 532 OFFCURVE",
"827 532 CURVE SMOOTH",
"737 532 OFFCURVE",
"654 506 OFFCURVE",
"619 467 CURVE",
"617 467 LINE",
"583 506 OFFCURVE",
"502 532 OFFCURVE",
"415 532 CURVE SMOOTH",
"341 532 OFFCURVE",
"265 506 OFFCURVE",
"225 467 CURVE",
"221 467 LINE",
"236 520 LINE",
"50 520 LINE",
"50 0 LINE",
"248 0 LINE"
);
}
);
width = 1130;
}
);
leftKerningGroup = n;
leftMetricsKey = n;
rightKerningGroup = n;
rightMetricsKey = n;
unicode = 006D;
},
{
glyphname = n;
lastChange = "2025-09-12 18:10:55 +0000";
layers = (
{
anchors = (
{
name = Bottom;
position = "{315, 0}";
},
{
name = Top;
position = "{330, 532}";
}
);
layerId = "FD4D3FDD-DE85-408F-A52A-FF600B1C6101";
paths = (
{
closed = 1;
nodes = (
"108 285 LINE SMOOTH",
"108 414 OFFCURVE",
"189 490 OFFCURVE",
"325 490 CURVE SMOOTH",
"448 490 OFFCURVE",
"521 430 OFFCURVE",
"521 328 CURVE SMOOTH",
"521 0 LINE",
"569 0 LINE",
"569 333 LINE SMOOTH",
"569 458 OFFCURVE",
"480 532 OFFCURVE",
"330 532 CURVE SMOOTH",
"221 532 OFFCURVE",
"137 491 OFFCURVE",
"105 422 CURVE",
"103 422 LINE",
"113 520 LINE",
"60 520 LINE",
"60 0 LINE",
"108 0 LINE"
);
}
);
width = 629;
},
{
anchors = (
{
name = Bottom;
position = "{372, 0}";
},
{
name = Top;
position = "{346, 532}";
}
);
layerId = m002;
paths = (
{
closed = 1;
nodes = (
"248 258 LINE SMOOTH",
"248 325 OFFCURVE",
"298 370 OFFCURVE",
"372 370 CURVE SMOOTH",
"446 370 OFFCURVE",
"495 325 OFFCURVE",
"495 258 CURVE SMOOTH",
"495 0 LINE",
"693 0 LINE",
"693 333 LINE SMOOTH",
"693 452 OFFCURVE",
"587 532 OFFCURVE",
"428 532 CURVE SMOOTH",
"335 532 OFFCURVE",
"257 510 OFFCURVE",
"232 477 CURVE",
"228 477 LINE",
"248 520 LINE",
"50 520 LINE",
"50 0 LINE",
"248 0 LINE"
);
}
);
width = 743;
}
);
leftKerningGroup = n;
rightKerningGroup = n;
unicode = 006E;
},
{
color = 10;
glyphname = eng;
lastChange = "2025-09-11 23:34:30 +0000";
layers = (
{
layerId = "FD4D3FDD-DE85-408F-A52A-FF600B1C6101";
paths = (
{
closed = 1;
nodes = (
"108 285 LINE SMOOTH",
"108 414 OFFCURVE",
"189 490 OFFCURVE",
"325 490 CURVE SMOOTH",
"448 490 OFFCURVE",
"521 430 OFFCURVE",
"521 328 CURVE SMOOTH",
"521 -70 LINE SMOOTH",
"521 -147 OFFCURVE",
"477 -192 OFFCURVE",
"402 -192 CURVE SMOOTH",
"383 -192 OFFCURVE",
"365 -191 OFFCURVE",
"353 -188 CURVE",
"353 -230 LINE",
"368 -232 OFFCURVE",
"386 -233 OFFCURVE",
"401 -233 CURVE SMOOTH",
"507 -233 OFFCURVE",
"569 -172 OFFCURVE",
"569 -70 CURVE SMOOTH",
"569 333 LINE SMOOTH",
"569 458 OFFCURVE",
"480 532 OFFCURVE",
"330 532 CURVE SMOOTH",
"221 532 OFFCURVE",
"137 491 OFFCURVE",
"105 422 CURVE",
"103 422 LINE",
"113 520 LINE",
"60 520 LINE",
"60 0 LINE",
"108 0 LINE"
);
}
);
width = 629;
},
{
layerId = m002;
paths = (
{
closed = 1;
nodes = (
"248 258 LINE SMOOTH",
"248 325 OFFCURVE",
"298 370 OFFCURVE",
"372 370 CURVE SMOOTH",
"446 370 OFFCURVE",
"495 325 OFFCURVE",
"495 258 CURVE SMOOTH",
"495 -12 LINE SMOOTH",
"495 -51 OFFCURVE",
"479 -74 OFFCURVE",
"451 -74 CURVE SMOOTH",
"433 -74 OFFCURVE",
"415 -73 OFFCURVE",
"402 -70 CURVE",
"402 -230 LINE",
"413 -232 OFFCURVE",
"431 -233 OFFCURVE",
"450 -233 CURVE SMOOTH",
"603 -233 OFFCURVE",
"693 -150 OFFCURVE",
"693 -10 CURVE SMOOTH",
"693 333 LINE SMOOTH",
"693 452 OFFCURVE",
"587 532 OFFCURVE",
"428 532 CURVE SMOOTH",
"335 532 OFFCURVE",
"257 510 OFFCURVE",
"232 477 CURVE",
"228 477 LINE",
"248 520 LINE",
"50 520 LINE",
"50 0 LINE",
"248 0 LINE"
);
}
);
width = 743;
}
);
leftKerningGroup = n;
leftMetricsKey = n;
rightKerningGroup = n;
rightMetricsKey = n;
unicode = 014B;
},
{
glyphname = o;
lastChange = "2025-09-12 18:08:02 +0000";
layers = (
{
anchors = (
{
name = Bottom;
position = "{342, 0}";
},
{
name = Top;
position = "{342, 532}";
}
);
layerId = "FD4D3FDD-DE85-408F-A52A-FF600B1C6101";
paths = (
{
closed = 1;
nodes = (
"167 532 OFFCURVE",
"50 423 OFFCURVE",
"50 259 CURVE SMOOTH",
"50 96 OFFCURVE",
"167 -13 OFFCURVE",
"342 -13 CURVE SMOOTH",
"518 -13 OFFCURVE",
"635 96 OFFCURVE",
"635 259 CURVE SMOOTH",
"635 423 OFFCURVE",
"518 532 OFFCURVE",
"342 532 CURVE SMOOTH"
);
},
{
closed = 1;
nodes = (
"98 398 OFFCURVE",
"196 490 OFFCURVE",
"342 490 CURVE SMOOTH",
"489 490 OFFCURVE",
"587 398 OFFCURVE",
"587 259 CURVE SMOOTH",
"587 121 OFFCURVE",
"489 29 OFFCURVE",
"342 29 CURVE SMOOTH",
"196 29 OFFCURVE",
"98 121 OFFCURVE",
"98 259 CURVE SMOOTH"
);
}
);
width = 685;
},
{
anchors = (
{
name = Bottom;
position = "{380, 0}";
},
{
name = Top;
position = "{376, 532}";
}
);
layerId = m002;
paths = (
{
closed = 1;
nodes = (
"158 532 OFFCURVE",
"30 431 OFFCURVE",
"30 259 CURVE SMOOTH",
"30 88 OFFCURVE",
"158 -13 OFFCURVE",
"375 -13 CURVE SMOOTH",
"592 -13 OFFCURVE",
"721 88 OFFCURVE",
"721 259 CURVE SMOOTH",
"721 431 OFFCURVE",
"592 532 OFFCURVE",
"375 532 CURVE SMOOTH"
);
},
{
closed = 1;
nodes = (
"238 335 OFFCURVE",
"289 380 OFFCURVE",
"375 380 CURVE SMOOTH",
"462 380 OFFCURVE",
"513 335 OFFCURVE",
"513 259 CURVE SMOOTH",
"513 184 OFFCURVE",
"462 139 OFFCURVE",
"375 139 CURVE SMOOTH",
"289 139 OFFCURVE",
"238 184 OFFCURVE",
"238 259 CURVE SMOOTH"
);
}
);
width = 751;
}
);
leftKerningGroup = o;
rightKerningGroup = o;
unicode = 006F;
},
{
color = 10;
glyphname = oopen;
lastChange = "2025-09-11 23:34:32 +0000";
layers = (
{
layerId = "FD4D3FDD-DE85-408F-A52A-FF600B1C6101";
paths = (
{
closed = 1;
nodes = (
"50 437 LINE",
"84 469 OFFCURVE",
"159 490 OFFCURVE",
"238 490 CURVE SMOOTH",
"366 490 OFFCURVE",
"451 398 OFFCURVE",
"451 260 CURVE SMOOTH",
"451 121 OFFCURVE",
"364 29 OFFCURVE",
"234 29 CURVE SMOOTH",
"157 29 OFFCURVE",
"83 50 OFFCURVE",
"50 81 CURVE",
"50 33 LINE",
"81 5 OFFCURVE",
"154 -13 OFFCURVE",
"234 -13 CURVE SMOOTH",
"393 -13 OFFCURVE",
"499 96 OFFCURVE",
"499 260 CURVE SMOOTH",
"499 423 OFFCURVE",
"395 532 OFFCURVE",
"238 532 CURVE SMOOTH",
"160 532 OFFCURVE",
"85 514 OFFCURVE",
"50 488 CURVE"
);
}
);
width = 549;
},
{
layerId = m002;
paths = (
{
closed = 1;
nodes = (
"30 342 LINE",
"50 360 OFFCURVE",
"96 370 OFFCURVE",
"156 370 CURVE SMOOTH",
"259 370 OFFCURVE",
"320 329 OFFCURVE",
"320 260 CURVE SMOOTH",
"320 190 OFFCURVE",
"264 149 OFFCURVE",
"168 149 CURVE SMOOTH",
"107 149 OFFCURVE",
"56 156 OFFCURVE",
"30 167 CURVE",
"30 2 LINE",
"72 -7 OFFCURVE",
"131 -13 OFFCURVE",
"188 -13 CURVE SMOOTH",
"402 -13 OFFCURVE",
"528 88 OFFCURVE",
"528 260 CURVE SMOOTH",
"528 431 OFFCURVE",
"399 532 OFFCURVE",
"181 532 CURVE SMOOTH",
"125 532 OFFCURVE",
"69 526 OFFCURVE",
"30 515 CURVE"
);
}
);
width = 558;
}
);
leftKerningGroup = o;
leftMetricsKey = o;
rightKerningGroup = o;
rightMetricsKey = o;
unicode = 0254;
},
{
color = 10;
glyphname = oslash;
lastChange = "2025-09-11 23:34:34 +0000";
layers = (
{
anchors = (
{
name = Top;
position = "{342, 532}";
}
);
layerId = "FD4D3FDD-DE85-408F-A52A-FF600B1C6101";
paths = (
{
closed = 1;
nodes = (
"167 532 OFFCURVE",
"50 423 OFFCURVE",
"50 259 CURVE SMOOTH",
"50 136 OFFCURVE",
"117 43 OFFCURVE",
"225 6 CURVE",
"205 -50 LINE",
"258 -50 LINE",
"274 -7 LINE",
"295 -11 OFFCURVE",
"318 -13 OFFCURVE",
"342 -13 CURVE SMOOTH",
"518 -13 OFFCURVE",
"635 96 OFFCURVE",
"635 259 CURVE SMOOTH",
"635 382 OFFCURVE",
"570 473 OFFCURVE",
"463 512 CURVE",
"480 558 LINE",
"427 558 LINE",
"415 525 LINE",
"392 530 OFFCURVE",
"368 532 OFFCURVE",
"342 532 CURVE SMOOTH"
);
},
{
closed = 1;
nodes = (
"98 398 OFFCURVE",
"196 490 OFFCURVE",
"342 490 CURVE SMOOTH",
"362 490 OFFCURVE",
"382 488 OFFCURVE",
"400 485 CURVE",
"240 46 LINE",
"152 79 OFFCURVE",
"98 156 OFFCURVE",
"98 259 CURVE SMOOTH"
);
},
{
closed = 1;
nodes = (
"448 471 LINE",
"534 438 OFFCURVE",
"587 361 OFFCURVE",
"587 259 CURVE SMOOTH",
"587 121 OFFCURVE",
"489 29 OFFCURVE",
"342 29 CURVE SMOOTH",
"323 29 OFFCURVE",
"305 31 OFFCURVE",
"288 33 CURVE"
);
}
);
width = 685;
},
{
anchors = (
{
name = Top;
position = "{375, 532}";
}
);
layerId = m002;
paths = (
{
closed = 1;
nodes = (
"158 532 OFFCURVE",
"30 431 OFFCURVE",
"30 259 CURVE SMOOTH",
"30 127 OFFCURVE",
"106 37 OFFCURVE",
"240 3 CURVE",
"221 -50 LINE",
"308 -50 LINE",
"322 -11 LINE",
"339 -12 OFFCURVE",
"357 -13 OFFCURVE",
"375 -13 CURVE SMOOTH",
"592 -13 OFFCURVE",
"721 88 OFFCURVE",
"721 259 CURVE SMOOTH",
"721 390 OFFCURVE",
"646 480 OFFCURVE",
"514 515 CURVE",
"530 558 LINE",
"443 558 LINE",
"433 529 LINE",
"414 531 OFFCURVE",
"395 532 OFFCURVE",
"375 532 CURVE SMOOTH"
);
},
{
closed = 1;
nodes = (
"238 335 OFFCURVE",
"288 380 OFFCURVE",
"374 380 CURVE SMOOTH",
"375 380 OFFCURVE",
"377 380 OFFCURVE",
"378 380 CURVE",
"296 156 LINE",
"259 175 OFFCURVE",
"238 211 OFFCURVE",
"238 259 CURVE SMOOTH"
);
},
{
closed = 1;
nodes = (
"458 361 LINE",
"494 341 OFFCURVE",
"513 306 OFFCURVE",
"513 259 CURVE SMOOTH",
"513 186 OFFCURVE",
"464 141 OFFCURVE",
"379 139 CURVE SMOOTH",
"378 139 OFFCURVE",
"378 139 OFFCURVE",
"377 139 CURVE"
);
}
);
width = 751;
}
);
leftKerningGroup = o;
leftMetricsKey = o;
rightKerningGroup = o;
rightMetricsKey = o;
unicode = 00F8;
},
{
color = 10;
glyphname = oe;
lastChange = "2025-09-11 23:34:37 +0000";
layers = (
{
layerId = "FD4D3FDD-DE85-408F-A52A-FF600B1C6101";
paths = (
{
closed = 1;
nodes = (
"167 532 OFFCURVE",
"50 423 OFFCURVE",
"50 259 CURVE SMOOTH",
"50 96 OFFCURVE",
"167 -13 OFFCURVE",
"342 -13 CURVE SMOOTH",
"471 -13 OFFCURVE",
"569 46 OFFCURVE",
"611 142 CURVE",
"654 46 OFFCURVE",
"751 -13 OFFCURVE",
"879 -13 CURVE SMOOTH",
"1024 -13 OFFCURVE",
"1134 56 OFFCURVE",
"1153 159 CURVE",
"1105 159 LINE",
"1089 81 OFFCURVE",
"999 29 OFFCURVE",
"880 29 CURVE SMOOTH",
"735 29 OFFCURVE",
"638 120 OFFCURVE",
"635 256 CURVE",
"1158 256 LINE",
"1158 298 LINE SMOOTH",
"1158 438 OFFCURVE",
"1044 532 OFFCURVE",
"872 532 CURVE SMOOTH",
"747 532 OFFCURVE",
"652 474 OFFCURVE",
"610 379 CURVE",
"567 474 OFFCURVE",
"470 532 OFFCURVE",
"342 532 CURVE SMOOTH"
);
},
{
closed = 1;
nodes = (
"98 398 OFFCURVE",
"196 490 OFFCURVE",
"342 490 CURVE SMOOTH",
"489 490 OFFCURVE",
"587 398 OFFCURVE",
"587 259 CURVE SMOOTH",
"587 121 OFFCURVE",
"489 29 OFFCURVE",
"342 29 CURVE SMOOTH",
"196 29 OFFCURVE",
"98 121 OFFCURVE",
"98 259 CURVE SMOOTH"
);
},
{
closed = 1;
nodes = (
"654 414 OFFCURVE",
"744 490 OFFCURVE",
"873 490 CURVE SMOOTH",
"1015 490 OFFCURVE",
"1110 413 OFFCURVE",
"1110 298 CURVE",
"638 298 LINE"
);
}
);
width = 1208;
},
{
layerId = m002;
paths = (
{
closed = 1;
nodes = (
"158 532 OFFCURVE",
"30 431 OFFCURVE",
"30 259 CURVE SMOOTH",
"30 88 OFFCURVE",
"158 -13 OFFCURVE",
"375 -13 CURVE SMOOTH",
"512 -13 OFFCURVE",
"615 27 OFFCURVE",
"671 101 CURVE",
"728 27 OFFCURVE",
"833 -13 OFFCURVE",
"974 -13 CURVE SMOOTH",
"1159 -13 OFFCURVE",
"1283 57 OFFCURVE",
"1307 175 CURVE",
"1109 175 LINE",
"1101 143 OFFCURVE",
"1052 124 OFFCURVE",
"977 124 CURVE SMOOTH",
"903 124 OFFCURVE",
"855 157 OFFCURVE",
"839 214 CURVE",
"1302 214 LINE",
"1302 263 LINE SMOOTH",
"1302 432 OFFCURVE",
"1178 532 OFFCURVE",
"969 532 CURVE SMOOTH",
"831 532 OFFCURVE",
"728 492 OFFCURVE",
"671 418 CURVE",
"614 492 OFFCURVE",
"512 532 OFFCURVE",
"375 532 CURVE SMOOTH"
);
},
{
closed = 1;
nodes = (
"238 335 OFFCURVE",
"289 380 OFFCURVE",
"375 380 CURVE SMOOTH",
"462 380 OFFCURVE",
"513 335 OFFCURVE",
"513 259 CURVE SMOOTH",
"513 184 OFFCURVE",
"462 139 OFFCURVE",
"375 139 CURVE SMOOTH",
"289 139 OFFCURVE",
"238 184 OFFCURVE",
"238 259 CURVE SMOOTH"
);
},
{
closed = 1;
nodes = (
"859 366 OFFCURVE",
"904 395 OFFCURVE",
"969 395 CURVE SMOOTH",
"1035 395 OFFCURVE",
"1078 366 OFFCURVE",
"1090 315 CURVE",
"842 314 LINE"
);
}
);
width = 1337;
}
);
leftKerningGroup = o;
leftMetricsKey = o;
rightKerningGroup = o;
rightMetricsKey = e;
unicode = 0153;
},
{
glyphname = p;
lastChange = "2025-09-11 23:34:39 +0000";
layers = (
{
anchors = (
{
name = Top;
position = "{343, 532}";
}
);
layerId = "FD4D3FDD-DE85-408F-A52A-FF600B1C6101";
paths = (
{
closed = 1;
nodes = (
"249 532 OFFCURVE",
"156 489 OFFCURVE",
"110 422 CURVE",
"108 422 LINE",
"123 520 LINE",
"60 520 LINE",
"60 -216 LINE",
"108 -216 LINE",
"108 0 LINE",
"103 108 LINE",
"105 108 LINE",
"149 36 OFFCURVE",
"250 -13 OFFCURVE",
"358 -13 CURVE SMOOTH",
"526 -13 OFFCURVE",
"638 95 OFFCURVE",
"638 258 CURVE SMOOTH",
"638 422 OFFCURVE",
"520 532 OFFCURVE",
"343 532 CURVE SMOOTH"
);
},
{
closed = 1;
nodes = (
"108 398 OFFCURVE",
"202 490 OFFCURVE",
"343 490 CURVE SMOOTH",
"491 490 OFFCURVE",
"590 397 OFFCURVE",
"590 258 CURVE SMOOTH",
"590 121 OFFCURVE",
"495 29 OFFCURVE",
"352 29 CURVE SMOOTH",
"206 29 OFFCURVE",
"108 122 OFFCURVE",
"108 259 CURVE SMOOTH"
);
}
);
width = 688;
},
{
anchors = (
{
name = Top;
position = "{393, 532}";
}
);
layerId = m002;
paths = (
{
closed = 1;
nodes = (
"337 532 OFFCURVE",
"270 514 OFFCURVE",
"240 483 CURVE",
"236 483 LINE",
"256 520 LINE",
"50 520 LINE",
"50 -216 LINE",
"248 -216 LINE",
"248 -29 LINE",
"243 23 LINE",
"245 23 LINE",
"283 1 OFFCURVE",
"346 -13 OFFCURVE",
"415 -13 CURVE SMOOTH",
"614 -13 OFFCURVE",
"732 88 OFFCURVE",
"732 258 CURVE SMOOTH",
"732 430 OFFCURVE",
"616 532 OFFCURVE",
"419 532 CURVE SMOOTH"
);
},
{
closed = 1;
nodes = (
"248 347 OFFCURVE",
"299 398 OFFCURVE",
"386 398 CURVE SMOOTH",
"473 398 OFFCURVE",
"524 346 OFFCURVE",
"524 258 CURVE SMOOTH",
"524 171 OFFCURVE",
"473 119 OFFCURVE",
"386 119 CURVE SMOOTH",
"299 119 OFFCURVE",
"248 172 OFFCURVE",
"248 259 CURVE SMOOTH"
);
}
);
width = 762;
}
);
leftKerningGroup = n;
leftMetricsKey = n;
rightKerningGroup = o;
rightMetricsKey = o;
unicode = 0070;
},
{
color = 10;
glyphname = thorn;
lastChange = "2025-09-12 05:01:32 +0000";
layers = (
{
layerId = "FD4D3FDD-DE85-408F-A52A-FF600B1C6101";
paths = (
{
closed = 1;
nodes = (
"249 532 OFFCURVE",
"151 489 OFFCURVE",
"105 422 CURVE",
"103 422 LINE",
"108 520 LINE",
"108 736 LINE",
"60 736 LINE",
"60 -216 LINE",
"108 -216 LINE",
"108 0 LINE",
"103 108 LINE",
"105 108 LINE",
"149 36 OFFCURVE",
"250 -13 OFFCURVE",
"358 -13 CURVE SMOOTH",
"526 -13 OFFCURVE",
"638 95 OFFCURVE",
"638 258 CURVE SMOOTH",
"638 422 OFFCURVE",
"520 532 OFFCURVE",
"343 532 CURVE SMOOTH"
);
},
{
closed = 1;
nodes = (
"108 398 OFFCURVE",
"202 490 OFFCURVE",
"343 490 CURVE SMOOTH",
"491 490 OFFCURVE",
"590 397 OFFCURVE",
"590 258 CURVE SMOOTH",
"590 121 OFFCURVE",
"495 29 OFFCURVE",
"352 29 CURVE SMOOTH",
"206 29 OFFCURVE",
"108 122 OFFCURVE",
"108 259 CURVE SMOOTH"
);
}
);
width = 688;
},
{
layerId = m002;
paths = (
{
closed = 1;
nodes = (
"337 532 OFFCURVE",
"270 514 OFFCURVE",
"240 483 CURVE",
"236 483 LINE",
"256 520 LINE",
"256 736 LINE",
"50 736 LINE",
"50 -216 LINE",
"248 -216 LINE",
"248 -29 LINE",
"243 23 LINE",
"245 23 LINE",
"283 1 OFFCURVE",
"346 -13 OFFCURVE",
"415 -13 CURVE SMOOTH",
"614 -13 OFFCURVE",
"732 88 OFFCURVE",
"732 258 CURVE SMOOTH",
"732 430 OFFCURVE",
"616 532 OFFCURVE",
"419 532 CURVE SMOOTH"
);
},
{
closed = 1;
nodes = (
"248 347 OFFCURVE",
"299 398 OFFCURVE",
"386 398 CURVE SMOOTH",
"473 398 OFFCURVE",
"524 346 OFFCURVE",
"524 258 CURVE SMOOTH",
"524 171 OFFCURVE",
"473 119 OFFCURVE",
"386 119 CURVE SMOOTH",
"299 119 OFFCURVE",
"248 172 OFFCURVE",
"248 259 CURVE SMOOTH"
);
}
);
width = 762;
}
);
leftKerningGroup = n;
leftMetricsKey = p;
rightKerningGroup = o;
rightMetricsKey = p;
unicode = 00FE;
},
{
glyphname = q;
lastChange = "2025-09-11 23:34:41 +0000";
layers = (
{
anchors = (
{
name = Top;
position = "{357, 532}";
}
);
layerId = "FD4D3FDD-DE85-408F-A52A-FF600B1C6101";
paths = (
{
closed = 1;
nodes = (
"168 532 OFFCURVE",
"50 422 OFFCURVE",
"50 258 CURVE SMOOTH",
"50 95 OFFCURVE",
"162 -13 OFFCURVE",
"330 -13 CURVE SMOOTH",
"438 -13 OFFCURVE",
"539 36 OFFCURVE",
"583 108 CURVE",
"585 108 LINE",
"580 0 LINE",
"580 -216 LINE",
"628 -216 LINE",
"628 520 LINE",
"565 520 LINE",
"580 422 LINE",
"578 422 LINE",
"532 489 OFFCURVE",
"439 532 OFFCURVE",
"345 532 CURVE SMOOTH"
);
},
{
closed = 1;
nodes = (
"98 397 OFFCURVE",
"197 490 OFFCURVE",
"345 490 CURVE SMOOTH",
"486 490 OFFCURVE",
"580 398 OFFCURVE",
"580 259 CURVE SMOOTH",
"580 122 OFFCURVE",
"482 29 OFFCURVE",
"336 29 CURVE SMOOTH",
"193 29 OFFCURVE",
"98 121 OFFCURVE",
"98 258 CURVE SMOOTH"
);
}
);
width = 688;
},
{
anchors = (
{
name = Top;
position = "{379, 532}";
}
);
layerId = m002;
paths = (
{
closed = 1;
nodes = (
"146 532 OFFCURVE",
"30 430 OFFCURVE",
"30 258 CURVE SMOOTH",
"30 88 OFFCURVE",
"148 -13 OFFCURVE",
"347 -13 CURVE SMOOTH",
"416 -13 OFFCURVE",
"479 1 OFFCURVE",
"517 23 CURVE",
"519 23 LINE",
"514 -29 LINE",
"514 -216 LINE",
"712 -216 LINE",
"712 520 LINE",
"506 520 LINE",
"526 483 LINE",
"522 483 LINE",
"492 514 OFFCURVE",
"425 532 OFFCURVE",
"343 532 CURVE SMOOTH"
);
},
{
closed = 1;
nodes = (
"238 346 OFFCURVE",
"289 398 OFFCURVE",
"376 398 CURVE SMOOTH",
"463 398 OFFCURVE",
"514 347 OFFCURVE",
"514 259 CURVE SMOOTH",
"514 172 OFFCURVE",
"463 119 OFFCURVE",
"376 119 CURVE SMOOTH",
"289 119 OFFCURVE",
"238 171 OFFCURVE",
"238 258 CURVE SMOOTH"
);
}
);
width = 762;
}
);
leftKerningGroup = o;
leftMetricsKey = o;
rightKerningGroup = n;
rightMetricsKey = n;
unicode = 0071;
},
{
glyphname = r;
lastChange = "2025-09-12 21:35:26 +0000";
layers = (
{
anchors = (
{
name = Bottom;
position = "{84, 0}";
},
{
name = Top;
position = "{213, 532}";
}
);
layerId = "FD4D3FDD-DE85-408F-A52A-FF600B1C6101";
paths = (
{
closed = 1;
nodes = (
"108 280 LINE SMOOTH",
"108 406 OFFCURVE",
"183 490 OFFCURVE",
"295 490 CURVE SMOOTH",
"325 490 OFFCURVE",
"356 485 OFFCURVE",
"372 478 CURVE",
"379 521 LINE",
"362 528 OFFCURVE",
"329 532 OFFCURVE",
"297 532 CURVE SMOOTH",
"213 532 OFFCURVE",
"139 494 OFFCURVE",
"110 437 CURVE",
"108 437 LINE",
"118 520 LINE",
"60 520 LINE",
"60 0 LINE",
"108 0 LINE"
);
}
);
width = 419;
},
{
anchors = (
{
name = Bottom;
position = "{164, 0}";
},
{
name = Top;
position = "{268, 532}";
}
);
layerId = m002;
paths = (
{
closed = 1;
nodes = (
"248 237 LINE SMOOTH",
"248 317 OFFCURVE",
"307 371 OFFCURVE",
"396 371 CURVE SMOOTH",
"423 371 OFFCURVE",
"453 366 OFFCURVE",
"473 358 CURVE",
"499 521 LINE",
"477 528 OFFCURVE",
"436 533 OFFCURVE",
"396 533 CURVE SMOOTH",
"329 533 OFFCURVE",
"271 514 OFFCURVE",
"240 480 CURVE",
"236 480 LINE",
"258 520 LINE",
"50 520 LINE",
"50 0 LINE",
"248 0 LINE"
);
}
);
width = 529;
}
);
leftKerningGroup = n;
leftMetricsKey = n;
rightKerningGroup = r;
rightMetricsKey = k;
unicode = 0072;
},
{
glyphname = s;
lastChange = "2025-09-12 18:08:37 +0000";
layers = (
{
anchors = (
{
name = Bottom;
position = "{289, 0}";
},
{
name = Top;
position = "{286, 532}";
}
);
layerId = "FD4D3FDD-DE85-408F-A52A-FF600B1C6101";
paths = (
{
closed = 1;
nodes = (
"143 532 OFFCURVE",
"58 478 OFFCURVE",
"58 386 CURVE SMOOTH",
"58 183 OFFCURVE",
"474 290 OFFCURVE",
"474 136 CURVE SMOOTH",
"474 69 OFFCURVE",
"408 29 OFFCURVE",
"295 29 CURVE SMOOTH",
"165 29 OFFCURVE",
"88 80 OFFCURVE",
"88 167 CURVE",
"40 167 LINE",
"40 54 OFFCURVE",
"134 -13 OFFCURVE",
"292 -13 CURVE SMOOTH",
"437 -13 OFFCURVE",
"522 44 OFFCURVE",
"522 140 CURVE SMOOTH",
"522 334 OFFCURVE",
"106 236 OFFCURVE",
"106 389 CURVE SMOOTH",
"106 452 OFFCURVE",
"170 490 OFFCURVE",
"277 490 CURVE SMOOTH",
"393 490 OFFCURVE",
"461 445 OFFCURVE",
"461 369 CURVE",
"509 369 LINE",
"509 471 OFFCURVE",
"426 532 OFFCURVE",
"286 532 CURVE SMOOTH"
);
}
);
width = 562;
},
{
anchors = (
{
name = Bottom;
position = "{336, 0}";
},
{
name = Top;
position = "{330, 532}";
}
);
layerId = m002;
paths = (
{
closed = 1;
nodes = (
"152 532 OFFCURVE",
"47 468 OFFCURVE",
"47 360 CURVE SMOOTH",
"47 142 OFFCURVE",
"433 227 OFFCURVE",
"433 165 CURVE SMOOTH",
"433 146 OFFCURVE",
"397 134 OFFCURVE",
"337 134 CURVE SMOOTH",
"268 134 OFFCURVE",
"228 152 OFFCURVE",
"228 182 CURVE",
"30 182 LINE",
"30 59 OFFCURVE",
"144 -13 OFFCURVE",
"336 -13 CURVE SMOOTH",
"521 -13 OFFCURVE",
"631 50 OFFCURVE",
"631 157 CURVE SMOOTH",
"631 362 OFFCURVE",
"245 280 OFFCURVE",
"245 352 CURVE SMOOTH",
"245 373 OFFCURVE",
"279 385 OFFCURVE",
"336 385 CURVE SMOOTH",
"394 385 OFFCURVE",
"429 370 OFFCURVE",
"429 344 CURVE",
"627 344 LINE",
"627 462 OFFCURVE",
"517 532 OFFCURVE",
"330 532 CURVE SMOOTH"
);
}
);
width = 661;
}
);
leftKerningGroup = s;
rightKerningGroup = s;
unicode = 0073;
},
{
color = 10;
glyphname = saltillo;
lastChange = "2025-09-11 23:34:47 +0000";
layers = (
{
layerId = "FD4D3FDD-DE85-408F-A52A-FF600B1C6101";
paths = (
{
closed = 1;
nodes = (
"60 520 LINE",
"65 409 LINE",
"95 409 LINE",
"100 520 LINE",
"100 730 LINE",
"60 730 LINE"
);
}
);
width = 160;
},
{
layerId = m002;
paths = (
{
closed = 1;
nodes = (
"50 520 LINE",
"55 409 LINE",
"195 409 LINE",
"200 520 LINE",
"200 730 LINE",
"50 730 LINE"
);
}
);
width = 250;
}
);
leftKerningGroup = n;
leftMetricsKey = n;
rightKerningGroup = n;
rightMetricsKey = n;
unicode = A78C;
},
{
color = 10;
glyphname = germandbls;
lastChange = "2025-09-11 23:34:49 +0000";
layers = (
{
layerId = "FD4D3FDD-DE85-408F-A52A-FF600B1C6101";
paths = (
{
closed = 1;
nodes = (
"60 0 LINE",
"108 0 LINE",
"108 583 LINE SMOOTH",
"108 650 OFFCURVE",
"166 695 OFFCURVE",
"253 695 CURVE SMOOTH",
"320 695 OFFCURVE",
"368 667 OFFCURVE",
"403 624 CURVE SMOOTH",
"491 518 LINE",
"396 507 OFFCURVE",
"335 462 OFFCURVE",
"335 394 CURVE SMOOTH",
"335 242 OFFCURVE",
"591 259 OFFCURVE",
"591 113 CURVE SMOOTH",
"591 63 OFFCURVE",
"545 29 OFFCURVE",
"475 29 CURVE SMOOTH",
"445 29 OFFCURVE",
"394 38 OFFCURVE",
"361 52 CURVE",
"361 10 LINE",
"386 -4 OFFCURVE",
"437 -13 OFFCURVE",
"474 -13 CURVE SMOOTH",
"573 -13 OFFCURVE",
"639 39 OFFCURVE",
"639 117 CURVE SMOOTH",
"639 299 OFFCURVE",
"383 289 OFFCURVE",
"383 397 CURVE SMOOTH",
"383 443 OFFCURVE",
"439 473 OFFCURVE",
"524 478 CURVE",
"555 520 LINE",
"438 657 LINE SMOOTH",
"397 704 OFFCURVE",
"336 736 OFFCURVE",
"255 736 CURVE SMOOTH",
"138 736 OFFCURVE",
"60 670 OFFCURVE",
"60 571 CURVE SMOOTH"
);
}
);
width = 689;
},
{
layerId = m002;
paths = (
{
closed = 1;
nodes = (
"50 0 LINE",
"248 0 LINE",
"248 503 LINE SMOOTH",
"248 546 OFFCURVE",
"284 575 OFFCURVE",
"339 575 CURVE SMOOTH",
"397 575 OFFCURVE",
"425 551 OFFCURVE",
"456 513 CURVE SMOOTH",
"465 502 LINE",
"390 475 OFFCURVE",
"345 424 OFFCURVE",
"345 363 CURVE SMOOTH",
"345 243 OFFCURVE",
"521 209 OFFCURVE",
"521 169 CURVE SMOOTH",
"521 157 OFFCURVE",
"503 149 OFFCURVE",
"475 149 CURVE SMOOTH",
"452 149 OFFCURVE",
"415 158 OFFCURVE",
"381 172 CURVE",
"381 10 LINE",
"407 -4 OFFCURVE",
"456 -13 OFFCURVE",
"504 -13 CURVE SMOOTH",
"633 -13 OFFCURVE",
"719 49 OFFCURVE",
"719 143 CURVE SMOOTH",
"719 284 OFFCURVE",
"543 295 OFFCURVE",
"543 342 CURVE SMOOTH",
"543 361 OFFCURVE",
"559 368 OFFCURVE",
"584 358 CURVE",
"718 503 LINE",
"610 625 LINE SMOOTH",
"548 695 OFFCURVE",
"446 736 OFFCURVE",
"336 736 CURVE SMOOTH",
"169 736 OFFCURVE",
"50 646 OFFCURVE",
"50 511 CURVE SMOOTH"
);
}
);
width = 749;
}
);
leftKerningGroup = n;
leftMetricsKey = n;
rightKerningGroup = germandbls;
rightMetricsKey = o;
unicode = 00DF;
},
{
glyphname = t;
lastChange = "2025-09-12 18:08:46 +0000";
layers = (
{
anchors = (
{
name = Bottom;
position = "{253, 0}";
},
{
name = Top;
position = "{283, 532}";
},
{
name = Top_EC;
position = "{234, 532}";
}
);
hints = (
{
place = "{149, 0}";
type = Stem;
}
);
layerId = "FD4D3FDD-DE85-408F-A52A-FF600B1C6101";
paths = (
{
closed = 1;
nodes = (
"133 159 LINE SMOOTH",
"133 56 OFFCURVE",
"207 -13 OFFCURVE",
"317 -13 CURVE SMOOTH",
"335 -13 OFFCURVE",
"357 -9 OFFCURVE",
"372 -3 CURVE",
"372 39 LINE",
"362 32 OFFCURVE",
"340 28 OFFCURVE",
"316 28 CURVE SMOOTH",
"235 28 OFFCURVE",
"181 80 OFFCURVE",
"181 159 CURVE SMOOTH",
"181 478 LINE",
"315 478 LINE",
"315 520 LINE",
"181 520 LINE",
"181 629 LINE",
"133 629 LINE",
"133 518 LINE",
"40 523 LINE",
"40 478 LINE",
"133 478 LINE"
);
}
);
width = 412;
},
{
anchors = (
{
name = Bottom;
position = "{325, 0}";
},
{
name = Top;
position = "{405, 520}";
},
{
name = Top_EC;
position = "{396, 520}";
}
);
hints = (
{
place = "{149, 0}";
type = Stem;
}
);
layerId = m002;
paths = (
{
closed = 1;
nodes = (
"113 191 LINE SMOOTH",
"113 69 OFFCURVE",
"218 -13 OFFCURVE",
"376 -13 CURVE SMOOTH",
"417 -13 OFFCURVE",
"456 -8 OFFCURVE",
"474 0 CURVE",
"474 160 LINE",
"452 152 OFFCURVE",
"416 146 OFFCURVE",
"385 146 CURVE SMOOTH",
"341 146 OFFCURVE",
"311 172 OFFCURVE",
"311 211 CURVE SMOOTH",
"311 370 LINE",
"415 370 LINE",
"415 520 LINE",
"311 520 LINE",
"311 629 LINE",
"113 629 LINE",
"113 518 LINE",
"40 523 LINE",
"40 370 LINE",
"113 370 LINE"
);
}
);
width = 514;
}
);
leftKerningGroup = t;
rightKerningGroup = t;
unicode = 0074;
},
{
color = 10;
glyphname = tbar;
lastChange = "2025-09-12 18:09:03 +0000";
layers = (
{
layerId = "FD4D3FDD-DE85-408F-A52A-FF600B1C6101";
paths = (
{
closed = 1;
nodes = (
"133 368 LINE",
"40 373 LINE",
"40 328 LINE",
"133 328 LINE",
"133 159 LINE SMOOTH",
"133 56 OFFCURVE",
"207 -13 OFFCURVE",
"317 -13 CURVE SMOOTH",
"335 -13 OFFCURVE",
"357 -9 OFFCURVE",
"372 -3 CURVE",
"372 39 LINE",
"362 32 OFFCURVE",
"340 28 OFFCURVE",
"316 28 CURVE SMOOTH",
"235 28 OFFCURVE",
"181 80 OFFCURVE",
"181 159 CURVE SMOOTH",
"181 328 LINE",
"315 328 LINE",
"315 370 LINE",
"181 370 LINE",
"181 478 LINE",
"315 478 LINE",
"315 520 LINE",
"181 520 LINE",
"181 629 LINE",
"133 629 LINE",
"133 518 LINE",
"40 523 LINE",
"40 478 LINE",
"133 478 LINE"
);
}
);
width = 412;
},
{
layerId = m002;
paths = (
{
closed = 1;
nodes = (
"113 328 LINE",
"40 333 LINE",
"40 230 LINE",
"113 230 LINE",
"113 191 LINE SMOOTH",
"113 69 OFFCURVE",
"218 -13 OFFCURVE",
"376 -13 CURVE SMOOTH",
"417 -13 OFFCURVE",
"456 -8 OFFCURVE",
"474 0 CURVE",
"474 160 LINE",
"452 152 OFFCURVE",
"416 146 OFFCURVE",
"385 146 CURVE SMOOTH",
"341 146 OFFCURVE",
"311 172 OFFCURVE",
"311 211 CURVE SMOOTH",
"311 230 LINE",
"415 230 LINE",
"415 330 LINE",
"311 330 LINE",
"311 370 LINE",
"415 370 LINE",
"415 520 LINE",
"311 520 LINE",
"311 629 LINE",
"113 629 LINE",
"113 518 LINE",
"40 523 LINE",
"40 370 LINE",
"113 370 LINE"
);
}
);
width = 514;
}
);
leftKerningGroup = t;
leftMetricsKey = t;
rightKerningGroup = t;
rightMetricsKey = t;
unicode = 0167;
},
{
color = 10;
glyphname = tdiagonalstroke;
lastChange = "2025-09-12 18:09:05 +0000";
layers = (
{
layerId = "FD4D3FDD-DE85-408F-A52A-FF600B1C6101";
paths = (
{
closed = 1;
nodes = (
"133 159 LINE SMOOTH",
"133 150 OFFCURVE",
"134 141 OFFCURVE",
"135 133 CURVE",
"68 -50 LINE",
"109 -50 LINE",
"154 73 LINE",
"183 19 OFFCURVE",
"242 -13 OFFCURVE",
"317 -13 CURVE SMOOTH",
"335 -13 OFFCURVE",
"357 -9 OFFCURVE",
"372 -3 CURVE",
"372 39 LINE",
"362 32 OFFCURVE",
"340 28 OFFCURVE",
"316 28 CURVE SMOOTH",
"239 28 OFFCURVE",
"186 75 OFFCURVE",
"181 148 CURVE",
"302 478 LINE",
"315 478 LINE",
"315 514 LINE",
"331 558 LINE",
"290 558 LINE",
"276 520 LINE",
"181 520 LINE",
"181 629 LINE",
"133 629 LINE",
"133 518 LINE",
"40 523 LINE",
"40 478 LINE",
"133 478 LINE"
);
},
{
closed = 1;
nodes = (
"181 478 LINE",
"261 478 LINE",
"181 259 LINE"
);
}
);
width = 412;
},
{
layerId = m002;
paths = (
{
closed = 1;
nodes = (
"113 191 LINE SMOOTH",
"113 117 OFFCURVE",
"152 58 OFFCURVE",
"217 22 CURVE",
"191 -50 LINE",
"242 -50 LINE",
"262 4 LINE",
"295 -7 OFFCURVE",
"334 -13 OFFCURVE",
"376 -13 CURVE SMOOTH",
"417 -13 OFFCURVE",
"456 -8 OFFCURVE",
"474 0 CURVE",
"474 160 LINE",
"452 152 OFFCURVE",
"416 146 OFFCURVE",
"385 146 CURVE SMOOTH",
"358 146 OFFCURVE",
"336 156 OFFCURVE",
"323 173 CURVE",
"395 370 LINE",
"415 370 LINE",
"415 424 LINE",
"464 558 LINE",
"413 558 LINE",
"399 520 LINE",
"311 520 LINE",
"311 629 LINE",
"113 629 LINE",
"113 518 LINE",
"40 523 LINE",
"40 370 LINE",
"113 370 LINE"
);
},
{
closed = 1;
nodes = (
"311 370 LINE",
"344 370 LINE",
"311 279 LINE"
);
}
);
width = 514;
}
);
leftKerningGroup = t;
leftMetricsKey = t;
rightKerningGroup = t;
rightMetricsKey = t;
unicode = 2C66;
},
{
glyphname = u;
lastChange = "2025-09-12 17:25:22 +0000";
layers = (
{
anchors = (
{
name = Bottom;
position = "{311, 0}";
},
{
name = Top;
position = "{310, 520}";
}
);
layerId = "FD4D3FDD-DE85-408F-A52A-FF600B1C6101";
paths = (
{
closed = 1;
nodes = (
"387 -13 OFFCURVE",
"471 25 OFFCURVE",
"509 83 CURVE",
"511 83 LINE",
"501 0 LINE",
"559 0 LINE",
"559 520 LINE",
"511 520 LINE",
"511 207 LINE SMOOTH",
"511 100 OFFCURVE",
"426 29 OFFCURVE",
"299 29 CURVE SMOOTH",
"184 29 OFFCURVE",
"108 89 OFFCURVE",
"108 179 CURVE SMOOTH",
"108 520 LINE",
"60 520 LINE",
"60 167 LINE SMOOTH",
"60 59 OFFCURVE",
"156 -13 OFFCURVE",
"299 -13 CURVE SMOOTH"
);
}
);
width = 619;
},
{
anchors = (
{
name = Bottom;
position = "{345, 0}";
},
{
name = Top;
position = "{367, 520}";
}
);
layerId = m002;
paths = (
{
closed = 1;
nodes = (
"398 -13 OFFCURVE",
"473 9 OFFCURVE",
"498 43 CURVE",
"502 43 LINE",
"485 0 LINE",
"683 0 LINE",
"683 520 LINE",
"485 520 LINE",
"485 242 LINE SMOOTH",
"485 186 OFFCURVE",
"437 149 OFFCURVE",
"366 149 CURVE SMOOTH",
"295 149 OFFCURVE",
"248 186 OFFCURVE",
"248 242 CURVE SMOOTH",
"248 520 LINE",
"50 520 LINE",
"50 190 LINE SMOOTH",
"50 68 OFFCURVE",
"154 -13 OFFCURVE",
"311 -13 CURVE SMOOTH"
);
}
);
width = 733;
}
);
leftKerningGroup = u;
leftMetricsKey = n;
rightKerningGroup = u;
rightMetricsKey = n;
unicode = 0075;
},
{
color = 10;
glyphname = "upsilon-latin";
lastChange = "2025-09-12 05:01:34 +0000";
layers = (
{
layerId = "FD4D3FDD-DE85-408F-A52A-FF600B1C6101";
paths = (
{
closed = 1;
nodes = (
"503 -13 OFFCURVE",
"604 77 OFFCURVE",
"604 229 CURVE SMOOTH",
"604 351 OFFCURVE",
"546 440 OFFCURVE",
"446 477 CURVE",
"604 477 LINE",
"604 520 LINE",
"382 520 LINE",
"382 477 LINE",
"491 448 OFFCURVE",
"556 356 OFFCURVE",
"556 229 CURVE SMOOTH",
"556 103 OFFCURVE",
"473 29 OFFCURVE",
"332 29 CURVE SMOOTH",
"191 29 OFFCURVE",
"108 103 OFFCURVE",
"108 229 CURVE SMOOTH",
"108 356 OFFCURVE",
"173 448 OFFCURVE",
"282 477 CURVE",
"282 520 LINE",
"60 520 LINE",
"60 477 LINE",
"218 477 LINE",
"118 440 OFFCURVE",
"60 351 OFFCURVE",
"60 229 CURVE SMOOTH",
"60 77 OFFCURVE",
"161 -13 OFFCURVE",
"332 -13 CURVE SMOOTH"
);
}
);
width = 664;
},
{
layerId = m002;
paths = (
{
closed = 1;
nodes = (
"594 -13 OFFCURVE",
"717 65 OFFCURVE",
"717 197 CURVE SMOOTH",
"717 276 OFFCURVE",
"671 337 OFFCURVE",
"589 370 CURVE",
"724 370 LINE",
"724 520 LINE",
"437 520 LINE",
"437 370 LINE",
"482 352 OFFCURVE",
"509 309 OFFCURVE",
"509 254 CURVE SMOOTH",
"509 182 OFFCURVE",
"464 139 OFFCURVE",
"387 139 CURVE SMOOTH",
"310 139 OFFCURVE",
"265 182 OFFCURVE",
"265 254 CURVE SMOOTH",
"265 309 OFFCURVE",
"292 352 OFFCURVE",
"337 370 CURVE",
"337 520 LINE",
"50 520 LINE",
"50 370 LINE",
"185 370 LINE",
"103 337 OFFCURVE",
"57 276 OFFCURVE",
"57 197 CURVE SMOOTH",
"57 65 OFFCURVE",
"180 -13 OFFCURVE",
"387 -13 CURVE SMOOTH"
);
}
);
width = 774;
}
);
leftKerningGroup = u;
leftMetricsKey = u;
rightKerningGroup = u;
rightMetricsKey = u;
unicode = 028A;
},
{
glyphname = v;
lastChange = "2025-09-12 17:24:36 +0000";
layers = (
{
anchors = (
{
name = Top;
position = "{329, 520}";
}
);
layerId = "FD4D3FDD-DE85-408F-A52A-FF600B1C6101";
paths = (
{
closed = 1;
nodes = (
"307 0 LINE",
"351 0 LINE",
"618 520 LINE",
"568 520 LINE",
"330 62 LINE",
"328 62 LINE",
"90 520 LINE",
"40 520 LINE"
);
}
);
width = 658;
},
{
anchors = (
{
name = Top;
position = "{384, 520}";
}
);
layerId = m002;
paths = (
{
closed = 1;
nodes = (
"292 0 LINE",
"476 0 LINE",
"739 520 LINE",
"534 520 LINE",
"385 237 LINE",
"383 237 LINE",
"235 520 LINE",
"30 520 LINE"
);
}
);
width = 769;
}
);
leftKerningGroup = v;
leftMetricsKey = "=|k";
rightKerningGroup = v;
rightMetricsKey = k;
unicode = 0076;
},
{
glyphname = w;
lastChange = "2025-09-12 05:01:37 +0000";
layers = (
{
anchors = (
{
name = Top;
position = "{471, 520}";
}
);
layerId = "FD4D3FDD-DE85-408F-A52A-FF600B1C6101";
paths = (
{
closed = 1;
nodes = (
"266 0 LINE",
"316 0 LINE",
"469 447 LINE",
"471 447 LINE",
"623 0 LINE",
"673 0 LINE",
"900 520 LINE",
"850 520 LINE",
"652 64 LINE",
"650 64 LINE",
"495 520 LINE",
"445 520 LINE",
"289 65 LINE",
"287 65 LINE",
"90 520 LINE",
"40 520 LINE"
);
}
);
width = 940;
},
{
anchors = (
{
name = Top;
position = "{523, 520}";
}
);
layerId = m002;
paths = (
{
closed = 1;
nodes = (
"250 0 LINE",
"438 0 LINE",
"523 280 LINE",
"525 280 LINE",
"610 0 LINE",
"798 0 LINE",
"1018 520 LINE",
"820 520 LINE",
"707 238 LINE",
"705 238 LINE",
"598 520 LINE",
"450 520 LINE",
"343 238 LINE",
"341 238 LINE",
"228 520 LINE",
"30 520 LINE"
);
}
);
width = 1048;
}
);
leftKerningGroup = v;
leftMetricsKey = "=|k";
rightKerningGroup = v;
rightMetricsKey = k;
unicode = 0077;
},
{
glyphname = x;
lastChange = "2025-09-12 05:09:58 +0000";
layers = (
{
anchors = (
{
name = Top;
position = "{296, 520}";
}
);
layerId = "FD4D3FDD-DE85-408F-A52A-FF600B1C6101";
paths = (
{
closed = 1;
nodes = (
"272 260 LINE",
"40 0 LINE",
"97 0 LINE",
"296 224 LINE",
"496 0 LINE",
"553 0 LINE",
"320 260 LINE",
"550 520 LINE",
"493 520 LINE",
"296 296 LINE",
"98 520 LINE",
"41 520 LINE"
);
}
);
width = 593;
},
{
anchors = (
{
name = Top;
position = "{385, 520}";
}
);
layerId = m002;
paths = (
{
closed = 1;
nodes = (
"263 260 LINE",
"31 0 LINE",
"287 0 LINE",
"386 111 LINE",
"485 0 LINE",
"741 0 LINE",
"509 260 LINE",
"740 520 LINE",
"484 520 LINE",
"385 409 LINE",
"286 520 LINE",
"30 520 LINE"
);
}
);
width = 771;
}
);
leftKerningGroup = x;
leftMetricsKey = "=|k";
rightKerningGroup = x;
rightMetricsKey = k;
unicode = 0078;
},
{
glyphname = y;
lastChange = "2025-09-12 05:01:42 +0000";
layers = (
{
anchors = (
{
name = Bottom;
position = "{425, 0}";
},
{
name = Top;
position = "{334, 520}";
}
);
layerId = "FD4D3FDD-DE85-408F-A52A-FF600B1C6101";
paths = (
{
closed = 1;
nodes = (
"627 520 LINE",
"577 520 LINE",
"355 58 LINE",
"353 58 LINE",
"90 520 LINE",
"40 520 LINE",
"330 8 LINE",
"293 -70 LINE SMOOTH",
"264 -130 OFFCURVE",
"231 -161 OFFCURVE",
"183 -161 CURVE SMOOTH",
"164 -161 OFFCURVE",
"142 -158 OFFCURVE",
"131 -152 CURVE",
"131 -200 LINE",
"145 -205 OFFCURVE",
"163 -208 OFFCURVE",
"179 -208 CURVE SMOOTH",
"254 -208 OFFCURVE",
"299 -162 OFFCURVE",
"343 -70 CURVE SMOOTH"
);
}
);
width = 667;
},
{
anchors = (
{
name = Bottom;
position = "{563, 0}";
},
{
name = Top;
position = "{376, 520}";
}
);
layerId = m002;
paths = (
{
closed = 1;
nodes = (
"718 520 LINE",
"520 520 LINE",
"386 239 LINE",
"383 239 LINE",
"228 520 LINE",
"30 520 LINE",
"292 41 LINE",
"267 -12 LINE SMOOTH",
"256 -35 OFFCURVE",
"235 -48 OFFCURVE",
"207 -48 CURVE SMOOTH",
"172 -48 OFFCURVE",
"144 -45 OFFCURVE",
"131 -39 CURVE",
"131 -199 LINE",
"147 -204 OFFCURVE",
"171 -207 OFFCURVE",
"196 -207 CURVE SMOOTH",
"316 -207 OFFCURVE",
"384 -195 OFFCURVE",
"453 -48 CURVE SMOOTH"
);
}
);
width = 748;
}
);
leftKerningGroup = y;
leftMetricsKey = "=|k";
rightKerningGroup = y;
rightMetricsKey = k;
unicode = 0079;
},
{
glyphname = z;
lastChange = "2025-09-12 17:39:55 +0000";
layers = (
{
anchors = (
{
name = Bottom;
position = "{330, 0}";
},
{
name = Top;
position = "{321, 520}";
}
);
layerId = "FD4D3FDD-DE85-408F-A52A-FF600B1C6101";
paths = (
{
closed = 1;
nodes = (
"570 520 LINE",
"83 520 LINE",
"83 480 LINE",
"505 480 LINE",
"60 40 LINE",
"60 0 LINE",
"571 0 LINE",
"571 40 LINE",
"125 40 LINE",
"570 480 LINE"
);
}
);
width = 611;
},
{
anchors = (
{
name = Bottom;
position = "{371, 0}";
},
{
name = Top;
position = "{371, 520}";
}
);
layerId = m002;
paths = (
{
closed = 1;
nodes = (
"690 520 LINE",
"60 520 LINE",
"60 370 LINE",
"402 370 LINE",
"50 150 LINE",
"50 0 LINE",
"691 0 LINE",
"691 150 LINE",
"346 150 LINE",
"690 370 LINE"
);
}
);
width = 741;
}
);
leftKerningGroup = z;
leftMetricsKey = n;
rightKerningGroup = z;
unicode = 007A;
},
{
color = 10;
glyphname = a.ss01;
lastChange = "2025-09-11 23:35:30 +0000";
layers = (
{
anchors = (
{
name = Bottom;
position = "{264, 0}";
},
{
name = Ogonek;
position = "{482, 0}";
},
{
name = Top;
position = "{301, 532}";
}
);
layerId = "FD4D3FDD-DE85-408F-A52A-FF600B1C6101";
paths = (
{
closed = 1;
nodes = (
"333 -13 OFFCURVE",
"426 23 OFFCURVE",
"467 91 CURVE",
"469 91 LINE",
"454 0 LINE",
"517 0 LINE",
"517 380 LINE SMOOTH",
"517 471 OFFCURVE",
"429 532 OFFCURVE",
"298 532 CURVE SMOOTH",
"157 532 OFFCURVE",
"63 472 OFFCURVE",
"63 382 CURVE",
"111 382 LINE",
"111 447 OFFCURVE",
"186 490 OFFCURVE",
"298 490 CURVE SMOOTH",
"401 490 OFFCURVE",
"469 448 OFFCURVE",
"469 384 CURVE SMOOTH",
"469 324 OFFCURVE",
"377 305 OFFCURVE",
"302 289 CURVE SMOOTH",
"167 260 OFFCURVE",
"50 239 OFFCURVE",
"50 127 CURVE SMOOTH",
"50 43 OFFCURVE",
"128 -13 OFFCURVE",
"249 -13 CURVE SMOOTH"
);
},
{
closed = 1;
nodes = (
"98 210 OFFCURVE",
"196 221 OFFCURVE",
"299 244 CURVE SMOOTH",
"359 257 OFFCURVE",
"443 277 OFFCURVE",
"468 305 CURVE",
"468 232 LINE SMOOTH",
"468 110 OFFCURVE",
"371 29 OFFCURVE",
"252 29 CURVE SMOOTH",
"158 29 OFFCURVE",
"98 68 OFFCURVE",
"98 126 CURVE SMOOTH"
);
}
);
width = 577;
},
{
anchors = (
{
name = Bottom;
position = "{280, 0}";
},
{
name = Ogonek;
position = "{565, 0}";
},
{
name = Top;
position = "{346, 532}";
}
);
layerId = m002;
paths = (
{
closed = 1;
nodes = (
"340 -13 OFFCURVE",
"414 8 OFFCURVE",
"447 40 CURVE",
"451 40 LINE",
"431 0 LINE",
"637 0 LINE",
"637 354 LINE SMOOTH",
"637 466 OFFCURVE",
"529 532 OFFCURVE",
"355 532 CURVE SMOOTH",
"157 532 OFFCURVE",
"43 460 OFFCURVE",
"43 337 CURVE",
"241 337 LINE",
"241 373 OFFCURVE",
"267 395 OFFCURVE",
"366 395 CURVE SMOOTH",
"402 395 OFFCURVE",
"439 382 OFFCURVE",
"439 360 CURVE SMOOTH",
"439 326 OFFCURVE",
"322 314 OFFCURVE",
"240 304 CURVE SMOOTH",
"90 285 OFFCURVE",
"30 235 OFFCURVE",
"30 141 CURVE SMOOTH",
"30 49 OFFCURVE",
"124 -13 OFFCURVE",
"274 -13 CURVE SMOOTH"
);
},
{
closed = 1;
nodes = (
"228 177 OFFCURVE",
"230 195 OFFCURVE",
"314 206 CURVE SMOOTH",
"361 212 OFFCURVE",
"419 224 OFFCURVE",
"439 240 CURVE",
"439 209 LINE SMOOTH",
"439 159 OFFCURVE",
"380 125 OFFCURVE",
"300 125 CURVE SMOOTH",
"260 125 OFFCURVE",
"228 140 OFFCURVE",
"228 162 CURVE SMOOTH"
);
}
);
width = 687;
}
);
leftKerningGroup = o;
leftMetricsKey = a;
rightKerningGroup = n;
rightMetricsKey = n;
},
{
color = 10;
glyphname = astroke.ss01;
lastChange = "2025-09-12 05:01:47 +0000";
layers = (
{
layerId = "FD4D3FDD-DE85-408F-A52A-FF600B1C6101";
paths = (
{
closed = 1;
nodes = (
"333 -13 OFFCURVE",
"426 23 OFFCURVE",
"467 91 CURVE",
"469 91 LINE",
"454 0 LINE",
"517 0 LINE",
"517 380 LINE SMOOTH",
"517 435 OFFCURVE",
"484 480 OFFCURVE",
"429 506 CURVE",
"448 558 LINE",
"407 558 LINE",
"393 520 LINE",
"365 528 OFFCURVE",
"333 532 OFFCURVE",
"298 532 CURVE SMOOTH",
"157 532 OFFCURVE",
"63 472 OFFCURVE",
"63 382 CURVE",
"111 382 LINE",
"111 447 OFFCURVE",
"186 490 OFFCURVE",
"298 490 CURVE SMOOTH",
"328 490 OFFCURVE",
"355 486 OFFCURVE",
"378 480 CURVE",
"309 291 LINE",
"306 290 OFFCURVE",
"306 290 OFFCURVE",
"302 289 CURVE SMOOTH",
"167 260 OFFCURVE",
"50 239 OFFCURVE",
"50 127 CURVE SMOOTH",
"50 55 OFFCURVE",
"107 4 OFFCURVE",
"200 -10 CURVE",
"185 -50 LINE",
"226 -50 LINE",
"240 -13 LINE",
"249 -13 LINE SMOOTH"
);
},
{
closed = 1;
nodes = (
"98 208 OFFCURVE",
"191 220 OFFCURVE",
"292 242 CURVE",
"215 31 LINE",
"142 40 OFFCURVE",
"98 76 OFFCURVE",
"98 126 CURVE SMOOTH"
);
},
{
closed = 1;
nodes = (
"336 252 LINE",
"390 265 OFFCURVE",
"448 282 OFFCURVE",
"468 305 CURVE",
"468 232 LINE SMOOTH",
"468 111 OFFCURVE",
"373 30 OFFCURVE",
"255 29 CURVE"
);
},
{
closed = 1;
nodes = (
"414 466 LINE",
"449 447 OFFCURVE",
"469 419 OFFCURVE",
"469 384 CURVE SMOOTH",
"469 338 OFFCURVE",
"414 316 OFFCURVE",
"354 301 CURVE"
);
}
);
width = 577;
},
{
layerId = m002;
paths = (
{
closed = 1;
nodes = (
"340 -13 OFFCURVE",
"414 8 OFFCURVE",
"447 40 CURVE",
"451 40 LINE",
"431 0 LINE",
"637 0 LINE",
"637 354 LINE SMOOTH",
"637 440 OFFCURVE",
"574 498 OFFCURVE",
"467 521 CURVE",
"480 558 LINE",
"429 558 LINE",
"418 529 LINE",
"398 531 OFFCURVE",
"377 532 OFFCURVE",
"355 532 CURVE SMOOTH",
"157 532 OFFCURVE",
"43 460 OFFCURVE",
"43 337 CURVE",
"241 337 LINE",
"241 373 OFFCURVE",
"265 395 OFFCURVE",
"364 395 CURVE SMOOTH",
"366 395 OFFCURVE",
"368 395 OFFCURVE",
"369 395 CURVE",
"341 318 LINE",
"308 312 OFFCURVE",
"271 308 OFFCURVE",
"240 304 CURVE SMOOTH",
"90 285 OFFCURVE",
"30 235 OFFCURVE",
"30 141 CURVE SMOOTH",
"30 60 OFFCURVE",
"102 3 OFFCURVE",
"222 -10 CURVE",
"207 -50 LINE",
"258 -50 LINE",
"272 -13 LINE",
"274 -13 LINE SMOOTH"
);
},
{
closed = 1;
nodes = (
"228 176 OFFCURVE",
"230 193 OFFCURVE",
"300 204 CURVE",
"272 128 LINE",
"246 133 OFFCURVE",
"228 145 OFFCURVE",
"228 162 CURVE SMOOTH"
);
},
{
closed = 1;
nodes = (
"354 212 LINE",
"390 219 OFFCURVE",
"424 228 OFFCURVE",
"439 240 CURVE",
"439 209 LINE SMOOTH",
"439 164 OFFCURVE",
"391 132 OFFCURVE",
"322 126 CURVE"
);
},
{
closed = 1;
nodes = (
"417 385 LINE",
"430 379 OFFCURVE",
"439 371 OFFCURVE",
"439 360 CURVE SMOOTH",
"439 347 OFFCURVE",
"422 337 OFFCURVE",
"397 330 CURVE"
);
}
);
width = 687;
}
);
leftKerningGroup = o;
leftMetricsKey = a;
rightKerningGroup = n;
rightMetricsKey = a;
},
{
color = 10;
glyphname = germandbls.ss01;
lastChange = "2025-09-11 23:35:42 +0000";
layers = (
{
layerId = "FD4D3FDD-DE85-408F-A52A-FF600B1C6101";
paths = (
{
closed = 1;
nodes = (
"108 0 LINE",
"108 583 LINE SMOOTH",
"108 650 OFFCURVE",
"150 694 OFFCURVE",
"213 694 CURVE SMOOTH",
"270 694 LINE",
"228 663 OFFCURVE",
"204 616 OFFCURVE",
"204 558 CURVE SMOOTH",
"204 373 OFFCURVE",
"496 340 OFFCURVE",
"496 171 CURVE SMOOTH",
"496 86 OFFCURVE",
"432 29 OFFCURVE",
"335 29 CURVE SMOOTH",
"296 29 OFFCURVE",
"244 38 OFFCURVE",
"207 52 CURVE",
"207 10 LINE",
"232 -4 OFFCURVE",
"282 -13 OFFCURVE",
"334 -13 CURVE SMOOTH",
"460 -13 OFFCURVE",
"544 63 OFFCURVE",
"544 177 CURVE SMOOTH",
"544 368 OFFCURVE",
"252 410 OFFCURVE",
"252 562 CURVE SMOOTH",
"252 641 OFFCURVE",
"316 694 OFFCURVE",
"412 694 CURVE",
"412 736 LINE",
"215 736 LINE SMOOTH",
"122 736 OFFCURVE",
"60 670 OFFCURVE",
"60 571 CURVE SMOOTH",
"60 0 LINE"
);
}
);
width = 594;
},
{
layerId = m002;
paths = (
{
closed = 1;
nodes = (
"248 0 LINE",
"248 523 LINE SMOOTH",
"248 554 OFFCURVE",
"266 574 OFFCURVE",
"293 574 CURVE SMOOTH",
"371 574 LINE",
"366 556 OFFCURVE",
"364 538 OFFCURVE",
"364 518 CURVE SMOOTH",
"364 375 OFFCURVE",
"486 297 OFFCURVE",
"486 201 CURVE SMOOTH",
"486 170 OFFCURVE",
"464 149 OFFCURVE",
"431 149 CURVE SMOOTH",
"403 149 OFFCURVE",
"362 158 OFFCURVE",
"327 172 CURVE",
"327 10 LINE",
"352 -4 OFFCURVE",
"402 -13 OFFCURVE",
"454 -13 CURVE SMOOTH",
"598 -13 OFFCURVE",
"694 71 OFFCURVE",
"694 197 CURVE SMOOTH",
"694 375 OFFCURVE",
"572 442 OFFCURVE",
"572 522 CURVE SMOOTH",
"572 553 OFFCURVE",
"588 574 OFFCURVE",
"612 574 CURVE",
"612 736 LINE",
"275 736 LINE SMOOTH",
"138 736 OFFCURVE",
"50 670 OFFCURVE",
"50 571 CURVE SMOOTH",
"50 0 LINE"
);
}
);
width = 724;
}
);
leftKerningGroup = n;
leftMetricsKey = n;
rightKerningGroup = germandbls;
rightMetricsKey = o;
},
{
color = 10;
glyphname = f_f;
lastChange = "2025-09-12 05:03:35 +0000";
layers = (
{
layerId = "FD4D3FDD-DE85-408F-A52A-FF600B1C6101";
paths = (
{
closed = 1;
nodes = (
"153 518 LINE",
"60 523 LINE",
"60 478 LINE",
"153 478 LINE",
"153 0 LINE",
"201 0 LINE",
"201 478 LINE",
"438 478 LINE",
"438 0 LINE",
"486 0 LINE",
"486 478 LINE",
"630 478 LINE",
"630 520 LINE",
"486 520 LINE",
"486 565 LINE SMOOTH",
"486 647 OFFCURVE",
"536 695 OFFCURVE",
"620 695 CURVE SMOOTH",
"642 695 OFFCURVE",
"665 690 OFFCURVE",
"684 681 CURVE",
"684 723 LINE",
"666 731 OFFCURVE",
"641 736 OFFCURVE",
"617 736 CURVE SMOOTH",
"504 736 OFFCURVE",
"438 671 OFFCURVE",
"438 562 CURVE SMOOTH",
"438 518 LINE",
"345 520 LINE",
"201 520 LINE",
"201 565 LINE SMOOTH",
"201 647 OFFCURVE",
"251 695 OFFCURVE",
"335 695 CURVE SMOOTH",
"357 695 OFFCURVE",
"380 690 OFFCURVE",
"399 681 CURVE",
"399 723 LINE",
"381 731 OFFCURVE",
"356 736 OFFCURVE",
"332 736 CURVE SMOOTH",
"219 736 OFFCURVE",
"153 671 OFFCURVE",
"153 562 CURVE SMOOTH"
);
}
);
width = 724;
},
{
layerId = m002;
paths = (
{
closed = 1;
nodes = (
"123 518 LINE",
"50 523 LINE",
"50 370 LINE",
"123 370 LINE",
"123 0 LINE",
"321 0 LINE",
"321 370 LINE",
"528 370 LINE",
"528 0 LINE",
"726 0 LINE",
"726 370 LINE",
"860 370 LINE",
"860 520 LINE",
"726 520 LINE",
"726 535 LINE SMOOTH",
"726 560 OFFCURVE",
"754 577 OFFCURVE",
"795 577 CURVE SMOOTH",
"819 577 OFFCURVE",
"851 571 OFFCURVE",
"874 563 CURVE",
"874 723 LINE",
"857 731 OFFCURVE",
"820 736 OFFCURVE",
"780 736 CURVE SMOOTH",
"629 736 OFFCURVE",
"528 664 OFFCURVE",
"528 557 CURVE SMOOTH",
"528 518 LINE",
"455 520 LINE",
"321 520 LINE",
"321 535 LINE SMOOTH",
"321 560 OFFCURVE",
"349 577 OFFCURVE",
"390 577 CURVE SMOOTH",
"414 577 OFFCURVE",
"446 571 OFFCURVE",
"469 563 CURVE",
"469 723 LINE",
"452 731 OFFCURVE",
"415 736 OFFCURVE",
"375 736 CURVE SMOOTH",
"224 736 OFFCURVE",
"123 664 OFFCURVE",
"123 557 CURVE SMOOTH"
);
}
);
width = 914;
}
);
leftKerningGroup = f;
leftMetricsKey = f;
rightKerningGroup = f;
rightMetricsKey = f;
unicode = FB00;
},
{
color = 10;
glyphname = f_f_i;
lastChange = "2025-09-12 14:23:13 +0000";
layers = (
{
layerId = "FD4D3FDD-DE85-408F-A52A-FF600B1C6101";
paths = (
{
closed = 1;
nodes = (
"153 518 LINE",
"60 523 LINE",
"60 478 LINE",
"153 478 LINE",
"153 0 LINE",
"201 0 LINE",
"201 478 LINE",
"438 478 LINE",
"438 0 LINE",
"486 0 LINE",
"486 478 LINE",
"724 478 LINE",
"724 0 LINE",
"772 0 LINE",
"772 520 LINE",
"486 520 LINE",
"486 565 LINE SMOOTH",
"486 647 OFFCURVE",
"536 695 OFFCURVE",
"620 695 CURVE SMOOTH",
"642 695 OFFCURVE",
"665 690 OFFCURVE",
"684 681 CURVE",
"684 723 LINE",
"666 731 OFFCURVE",
"641 736 OFFCURVE",
"617 736 CURVE SMOOTH",
"504 736 OFFCURVE",
"438 671 OFFCURVE",
"438 562 CURVE SMOOTH",
"438 518 LINE",
"345 520 LINE",
"201 520 LINE",
"201 565 LINE SMOOTH",
"201 647 OFFCURVE",
"251 695 OFFCURVE",
"335 695 CURVE SMOOTH",
"357 695 OFFCURVE",
"380 690 OFFCURVE",
"399 681 CURVE",
"399 723 LINE",
"381 731 OFFCURVE",
"356 736 OFFCURVE",
"332 736 CURVE SMOOTH",
"219 736 OFFCURVE",
"153 671 OFFCURVE",
"153 562 CURVE SMOOTH"
);
},
{
closed = 1;
nodes = (
"772 654 LINE",
"772 723 LINE",
"724 723 LINE",
"724 654 LINE"
);
}
);
width = 832;
},
{
layerId = m002;
paths = (
{
closed = 1;
nodes = (
"123 518 LINE",
"50 523 LINE",
"50 370 LINE",
"123 370 LINE",
"123 0 LINE",
"321 0 LINE",
"321 370 LINE",
"528 370 LINE",
"528 0 LINE",
"726 0 LINE",
"726 370 LINE",
"900 370 LINE",
"900 0 LINE",
"1068 0 LINE",
"1068 520 LINE",
"726 520 LINE",
"726 535 LINE SMOOTH",
"726 560 OFFCURVE",
"754 577 OFFCURVE",
"795 577 CURVE SMOOTH",
"819 577 OFFCURVE",
"851 571 OFFCURVE",
"874 563 CURVE",
"874 723 LINE",
"857 731 OFFCURVE",
"820 736 OFFCURVE",
"780 736 CURVE SMOOTH",
"629 736 OFFCURVE",
"528 664 OFFCURVE",
"528 557 CURVE SMOOTH",
"528 518 LINE",
"455 520 LINE",
"321 520 LINE",
"321 535 LINE SMOOTH",
"321 560 OFFCURVE",
"349 577 OFFCURVE",
"390 577 CURVE SMOOTH",
"414 577 OFFCURVE",
"446 571 OFFCURVE",
"469 563 CURVE",
"469 723 LINE",
"452 731 OFFCURVE",
"415 736 OFFCURVE",
"375 736 CURVE SMOOTH",
"224 736 OFFCURVE",
"123 664 OFFCURVE",
"123 557 CURVE SMOOTH"
);
},
{
closed = 1;
nodes = (
"1068 553 LINE",
"1068 723 LINE",
"900 723 LINE",
"900 553 LINE"
);
}
);
width = 1118;
}
);
leftKerningGroup = f;
leftMetricsKey = f;
rightKerningGroup = i;
rightMetricsKey = i;
unicode = FB03;
},
{
color = 10;
glyphname = f_t;
lastChange = "2025-09-12 18:09:07 +0000";
layers = (
{
layerId = "FD4D3FDD-DE85-408F-A52A-FF600B1C6101";
paths = (
{
closed = 1;
nodes = (
"153 518 LINE",
"60 520 LINE",
"60 478 LINE",
"153 478 LINE",
"153 0 LINE",
"201 0 LINE",
"201 478 LINE",
"438 478 LINE",
"438 139 LINE SMOOTH",
"438 30 OFFCURVE",
"479 -13 OFFCURVE",
"582 -13 CURVE SMOOTH",
"605 -13 OFFCURVE",
"620 -10 OFFCURVE",
"637 -3 CURVE",
"637 39 LINE",
"625 31 OFFCURVE",
"609 28 OFFCURVE",
"581 28 CURVE SMOOTH",
"513 28 OFFCURVE",
"486 60 OFFCURVE",
"486 139 CURVE SMOOTH",
"486 478 LINE",
"620 478 LINE",
"620 520 LINE",
"486 520 LINE",
"486 629 LINE",
"438 629 LINE",
"438 518 LINE",
"330 520 LINE",
"201 520 LINE",
"201 565 LINE SMOOTH",
"201 647 OFFCURVE",
"251 695 OFFCURVE",
"335 695 CURVE SMOOTH",
"357 695 OFFCURVE",
"380 690 OFFCURVE",
"399 681 CURVE",
"399 723 LINE",
"381 731 OFFCURVE",
"356 736 OFFCURVE",
"332 736 CURVE SMOOTH",
"219 736 OFFCURVE",
"153 671 OFFCURVE",
"153 562 CURVE SMOOTH"
);
}
);
width = 677;
},
{
layerId = m002;
paths = (
{
closed = 1;
nodes = (
"123 518 LINE",
"50 520 LINE",
"50 370 LINE",
"123 370 LINE",
"123 0 LINE",
"321 0 LINE",
"321 370 LINE",
"495 370 LINE",
"495 171 LINE SMOOTH",
"495 55 OFFCURVE",
"582 -13 OFFCURVE",
"728 -13 CURVE SMOOTH",
"765 -13 OFFCURVE",
"798 -8 OFFCURVE",
"816 0 CURVE",
"816 160 LINE",
"793 151 OFFCURVE",
"763 146 OFFCURVE",
"737 146 CURVE SMOOTH",
"709 146 OFFCURVE",
"693 163 OFFCURVE",
"693 191 CURVE SMOOTH",
"693 370 LINE",
"797 370 LINE",
"797 520 LINE",
"693 520 LINE",
"693 629 LINE",
"495 629 LINE",
"495 518 LINE",
"422 520 LINE",
"321 520 LINE",
"321 535 LINE SMOOTH",
"321 560 OFFCURVE",
"349 577 OFFCURVE",
"390 577 CURVE SMOOTH",
"414 577 OFFCURVE",
"446 571 OFFCURVE",
"469 563 CURVE",
"469 723 LINE",
"452 731 OFFCURVE",
"415 736 OFFCURVE",
"375 736 CURVE SMOOTH",
"224 736 OFFCURVE",
"123 664 OFFCURVE",
"123 557 CURVE SMOOTH"
);
}
);
width = 856;
}
);
leftKerningGroup = f;
leftMetricsKey = f;
rightKerningGroup = t;
rightMetricsKey = t;
unicode = FB05;
},
{
color = 10;
glyphname = fi;
lastChange = "2025-09-12 14:23:15 +0000";
layers = (
{
layerId = "FD4D3FDD-DE85-408F-A52A-FF600B1C6101";
paths = (
{
closed = 1;
nodes = (
"153 518 LINE",
"60 520 LINE",
"60 478 LINE",
"153 478 LINE",
"153 0 LINE",
"201 0 LINE",
"201 478 LINE",
"429 478 LINE",
"429 0 LINE",
"477 0 LINE",
"477 520 LINE",
"201 520 LINE",
"201 565 LINE SMOOTH",
"201 647 OFFCURVE",
"251 695 OFFCURVE",
"335 695 CURVE SMOOTH",
"357 695 OFFCURVE",
"380 690 OFFCURVE",
"399 681 CURVE",
"399 723 LINE",
"381 731 OFFCURVE",
"356 736 OFFCURVE",
"332 736 CURVE SMOOTH",
"219 736 OFFCURVE",
"153 671 OFFCURVE",
"153 562 CURVE SMOOTH"
);
},
{
closed = 1;
nodes = (
"477 654 LINE",
"477 723 LINE",
"429 723 LINE",
"429 654 LINE"
);
}
);
width = 537;
},
{
layerId = m002;
paths = (
{
closed = 1;
nodes = (
"123 518 LINE",
"50 520 LINE",
"50 370 LINE",
"123 370 LINE",
"123 0 LINE",
"321 0 LINE",
"321 370 LINE",
"499 370 LINE",
"499 0 LINE",
"697 0 LINE",
"697 520 LINE",
"321 520 LINE",
"321 535 LINE SMOOTH",
"321 560 OFFCURVE",
"349 577 OFFCURVE",
"390 577 CURVE SMOOTH",
"414 577 OFFCURVE",
"446 571 OFFCURVE",
"469 563 CURVE",
"469 723 LINE",
"452 731 OFFCURVE",
"415 736 OFFCURVE",
"375 736 CURVE SMOOTH",
"224 736 OFFCURVE",
"123 664 OFFCURVE",
"123 557 CURVE SMOOTH"
);
},
{
closed = 1;
nodes = (
"697 553 LINE",
"697 723 LINE",
"499 723 LINE",
"499 553 LINE"
);
}
);
width = 747;
}
);
leftKerningGroup = f;
leftMetricsKey = f;
rightKerningGroup = i;
rightMetricsKey = i;
unicode = FB01;
},
{
color = 10;
glyphname = fl;
lastChange = "2025-09-12 05:03:52 +0000";
layers = (
{
layerId = "FD4D3FDD-DE85-408F-A52A-FF600B1C6101";
paths = (
{
closed = 1;
nodes = (
"419 520 LINE",
"201 520 LINE",
"201 565 LINE SMOOTH",
"201 647 OFFCURVE",
"251 695 OFFCURVE",
"335 695 CURVE SMOOTH",
"357 695 OFFCURVE",
"380 690 OFFCURVE",
"399 681 CURVE",
"399 723 LINE",
"381 731 OFFCURVE",
"356 736 OFFCURVE",
"332 736 CURVE SMOOTH",
"219 736 OFFCURVE",
"153 671 OFFCURVE",
"153 562 CURVE SMOOTH",
"153 518 LINE",
"60 520 LINE",
"60 478 LINE",
"153 478 LINE",
"153 0 LINE",
"201 0 LINE",
"201 478 LINE",
"419 478 LINE",
"419 0 LINE",
"467 0 LINE",
"467 704 LINE",
"419 723 LINE"
);
}
);
width = 527;
},
{
layerId = m002;
paths = (
{
closed = 1;
nodes = (
"499 520 LINE",
"321 520 LINE",
"321 535 LINE SMOOTH",
"321 560 OFFCURVE",
"349 577 OFFCURVE",
"390 577 CURVE SMOOTH",
"414 577 OFFCURVE",
"446 571 OFFCURVE",
"469 563 CURVE",
"469 723 LINE",
"452 731 OFFCURVE",
"415 736 OFFCURVE",
"375 736 CURVE SMOOTH",
"224 736 OFFCURVE",
"123 664 OFFCURVE",
"123 557 CURVE SMOOTH",
"123 518 LINE",
"50 520 LINE",
"50 370 LINE",
"123 370 LINE",
"123 0 LINE",
"321 0 LINE",
"321 370 LINE",
"499 370 LINE",
"499 0 LINE",
"667 0 LINE",
"667 669 LINE",
"499 723 LINE"
);
}
);
width = 717;
}
);
leftKerningGroup = f;
leftMetricsKey = f;
rightKerningGroup = l;
rightMetricsKey = l;
unicode = FB02;
},
{
color = 10;
glyphname = t_t;
lastChange = "2025-09-12 18:09:08 +0000";
layers = (
{
hints = (
{
place = "{149, 0}";
type = Stem;
},
{
place = "{461, 0}";
type = Stem;
}
);
layerId = "FD4D3FDD-DE85-408F-A52A-FF600B1C6101";
paths = (
{
closed = 1;
nodes = (
"133 30 OFFCURVE",
"174 -13 OFFCURVE",
"277 -13 CURVE SMOOTH",
"300 -13 OFFCURVE",
"315 -10 OFFCURVE",
"332 -3 CURVE",
"332 39 LINE",
"320 31 OFFCURVE",
"304 28 OFFCURVE",
"276 28 CURVE SMOOTH",
"208 28 OFFCURVE",
"181 60 OFFCURVE",
"181 139 CURVE SMOOTH",
"181 478 LINE",
"408 478 LINE",
"408 139 LINE SMOOTH",
"408 30 OFFCURVE",
"449 -13 OFFCURVE",
"552 -13 CURVE SMOOTH",
"575 -13 OFFCURVE",
"590 -10 OFFCURVE",
"607 -3 CURVE",
"607 39 LINE",
"595 31 OFFCURVE",
"579 28 OFFCURVE",
"551 28 CURVE SMOOTH",
"483 28 OFFCURVE",
"456 60 OFFCURVE",
"456 139 CURVE SMOOTH",
"456 478 LINE",
"590 478 LINE",
"590 520 LINE",
"456 520 LINE",
"456 629 LINE",
"408 629 LINE",
"408 518 LINE",
"315 520 LINE",
"181 520 LINE",
"181 629 LINE",
"133 629 LINE",
"133 518 LINE",
"40 523 LINE",
"40 478 LINE",
"133 478 LINE",
"133 139 LINE SMOOTH"
);
}
);
width = 647;
},
{
hints = (
{
place = "{149, 0}";
type = Stem;
},
{
place = "{504, 0}";
type = Stem;
}
);
layerId = m002;
paths = (
{
closed = 1;
nodes = (
"113 55 OFFCURVE",
"200 -13 OFFCURVE",
"346 -13 CURVE SMOOTH",
"383 -13 OFFCURVE",
"416 -8 OFFCURVE",
"434 0 CURVE",
"434 160 LINE",
"411 151 OFFCURVE",
"381 146 OFFCURVE",
"355 146 CURVE SMOOTH",
"327 146 OFFCURVE",
"311 163 OFFCURVE",
"311 191 CURVE SMOOTH",
"311 370 LINE",
"488 370 LINE",
"488 171 LINE SMOOTH",
"488 55 OFFCURVE",
"575 -13 OFFCURVE",
"721 -13 CURVE SMOOTH",
"758 -13 OFFCURVE",
"791 -8 OFFCURVE",
"809 0 CURVE",
"809 160 LINE",
"786 151 OFFCURVE",
"756 146 OFFCURVE",
"730 146 CURVE SMOOTH",
"702 146 OFFCURVE",
"686 163 OFFCURVE",
"686 191 CURVE SMOOTH",
"686 370 LINE",
"790 370 LINE",
"790 520 LINE",
"686 520 LINE",
"686 629 LINE",
"488 629 LINE",
"488 518 LINE",
"415 520 LINE",
"311 520 LINE",
"311 629 LINE",
"113 629 LINE",
"113 518 LINE",
"40 523 LINE",
"40 370 LINE",
"113 370 LINE",
"113 171 LINE SMOOTH"
);
}
);
width = 849;
}
);
leftKerningGroup = t;
leftMetricsKey = t;
rightKerningGroup = t;
rightMetricsKey = t;
},
{
color = 10;
glyphname = clickalveolar;
lastChange = "2025-09-12 18:09:10 +0000";
layers = (
{
layerId = "FD4D3FDD-DE85-408F-A52A-FF600B1C6101";
paths = (
{
closed = 1;
nodes = (
"180 518 LINE",
"40 523 LINE",
"40 478 LINE",
"180 478 LINE",
"180 369 LINE",
"40 374 LINE",
"40 329 LINE",
"180 329 LINE",
"180 -182 LINE",
"230 -182 LINE",
"230 329 LINE",
"365 329 LINE",
"365 371 LINE",
"230 371 LINE",
"230 478 LINE",
"365 478 LINE",
"365 520 LINE",
"230 520 LINE",
"230 714 LINE",
"180 714 LINE"
);
}
);
width = 405;
},
{
layerId = m002;
paths = (
{
closed = 1;
nodes = (
"178 523 LINE",
"40 528 LINE",
"40 375 LINE",
"178 375 LINE",
"178 283 LINE",
"40 288 LINE",
"40 135 LINE",
"178 135 LINE",
"178 -182 LINE",
"328 -182 LINE",
"328 135 LINE",
"465 135 LINE",
"465 285 LINE",
"328 285 LINE",
"328 375 LINE",
"465 375 LINE",
"465 525 LINE",
"328 525 LINE",
"328 714 LINE",
"178 714 LINE"
);
}
);
width = 505;
}
);
leftKerningGroup = t;
leftMetricsKey = t;
rightKerningGroup = t;
rightMetricsKey = t;
unicode = 01C2;
},
{
color = 10;
glyphname = ordfeminine;
lastChange = "2025-09-12 05:01:52 +0000";
layers = (
{
layerId = "FD4D3FDD-DE85-408F-A52A-FF600B1C6101";
paths = (
{
closed = 1;
nodes = (
"240 433 OFFCURVE",
"291 443 OFFCURVE",
"311 486 CURVE",
"312 486 LINE",
"310 439 LINE",
"359 439 LINE",
"359 707 LINE",
"311 707 LINE",
"312 660 LINE",
"311 660 LINE",
"286 699 OFFCURVE",
"241 714 OFFCURVE",
"194 714 CURVE SMOOTH",
"110 714 OFFCURVE",
"50 658 OFFCURVE",
"50 574 CURVE SMOOTH",
"50 491 OFFCURVE",
"109 433 OFFCURVE",
"192 433 CURVE SMOOTH"
);
},
{
closed = 1;
nodes = (
"98 634 OFFCURVE",
"140 672 OFFCURVE",
"200 672 CURVE SMOOTH",
"262 672 OFFCURVE",
"311 636 OFFCURVE",
"311 574 CURVE SMOOTH",
"311 511 OFFCURVE",
"261 474 OFFCURVE",
"198 474 CURVE SMOOTH",
"138 474 OFFCURVE",
"98 514 OFFCURVE",
"98 574 CURVE SMOOTH"
);
}
);
width = 419;
},
{
layerId = m002;
paths = (
{
closed = 1;
nodes = (
"210 433 OFFCURVE",
"245 443 OFFCURVE",
"265 459 CURVE",
"267 459 LINE",
"265 439 LINE",
"366 439 LINE",
"366 707 LINE",
"265 707 LINE",
"267 690 LINE",
"265 690 LINE",
"247 704 OFFCURVE",
"214 713 OFFCURVE",
"182 713 CURVE SMOOTH",
"91 713 OFFCURVE",
"30 657 OFFCURVE",
"30 573 CURVE SMOOTH",
"30 489 OFFCURVE",
"88 433 OFFCURVE",
"175 433 CURVE SMOOTH"
);
},
{
closed = 1;
nodes = (
"141 604 OFFCURVE",
"166 624 OFFCURVE",
"203 624 CURVE SMOOTH",
"240 624 OFFCURVE",
"265 604 OFFCURVE",
"265 573 CURVE SMOOTH",
"265 542 OFFCURVE",
"240 522 OFFCURVE",
"203 522 CURVE SMOOTH",
"166 522 OFFCURVE",
"141 542 OFFCURVE",
"141 573 CURVE SMOOTH"
);
}
);
width = 416;
}
);
leftKerningGroup = o;
leftMetricsKey = a;
rightKerningGroup = n;
rightMetricsKey = a;
unicode = 00AA;
},
{
color = 10;
glyphname = ordmasculine;
lastChange = "2025-09-12 05:01:56 +0000";
layers = (
{
layerId = "FD4D3FDD-DE85-408F-A52A-FF600B1C6101";
paths = (
{
closed = 1;
nodes = (
"114 714 OFFCURVE",
"50 658 OFFCURVE",
"50 573 CURVE SMOOTH",
"50 488 OFFCURVE",
"114 433 OFFCURVE",
"199 433 CURVE SMOOTH",
"284 433 OFFCURVE",
"349 488 OFFCURVE",
"349 573 CURVE SMOOTH",
"349 659 OFFCURVE",
"285 714 OFFCURVE",
"199 714 CURVE SMOOTH"
);
},
{
closed = 1;
nodes = (
"98 633 OFFCURVE",
"139 672 OFFCURVE",
"199 672 CURVE SMOOTH",
"259 672 OFFCURVE",
"301 633 OFFCURVE",
"301 573 CURVE SMOOTH",
"301 513 OFFCURVE",
"259 475 OFFCURVE",
"199 475 CURVE SMOOTH",
"139 475 OFFCURVE",
"98 513 OFFCURVE",
"98 573 CURVE SMOOTH"
);
}
);
width = 399;
},
{
layerId = m002;
paths = (
{
closed = 1;
nodes = (
"96 713 OFFCURVE",
"30 661 OFFCURVE",
"30 572 CURVE SMOOTH",
"30 484 OFFCURVE",
"96 432 OFFCURVE",
"208 432 CURVE SMOOTH",
"321 432 OFFCURVE",
"387 484 OFFCURVE",
"387 572 CURVE SMOOTH",
"387 661 OFFCURVE",
"321 713 OFFCURVE",
"208 713 CURVE SMOOTH"
);
},
{
closed = 1;
nodes = (
"141 605 OFFCURVE",
"166 624 OFFCURVE",
"208 624 CURVE SMOOTH",
"251 624 OFFCURVE",
"276 605 OFFCURVE",
"276 572 CURVE SMOOTH",
"276 540 OFFCURVE",
"251 521 OFFCURVE",
"208 521 CURVE SMOOTH",
"166 521 OFFCURVE",
"141 540 OFFCURVE",
"141 572 CURVE SMOOTH"
);
}
);
width = 417;
}
);
leftKerningGroup = o;
leftMetricsKey = o;
rightKerningGroup = o;
rightMetricsKey = o;
unicode = 00BA;
},
{
color = 10;
glyphname = "Be-cy";
lastChange = "2025-09-12 14:41:16 +0000";
layers = (
{
layerId = "FD4D3FDD-DE85-408F-A52A-FF600B1C6101";
paths = (
{
closed = 1;
nodes = (
"472 0 LINE SMOOTH",
"605 0 OFFCURVE",
"684 74 OFFCURVE",
"684 198 CURVE SMOOTH",
"684 324 OFFCURVE",
"601 398 OFFCURVE",
"460 398 CURVE SMOOTH",
"110 398 LINE",
"110 666 LINE",
"664 666 LINE",
"664 714 LINE",
"60 714 LINE",
"60 0 LINE"
);
},
{
closed = 1;
nodes = (
"110 351 LINE",
"460 351 LINE SMOOTH",
"569 351 OFFCURVE",
"634 293 OFFCURVE",
"634 196 CURVE SMOOTH",
"634 103 OFFCURVE",
"573 48 OFFCURVE",
"470 48 CURVE SMOOTH",
"110 48 LINE"
);
}
);
width = 734;
},
{
layerId = m002;
paths = (
{
closed = 1;
nodes = (
"560 0 LINE SMOOTH",
"725 0 OFFCURVE",
"822 84 OFFCURVE",
"822 225 CURVE SMOOTH",
"822 366 OFFCURVE",
"720 449 OFFCURVE",
"548 449 CURVE SMOOTH",
"270 449 LINE",
"270 546 LINE",
"792 546 LINE",
"792 714 LINE",
"60 714 LINE",
"60 0 LINE"
);
},
{
closed = 1;
nodes = (
"270 281 LINE",
"548 281 LINE SMOOTH",
"582 281 OFFCURVE",
"602 260 OFFCURVE",
"602 225 CURVE SMOOTH",
"602 189 OFFCURVE",
"586 168 OFFCURVE",
"558 168 CURVE SMOOTH",
"270 168 LINE"
);
}
);
width = 862;
}
);
leftKerningGroup = H;
leftMetricsKey = H;
rightKerningGroup = E;
rightMetricsKey = E;
unicode = 0411;
},
{
color = 10;
glyphname = "Ge-cy";
lastChange = "2025-09-12 14:41:18 +0000";
layers = (
{
anchors = (
{
name = Bottom;
position = "{304, 0}";
},
{
name = Top;
position = "{309, 714}";
}
);
layerId = "FD4D3FDD-DE85-408F-A52A-FF600B1C6101";
paths = (
{
closed = 1;
nodes = (
"110 666 LINE",
"622 666 LINE",
"622 714 LINE",
"60 714 LINE",
"60 0 LINE",
"110 0 LINE"
);
}
);
width = 642;
},
{
anchors = (
{
name = Bottom;
position = "{354, 0}";
},
{
name = Top;
position = "{409, 714}";
}
);
layerId = m002;
paths = (
{
closed = 1;
nodes = (
"270 546 LINE",
"782 546 LINE",
"782 714 LINE",
"60 714 LINE",
"60 0 LINE",
"270 0 LINE"
);
}
);
width = 792;
}
);
leftKerningGroup = H;
leftMetricsKey = H;
rightKerningGroup = "Ge-cy";
rightMetricsKey = T;
unicode = 0413;
},
{
color = 10;
glyphname = "Geupturn-cy";
lastChange = "2025-09-12 14:41:20 +0000";
layers = (
{
layerId = "FD4D3FDD-DE85-408F-A52A-FF600B1C6101";
paths = (
{
closed = 1;
nodes = (
"110 666 LINE",
"646 666 LINE",
"646 752 LINE",
"596 752 LINE",
"596 714 LINE",
"60 714 LINE",
"60 0 LINE",
"110 0 LINE"
);
}
);
width = 666;
},
{
layerId = m002;
paths = (
{
closed = 1;
nodes = (
"270 546 LINE",
"888 546 LINE",
"888 772 LINE",
"678 772 LINE",
"678 714 LINE",
"60 714 LINE",
"60 0 LINE",
"270 0 LINE"
);
}
);
width = 898;
}
);
leftKerningGroup = H;
leftMetricsKey = "Ge-cy";
rightKerningGroup = "Ge-cy";
rightMetricsKey = "Ge-cy";
unicode = 0490;
},
{
color = 10;
glyphname = "Gedescender-cy";
lastChange = "2025-09-12 14:41:22 +0000";
layers = (
{
layerId = "FD4D3FDD-DE85-408F-A52A-FF600B1C6101";
paths = (
{
closed = 1;
nodes = (
"110 -100 LINE",
"160 -100 LINE",
"160 48 LINE",
"110 48 LINE",
"110 666 LINE",
"622 666 LINE",
"622 714 LINE",
"60 714 LINE",
"60 0 LINE",
"110 0 LINE"
);
}
);
width = 642;
},
{
layerId = m002;
paths = (
{
closed = 1;
nodes = (
"270 -100 LINE",
"480 -100 LINE",
"480 168 LINE",
"270 168 LINE",
"270 546 LINE",
"782 546 LINE",
"782 714 LINE",
"60 714 LINE",
"60 0 LINE",
"270 0 LINE"
);
}
);
width = 792;
}
);
leftKerningGroup = H;
leftMetricsKey = "Ge-cy";
rightKerningGroup = "Ge-cy";
rightMetricsKey = "Ge-cy";
unicode = 04F6;
},
{
color = 10;
glyphname = "Gestroke-cy";
lastChange = "2025-09-12 14:41:24 +0000";
layers = (
{
layerId = "FD4D3FDD-DE85-408F-A52A-FF600B1C6101";
paths = (
{
closed = 1;
nodes = (
"170 344 LINE",
"590 344 LINE",
"590 384 LINE",
"170 384 LINE",
"170 666 LINE",
"682 666 LINE",
"682 714 LINE",
"120 714 LINE",
"120 384 LINE",
"60 384 LINE",
"60 344 LINE",
"120 344 LINE",
"120 0 LINE",
"170 0 LINE"
);
}
);
width = 702;
},
{
layerId = m002;
paths = (
{
closed = 1;
nodes = (
"330 233 LINE",
"795 233 LINE",
"795 383 LINE",
"330 383 LINE",
"330 546 LINE",
"842 546 LINE",
"842 714 LINE",
"120 714 LINE",
"120 383 LINE",
"60 383 LINE",
"60 233 LINE",
"120 233 LINE",
"120 0 LINE",
"330 0 LINE"
);
}
);
width = 852;
}
);
leftKerningGroup = "Ge-cy";
leftMetricsKey = "Ge-cy";
rightKerningGroup = "Ge-cy";
rightMetricsKey = "Ge-cy";
unicode = 0492;
},
{
color = 10;
glyphname = "Gemiddlehook-cy";
lastChange = "2025-09-12 14:41:28 +0000";
layers = (
{
layerId = "FD4D3FDD-DE85-408F-A52A-FF600B1C6101";
paths = (
{
closed = 1;
nodes = (
"620 334 OFFCURVE",
"510 432 OFFCURVE",
"345 432 CURVE SMOOTH",
"247 432 OFFCURVE",
"152 400 OFFCURVE",
"108 353 CURVE",
"106 353 LINE",
"115 420 LINE",
"115 666 LINE",
"622 666 LINE",
"622 714 LINE",
"60 714 LINE",
"60 0 LINE",
"110 0 LINE",
"110 290 LINE",
"157 345 OFFCURVE",
"250 382 OFFCURVE",
"343 382 CURVE SMOOTH",
"481 382 OFFCURVE",
"573 304 OFFCURVE",
"573 188 CURVE SMOOTH",
"573 87 OFFCURVE",
"525 -16 OFFCURVE",
"452 -69 CURVE",
"483 -105 LINE",
"565 -46 OFFCURVE",
"620 71 OFFCURVE",
"620 188 CURVE SMOOTH"
);
}
);
width = 672;
},
{
layerId = m002;
paths = (
{
closed = 1;
nodes = (
"808 318 OFFCURVE",
"671 432 OFFCURVE",
"465 432 CURVE SMOOTH",
"383 432 OFFCURVE",
"302 412 OFFCURVE",
"263 382 CURVE",
"261 382 LINE",
"270 439 LINE",
"270 546 LINE",
"782 546 LINE",
"782 714 LINE",
"60 714 LINE",
"60 0 LINE",
"270 0 LINE",
"270 189 LINE",
"308 234 OFFCURVE",
"382 264 OFFCURVE",
"455 264 CURVE SMOOTH",
"535 264 OFFCURVE",
"588 218 OFFCURVE",
"588 148 CURVE SMOOTH",
"588 57 OFFCURVE",
"527 -16 OFFCURVE",
"435 -35 CURVE",
"631 -166 LINE",
"737 -97 OFFCURVE",
"808 29 OFFCURVE",
"808 148 CURVE SMOOTH"
);
}
);
width = 838;
}
);
leftKerningGroup = H;
leftMetricsKey = H;
rightKerningGroup = "Dje-cy";
rightMetricsKey = b;
unicode = 0494;
},
{
color = 10;
glyphname = "De-cy";
lastChange = "2025-09-12 14:41:31 +0000";
layers = (
{
layerId = "FD4D3FDD-DE85-408F-A52A-FF600B1C6101";
paths = (
{
closed = 1;
nodes = (
"228 714 LINE",
"188 163 LINE SMOOTH",
"182 87 OFFCURVE",
"139 48 OFFCURVE",
"62 48 CURVE SMOOTH",
"40 48 LINE",
"40 -100 LINE",
"90 -100 LINE",
"90 0 LINE",
"740 0 LINE",
"740 -100 LINE",
"790 -100 LINE",
"790 48 LINE",
"740 48 LINE",
"740 714 LINE"
);
},
{
closed = 1;
nodes = (
"219 75 OFFCURVE",
"234 114 OFFCURVE",
"238 163 CURVE SMOOTH",
"275 666 LINE",
"690 666 LINE",
"690 48 LINE",
"193 48 LINE"
);
}
);
width = 830;
},
{
layerId = m002;
paths = (
{
closed = 1;
nodes = (
"302 714 LINE",
"262 291 LINE SMOOTH",
"254 210 OFFCURVE",
"214 168 OFFCURVE",
"144 168 CURVE SMOOTH",
"40 168 LINE",
"40 -100 LINE",
"250 -100 LINE",
"250 0 LINE",
"837 0 LINE",
"837 -100 LINE",
"1047 -100 LINE",
"1047 168 LINE",
"942 168 LINE",
"942 714 LINE"
);
},
{
closed = 1;
nodes = (
"458 204 OFFCURVE",
"468 246 OFFCURVE",
"472 293 CURVE SMOOTH",
"496 546 LINE",
"732 546 LINE",
"732 168 LINE",
"444 168 LINE"
);
}
);
width = 1087;
}
);
leftKerningGroup = "De-cy";
leftMetricsKey = J;
rightKerningGroup = "De-cy";
rightMetricsKey = L;
unicode = 0414;
},
{
color = 10;
glyphname = "Zhe-cy";
lastChange = "2025-09-12 14:41:36 +0000";
layers = (
{
anchors = (
{
name = Bottom;
position = "{435, 0}";
},
{
name = Top;
position = "{435, 714}";
}
);
layerId = "FD4D3FDD-DE85-408F-A52A-FF600B1C6101";
paths = (
{
closed = 1;
nodes = (
"460 334 LINE",
"462 334 LINE",
"771 0 LINE",
"830 0 LINE",
"507 357 LINE",
"830 714 LINE",
"771 714 LINE",
"462 382 LINE",
"460 382 LINE",
"460 714 LINE",
"410 714 LINE",
"410 382 LINE",
"408 382 LINE",
"99 714 LINE",
"40 714 LINE",
"363 357 LINE",
"40 0 LINE",
"99 0 LINE",
"408 334 LINE",
"410 334 LINE",
"410 0 LINE",
"460 0 LINE"
);
}
);
width = 870;
},
{
anchors = (
{
name = Bottom;
position = "{637, 0}";
},
{
name = Top;
position = "{637, 714}";
}
);
layerId = m002;
paths = (
{
closed = 1;
nodes = (
"742 299 LINE",
"744 299 LINE",
"1005 0 LINE",
"1234 0 LINE",
"937 357 LINE",
"1234 714 LINE",
"1005 714 LINE",
"744 414 LINE",
"742 414 LINE",
"742 714 LINE",
"532 714 LINE",
"532 414 LINE",
"530 414 LINE",
"269 714 LINE",
"40 714 LINE",
"337 357 LINE",
"40 0 LINE",
"269 0 LINE",
"529 299 LINE",
"531 299 LINE",
"532 0 LINE",
"742 0 LINE"
);
}
);
width = 1274;
}
);
leftKerningGroup = "Zhe-cy";
leftMetricsKey = A;
rightKerningGroup = "Zhe-cy";
rightMetricsKey = A;
unicode = 0416;
},
{
color = 10;
glyphname = "Ze-cy";
lastChange = "2025-09-12 14:41:39 +0000";
layers = (
{
anchors = (
{
name = Bottom;
position = "{345, 0}";
},
{
name = Top;
position = "{345, 714}";
}
);
layerId = "FD4D3FDD-DE85-408F-A52A-FF600B1C6101";
paths = (
{
closed = 1;
nodes = (
"596 100 OFFCURVE",
"497 35 OFFCURVE",
"348 35 CURVE SMOOTH",
"199 35 OFFCURVE",
"100 98 OFFCURVE",
"100 193 CURVE",
"50 193 LINE",
"50 69 OFFCURVE",
"169 -13 OFFCURVE",
"348 -13 CURVE SMOOTH",
"527 -13 OFFCURVE",
"646 71 OFFCURVE",
"646 197 CURVE SMOOTH",
"646 285 OFFCURVE",
"588 355 OFFCURVE",
"501 371 CURVE",
"501 373 LINE",
"574 399 OFFCURVE",
"623 462 OFFCURVE",
"623 530 CURVE SMOOTH",
"623 647 OFFCURVE",
"512 725 OFFCURVE",
"345 725 CURVE SMOOTH",
"172 725 OFFCURVE",
"57 647 OFFCURVE",
"57 529 CURVE",
"107 529 LINE",
"107 618 OFFCURVE",
"202 677 OFFCURVE",
"345 677 CURVE SMOOTH",
"482 677 OFFCURVE",
"573 618 OFFCURVE",
"573 530 CURVE SMOOTH",
"573 450 OFFCURVE",
"482 396 OFFCURVE",
"345 396 CURVE SMOOTH",
"298 396 LINE",
"298 348 LINE",
"345 348 LINE SMOOTH",
"496 348 OFFCURVE",
"596 288 OFFCURVE",
"596 197 CURVE SMOOTH"
);
}
);
width = 696;
},
{
anchors = (
{
name = Bottom;
position = "{409, 0}";
},
{
name = Top;
position = "{409, 714}";
}
);
layerId = m002;
paths = (
{
closed = 1;
nodes = (
"575 186 OFFCURVE",
"507 155 OFFCURVE",
"404 155 CURVE SMOOTH",
"307 155 OFFCURVE",
"243 186 OFFCURVE",
"243 233 CURVE",
"43 233 LINE",
"43 85 OFFCURVE",
"187 -13 OFFCURVE",
"404 -13 CURVE SMOOTH",
"627 -13 OFFCURVE",
"775 79 OFFCURVE",
"775 217 CURVE SMOOTH",
"775 286 OFFCURVE",
"731 347 OFFCURVE",
"664 371 CURVE",
"664 373 LINE",
"717 398 OFFCURVE",
"752 453 OFFCURVE",
"752 511 CURVE SMOOTH",
"752 640 OFFCURVE",
"612 726 OFFCURVE",
"402 726 CURVE SMOOTH",
"185 726 OFFCURVE",
"40 628 OFFCURVE",
"40 480 CURVE",
"240 480 LINE",
"240 527 OFFCURVE",
"305 558 OFFCURVE",
"402 558 CURVE SMOOTH",
"492 558 OFFCURVE",
"552 534 OFFCURVE",
"552 497 CURVE SMOOTH",
"552 461 OFFCURVE",
"494 437 OFFCURVE",
"408 437 CURVE SMOOTH",
"356 437 LINE",
"356 307 LINE",
"408 307 LINE SMOOTH",
"508 307 OFFCURVE",
"575 277 OFFCURVE",
"575 232 CURVE SMOOTH"
);
}
);
width = 815;
}
);
leftKerningGroup = "Ze-cy";
leftMetricsKey = O;
rightKerningGroup = "Ze-cy";
rightMetricsKey = O;
unicode = 0417;
},
{
color = 10;
glyphname = "Ii-cy";
lastChange = "2025-09-12 14:41:42 +0000";
layers = (
{
anchors = (
{
name = Bottom;
position = "{372, 0}";
},
{
name = Top;
position = "{372, 714}";
}
);
layerId = "FD4D3FDD-DE85-408F-A52A-FF600B1C6101";
paths = (
{
closed = 1;
nodes = (
"112 83 LINE",
"110 83 LINE",
"110 714 LINE",
"60 714 LINE",
"60 0 LINE",
"110 0 LINE",
"632 631 LINE",
"634 631 LINE",
"634 0 LINE",
"684 0 LINE",
"684 714 LINE",
"634 714 LINE"
);
}
);
width = 744;
},
{
anchors = (
{
name = Bottom;
position = "{442, 0}";
},
{
name = Top;
position = "{442, 714}";
}
);
layerId = m002;
paths = (
{
closed = 1;
nodes = (
"272 310 LINE",
"270 310 LINE",
"270 714 LINE",
"60 714 LINE",
"60 0 LINE",
"270 0 LINE",
"612 404 LINE",
"614 404 LINE",
"614 0 LINE",
"824 0 LINE",
"824 714 LINE",
"614 714 LINE"
);
}
);
width = 884;
}
);
leftKerningGroup = H;
leftMetricsKey = N;
rightKerningGroup = H;
rightMetricsKey = N;
unicode = 0418;
},
{
color = 10;
glyphname = "Ka-cy";
lastChange = "2025-09-12 14:41:46 +0000";
layers = (
{
anchors = (
{
name = Bottom;
position = "{304, 0}";
},
{
name = Top;
position = "{329, 714}";
}
);
layerId = "FD4D3FDD-DE85-408F-A52A-FF600B1C6101";
paths = (
{
closed = 1;
nodes = (
"60 0 LINE",
"110 0 LINE",
"110 260 LINE",
"266 381 LINE",
"611 0 LINE",
"683 0 LINE",
"305 412 LINE",
"691 714 LINE",
"617 714 LINE",
"112 322 LINE",
"110 322 LINE",
"110 714 LINE",
"60 714 LINE"
);
}
);
width = 731;
},
{
anchors = (
{
name = Bottom;
position = "{398, 0}";
},
{
name = Top;
position = "{423, 714}";
}
);
layerId = m002;
paths = (
{
closed = 1;
nodes = (
"60 0 LINE",
"270 0 LINE",
"270 191 LINE",
"382 285 LINE",
"621 0 LINE",
"877 0 LINE",
"532 412 LINE",
"891 714 LINE",
"604 714 LINE",
"272 434 LINE",
"270 434 LINE",
"270 714 LINE",
"60 714 LINE"
);
}
);
width = 931;
}
);
leftKerningGroup = H;
leftMetricsKey = K;
rightKerningGroup = K;
rightMetricsKey = K;
unicode = 041A;
},
{
color = 10;
glyphname = "El-cy";
lastChange = "2025-09-12 14:41:49 +0000";
layers = (
{
layerId = "FD4D3FDD-DE85-408F-A52A-FF600B1C6101";
paths = (
{
closed = 1;
nodes = (
"187 714 LINE",
"187 163 LINE SMOOTH",
"187 90 OFFCURVE",
"151 47 OFFCURVE",
"89 47 CURVE SMOOTH",
"70 47 OFFCURVE",
"52 48 OFFCURVE",
"40 51 CURVE",
"40 3 LINE",
"55 1 OFFCURVE",
"73 0 OFFCURVE",
"88 0 CURVE SMOOTH",
"182 0 OFFCURVE",
"237 61 OFFCURVE",
"237 163 CURVE SMOOTH",
"237 666 LINE",
"761 666 LINE",
"761 0 LINE",
"811 0 LINE",
"811 714 LINE"
);
}
);
width = 871;
},
{
layerId = m002;
paths = (
{
closed = 1;
nodes = (
"127 714 LINE",
"127 219 LINE SMOOTH",
"127 186 OFFCURVE",
"109 167 OFFCURVE",
"79 167 CURVE SMOOTH",
"61 167 OFFCURVE",
"53 168 OFFCURVE",
"40 171 CURVE",
"40 3 LINE",
"51 1 OFFCURVE",
"77 0 OFFCURVE",
"108 0 CURVE SMOOTH",
"252 0 OFFCURVE",
"337 83 OFFCURVE",
"337 223 CURVE SMOOTH",
"337 546 LINE",
"681 546 LINE",
"681 0 LINE",
"891 0 LINE",
"891 714 LINE"
);
}
);
width = 951;
}
);
leftKerningGroup = "El-cy";
leftMetricsKey = J;
rightKerningGroup = N;
rightMetricsKey = N;
unicode = 041B;
},
{
color = 10;
glyphname = "Pe-cy";
lastChange = "2025-09-12 14:42:04 +0000";
layers = (
{
layerId = "FD4D3FDD-DE85-408F-A52A-FF600B1C6101";
paths = (
{
closed = 1;
nodes = (
"110 666 LINE",
"634 666 LINE",
"634 0 LINE",
"684 0 LINE",
"684 714 LINE",
"60 714 LINE",
"60 0 LINE",
"110 0 LINE"
);
}
);
width = 744;
},
{
layerId = m002;
paths = (
{
closed = 1;
nodes = (
"270 546 LINE",
"614 546 LINE",
"614 0 LINE",
"824 0 LINE",
"824 714 LINE",
"60 714 LINE",
"60 0 LINE",
"270 0 LINE"
);
}
);
width = 884;
}
);
leftKerningGroup = H;
leftMetricsKey = H;
rightKerningGroup = H;
rightMetricsKey = H;
unicode = 041F;
},
{
color = 10;
glyphname = "U-cy";
lastChange = "2025-09-12 16:19:48 +0000";
layers = (
{
anchors = (
{
name = Top;
position = "{364, 714}";
}
);
layerId = "FD4D3FDD-DE85-408F-A52A-FF600B1C6101";
paths = (
{
closed = 1;
nodes = (
"687 714 LINE",
"629 714 LINE",
"389 258 LINE",
"387 258 LINE",
"99 714 LINE",
"40 714 LINE",
"361 203 LINE",
"320 125 LINE SMOOTH",
"288 65 OFFCURVE",
"261 37 OFFCURVE",
"213 37 CURVE SMOOTH",
"194 37 OFFCURVE",
"172 40 OFFCURVE",
"161 46 CURVE",
"161 -5 LINE",
"175 -10 OFFCURVE",
"193 -13 OFFCURVE",
"209 -13 CURVE SMOOTH",
"284 -13 OFFCURVE",
"329 35 OFFCURVE",
"377 125 CURVE SMOOTH"
);
}
);
width = 727;
},
{
anchors = (
{
name = Top;
position = "{455, 714}";
}
);
layerId = m002;
paths = (
{
closed = 1;
nodes = (
"869 714 LINE",
"661 714 LINE",
"469 401 LINE",
"467 401 LINE",
"248 714 LINE",
"40 714 LINE",
"367 234 LINE",
"352 210 LINE SMOOTH",
"330 175 OFFCURVE",
"301 154 OFFCURVE",
"250 154 CURVE SMOOTH",
"238 154 OFFCURVE",
"224 157 OFFCURVE",
"209 163 CURVE",
"209 -5 LINE",
"225 -10 OFFCURVE",
"250 -13 OFFCURVE",
"286 -13 CURVE SMOOTH",
"412 -13 OFFCURVE",
"476 72 OFFCURVE",
"567 221 CURVE SMOOTH"
);
}
);
width = 909;
}
);
leftKerningGroup = "U-cy";
leftMetricsKey = Y;
rightKerningGroup = "U-cy";
rightMetricsKey = Y;
unicode = 0423;
},
